<svg width="803" height="491" viewBox="0 0 803 491" fill="none" xmlns="http://www.w3.org/2000/svg">
<g filter="url(#filter0_d_1284_248)">
<path d="M799 356.081C799 389.908 785.289 420.533 763.121 442.701C740.952 464.87 710.327 478.581 676.5 478.581C642.673 478.581 612.048 464.87 589.879 442.701L425.823 276.258C406.365 256.8 385.285 268.151 377.177 276.258L213.121 442.701C190.952 464.87 160.327 478.581 126.5 478.581C92.6726 478.581 62.0476 464.87 39.8794 442.701C17.7113 420.533 4 389.908 4 356.081C4 322.253 17.7113 291.628 39.8794 269.46L143 164.84L229.501 77.0809C286.834 18.9138 435.9 -62.52 573.499 77.0809L763.121 269.46C785.289 291.628 799 322.253 799 356.081Z" fill="#E6EBEF"/>
<path d="M39.8794 269.46C17.7113 291.628 4 322.253 4 356.081C4 389.908 17.7113 420.533 39.8794 442.701C62.0476 464.87 92.6726 478.581 126.5 478.581C160.327 478.581 190.952 464.87 213.121 442.701L377.177 276.258C385.285 268.151 406.365 256.8 425.823 276.258L401.5 251.582L316.121 164.46C293.952 142.292 263.327 128.581 229.5 128.581C195.673 128.581 165.168 142.672 143 164.84L39.8794 269.46Z" fill="#030712" fill-opacity="0.7"/>
</g>
<defs>
<filter id="filter0_d_1284_248" x="0" y="0" width="803" height="490.581" filterUnits="userSpaceOnUse" color-interpolation-filters="sRGB">
<feFlood flood-opacity="0" result="BackgroundImageFix"/>
<feColorMatrix in="SourceAlpha" type="matrix" values="0 0 0 0 0 0 0 0 0 0 0 0 0 0 0 0 0 0 127 0" result="hardAlpha"/>
<feOffset dy="8"/>
<feGaussianBlur stdDeviation="2"/>
<feComposite in2="hardAlpha" operator="out"/>
<feColorMatrix type="matrix" values="0 0 0 0 0 0 0 0 0 0 0 0 0 0 0 0 0 0 0.3 0"/>
<feBlend mode="normal" in2="BackgroundImageFix" result="effect1_dropShadow_1284_248"/>
<feBlend mode="normal" in="SourceGraphic" in2="effect1_dropShadow_1284_248" result="shape"/>
</filter>
</defs>
</svg>
