<svg width="713" height="589" viewBox="0 0 713 589" fill="none" xmlns="http://www.w3.org/2000/svg">
<path d="M397.154 55.6447L400.631 57.6216C400.584 57.7043 400.534 57.7853 400.481 57.8644L397.154 55.6447ZM445.14 15.7257L446.797 19.3665L445.14 15.7257ZM635.145 58.1397L632.539 61.1744L632.539 61.1744L635.145 58.1397ZM690.343 131.879L694.02 130.303L694.02 130.303L690.343 131.879ZM708.372 230.013L712.359 230.338L708.372 230.013ZM656.781 355.592L660.158 357.735L660.158 357.735L656.781 355.592ZM576.063 480.893L579.417 483.074C579.38 483.13 579.342 483.185 579.303 483.239L576.063 480.893ZM524.471 519.703L523.444 523.569L524.471 519.703ZM331.97 460.934L333.05 457.082C333.084 457.092 333.118 457.102 333.152 457.112L331.97 460.934ZM92.0369 243.32L96.0186 242.937L92.0369 243.32ZM112.008 153.779L108.731 151.486C108.741 151.471 108.752 151.456 108.763 151.441L112.008 153.779ZM160.827 97.7815L158.431 94.5782C160.183 93.2678 162.663 93.6083 163.997 95.3426C165.331 97.0769 165.024 99.5612 163.308 100.919L160.827 97.7815ZM593.509 454.003L590.152 451.829L593.509 454.003ZM414.351 424.289L415.388 420.425C415.403 420.429 415.419 420.434 415.434 420.438L414.351 424.289ZM605.168 435.984L601.809 433.813L605.168 435.984ZM152.783 267.437L156.048 265.127L156.048 265.127L152.783 267.437ZM227.953 73.6637L228.352 77.6438L227.953 73.6637ZM583.5 405L580.104 407.113C580.075 407.068 580.048 407.022 580.022 406.975L583.5 405ZM564.968 435.984L568.36 433.863C568.378 433.894 568.397 433.924 568.415 433.955L564.968 435.984ZM385.781 126.612L389.126 124.418C389.167 124.48 389.206 124.545 389.244 124.61L385.781 126.612ZM568.855 22.1017C568.855 33.8837 559.304 43.435 547.522 43.435C535.74 43.435 526.188 33.8837 526.188 22.1017C526.188 10.3196 535.74 0.768338 547.522 0.768338C559.304 0.768338 568.855 10.3196 568.855 22.1017ZM661.219 102.494L657.962 104.816C657.948 104.797 657.935 104.779 657.922 104.76L661.219 102.494ZM684.241 243.32L688.07 244.476L688.07 244.476L684.241 243.32ZM610.736 368.898L613.563 371.727L613.563 371.727L610.736 368.898ZM377.46 92.7916L381.296 93.9256L377.46 92.7916ZM542.852 523L544.329 526.717L542.852 523ZM520 454L521.083 450.149C521.089 450.151 521.096 450.153 521.102 450.155L520 454ZM550 499.5L553.917 500.31L550 499.5ZM542.852 398.006L546.312 395.999L542.852 398.006ZM385.781 375L385.686 371.001L385.781 375ZM533.281 381.5L536.742 379.494L536.742 379.494L533.281 381.5ZM656.478 567C656.478 578.782 646.927 588.333 635.145 588.333C623.363 588.333 613.811 578.782 613.811 567C613.811 555.218 623.363 545.667 635.145 545.667C646.927 545.667 656.478 555.218 656.478 567ZM31.1777 229.5C31.1777 241.282 21.6264 250.833 9.84436 250.833C-1.93771 250.833 -11.489 241.282 -11.489 229.5C-11.489 217.718 -1.93771 208.167 9.84436 208.167C21.6264 208.167 31.1777 217.718 31.1777 229.5ZM441.086 149.108L444.589 147.178L441.086 149.108ZM343.978 116.247L340.79 118.663L343.978 116.247ZM343.833 116.058L346.975 113.583L343.833 116.058ZM554.043 511.307L550.803 508.961L554.043 511.307ZM548.372 518.403L545.418 515.706L548.372 518.403ZM347.399 126.293C347.846 120.705 351.988 106.961 364.342 91.412L370.606 96.3889C358.995 111.001 355.666 123.278 355.373 126.931L347.399 126.293ZM364.342 91.412C376.3 76.363 389.077 59.682 393.965 53.2293L400.342 58.0602C395.43 64.5441 382.614 81.2768 370.606 96.3889L364.342 91.412ZM393.676 53.6678C398.698 44.8347 415.39 24.8677 443.483 12.0849L446.797 19.3665C420.302 31.4222 404.855 50.1914 400.631 57.6216L393.676 53.6678ZM443.483 12.0849C478.793 -3.98132 516.737 0.951509 537.202 5.1543L535.593 12.9908C515.561 8.8771 479.723 4.38461 446.797 19.3665L443.483 12.0849ZM537.202 5.1543C557.856 9.39562 597.677 20.6958 637.75 55.1049L632.539 61.1744C593.837 27.943 555.437 17.0659 535.593 12.9908L537.202 5.1543ZM637.75 55.1049C669.864 82.679 688.871 118.296 694.02 130.303L686.667 133.455C681.83 122.176 663.446 87.7127 632.539 61.1744L637.75 55.1049ZM694.02 130.303C700.964 146.497 716.313 181.797 712.359 230.338L704.385 229.688C708.172 183.197 693.512 149.418 686.667 133.455L694.02 130.303ZM712.359 230.338C708.388 279.078 690.97 309.186 660.158 357.735L653.403 353.448C684.169 304.972 700.587 276.311 704.385 229.688L712.359 230.338ZM579.303 483.239L557.283 513.653L550.803 508.961L572.823 478.547L579.303 483.239ZM523.444 523.569C509.139 519.772 388.961 482.75 330.788 464.755L333.152 457.112C391.478 475.155 511.399 512.095 525.497 515.837L523.444 523.569ZM330.889 464.785C295.997 454.995 212.467 422.044 157.202 368.158L162.787 362.43C216.698 414.996 298.782 447.467 333.05 457.082L330.889 464.785ZM157.202 368.158C101.904 314.24 90.2459 266.497 88.0553 243.702L96.0186 242.937C98.0372 263.942 108.909 309.897 162.787 362.43L157.202 368.158ZM88.0553 243.702C86.4722 227.23 83.216 187.956 108.731 151.486L115.286 156.072C91.5395 190.014 94.458 226.698 96.0186 242.937L88.0553 243.702ZM596.867 456.178C589.906 466.925 583.852 476.252 579.417 483.074L572.71 478.713C577.142 471.895 583.194 462.572 590.152 451.829L596.867 456.178ZM660.158 357.735C645.539 380.769 625.711 411.569 608.527 438.156L601.809 433.813C618.99 407.23 638.803 376.453 653.403 353.448L660.158 357.735ZM608.527 438.156C604.458 444.452 600.536 450.512 596.867 456.178L590.152 451.829C593.82 446.165 597.74 440.107 601.809 433.813L608.527 438.156ZM163.223 100.985C149.945 110.915 133.402 131.119 127.532 159.159C121.695 187.038 126.316 223.113 156.048 265.127L149.518 269.748C118.67 226.158 113.352 187.847 119.701 157.519C126.017 127.353 143.786 105.532 158.431 94.5782L163.223 100.985ZM228.352 77.6438C192.453 81.2443 170.911 111.074 164.357 149.407C157.809 187.703 166.617 233.09 190.218 265.062L183.782 269.813C158.745 235.896 149.599 188.251 156.471 148.059C163.337 107.905 186.589 73.7924 227.553 69.6837L228.352 77.6438ZM347.974 128.7C346.286 125.941 341.534 119.645 340.79 118.663L347.165 113.83C347.797 114.664 352.85 121.341 354.798 124.524L347.974 128.7ZM340.69 118.533C339.229 116.678 301.879 70.2691 228.352 77.6438L227.553 69.6837C305.15 61.9008 344.881 110.924 346.975 113.583L340.69 118.533ZM444.589 147.178C480.24 211.9 545.043 329.161 586.978 403.025L580.022 406.975C538.057 333.059 473.23 215.755 437.582 151.038L444.589 147.178ZM548.646 18.263C623.151 40.0926 652.266 82.4069 664.515 100.228L657.922 104.76C646.132 87.6053 618.349 47.022 546.397 25.9403L548.646 18.263ZM664.476 100.172C680.153 122.164 709.666 172.965 688.07 244.476L680.412 242.163C700.977 174.066 672.981 125.885 657.962 104.816L664.476 100.172ZM688.07 244.476C669.413 306.254 631.299 354.002 613.563 371.727L607.908 366.069C624.978 349.009 662.233 302.36 680.412 242.163L688.07 244.476ZM613.563 371.727C611.827 373.463 608.659 376.774 604.423 377.605C599.498 378.572 594.807 376.105 590.383 370.562L596.636 365.571C600.177 370.008 602.157 369.897 602.883 369.755C604.299 369.477 605.761 368.214 607.908 366.069L613.563 371.727ZM590.383 370.562C589.167 369.038 586.783 365.166 583.641 359.822C580.418 354.339 576.214 346.986 571.274 338.22C561.392 320.684 548.53 297.434 534.606 272.065C506.755 221.323 474.631 162.059 453.547 122.966L460.588 119.169C481.666 158.251 513.78 217.497 541.619 268.215C555.539 293.577 568.384 316.795 578.244 334.292C583.175 343.043 587.351 350.347 590.537 355.767C593.805 361.325 595.86 364.6 596.636 365.571L590.383 370.562ZM108.763 151.441C113.667 144.634 121.993 133.672 131.085 122.831C140.125 112.052 150.124 101.148 158.345 94.6443L163.308 100.919C155.775 106.878 146.219 117.235 137.215 127.972C128.263 138.646 120.057 149.451 115.253 156.117L108.763 151.441ZM382.437 128.806C380.431 125.75 377.282 120.032 375.086 113.423C372.919 106.904 371.478 98.9162 373.624 91.6576L381.296 93.9256C379.836 98.8645 380.706 104.969 382.677 110.901C384.619 116.743 387.433 121.837 389.126 124.418L382.437 128.806ZM373.624 91.6576C376.458 82.0724 385.478 65.9399 393.826 53.4251L400.481 57.8644C392.187 70.299 383.763 85.5796 381.296 93.9256L373.624 91.6576ZM551.326 521.1C550.421 522.091 549.355 523.194 548.242 524.164C547.186 525.085 545.826 526.122 544.329 526.717L541.374 519.283C541.596 519.195 542.139 518.872 542.984 518.135C543.773 517.447 544.608 516.593 545.418 515.706L551.326 521.1ZM544.329 526.717C540.719 528.152 537.26 527.645 534.075 526.796C532.493 526.375 530.793 525.814 529.091 525.264C527.348 524.701 525.502 524.116 523.444 523.569L525.497 515.837C527.771 516.441 529.786 517.081 531.55 517.651C533.354 518.234 534.806 518.712 536.135 519.066C538.772 519.769 540.173 519.761 541.374 519.283L544.329 526.717ZM553.917 500.31C552.731 506.043 550.731 516.949 546.359 524.923L539.344 521.077C543.007 514.396 544.8 504.889 546.083 498.69L553.917 500.31ZM415.434 420.438L468.259 435.294L466.093 442.995L413.268 428.139L415.434 420.438ZM468.259 435.294L521.083 450.149L518.917 457.851L466.093 442.995L468.259 435.294ZM190.218 265.062C238.141 329.983 347.557 396.886 468.388 435.333L465.963 442.956C344.384 404.272 233.133 336.669 183.782 269.813L190.218 265.062ZM156.048 265.127C180.086 299.094 216.871 328.293 256.485 352.166L252.356 359.018C212.271 334.861 174.45 304.98 149.518 269.748L156.048 265.127ZM256.485 352.166C314.853 387.341 378.772 410.604 415.388 420.425L413.315 428.152C376.111 418.174 311.475 394.646 252.356 359.018L256.485 352.166ZM561.577 438.105C560.677 436.667 552.276 422.226 539.392 400.013L546.312 395.999C559.269 418.336 567.554 432.575 568.36 433.863L561.577 438.105ZM521.102 450.155C528.691 452.33 538.395 457.128 545.776 465.036L539.928 470.495C533.747 463.874 525.423 459.716 518.898 457.845L521.102 450.155ZM546.181 465.548C549.305 470.241 552.137 474.98 553.708 480.578C555.3 486.252 555.526 492.534 553.917 500.31L546.083 498.69C547.474 491.966 547.2 486.998 546.005 482.739C544.789 478.403 542.546 474.525 539.522 469.982L546.181 465.548ZM256.239 352.029C264.051 356.018 280.123 361.174 302.561 365.13C324.906 369.069 353.318 371.774 385.686 371.001L385.877 378.999C352.965 379.784 324.024 377.037 301.172 373.008C278.414 368.996 261.445 363.669 252.601 359.154L256.239 352.029ZM385.686 371.001C448.652 369.499 482.028 372.814 502.938 377.851C513.451 380.383 520.766 383.338 527.041 386.273C533.438 389.264 538.143 391.909 544.288 394.272L541.416 401.739C534.947 399.251 529.427 396.22 523.652 393.519C517.755 390.762 510.952 388.01 501.065 385.628C481.176 380.838 448.629 377.501 385.877 378.999L385.686 371.001ZM539.392 400.013C536.43 394.907 533.228 389.384 529.821 383.506L536.742 379.494C540.149 385.372 543.351 390.894 546.312 395.999L539.392 400.013ZM529.821 383.506C490.049 314.89 422.293 197.753 382.318 128.614L389.244 124.61C429.219 193.748 496.973 310.883 536.742 379.494L529.821 383.506ZM484.273 358.178C500.501 361.131 511.196 364.765 518.97 368.407C526.668 372.015 531.537 375.683 535.408 378.112L531.155 384.888C526.716 382.102 522.682 378.982 515.575 375.651C508.543 372.357 498.531 368.904 482.841 366.049L484.273 358.178ZM354.874 124.654L487.045 360.156L480.069 364.071L347.898 128.57L354.874 124.654ZM487.045 360.156L546.34 465.807L539.363 469.723L480.069 364.071L487.045 360.156ZM568.415 433.955C576.067 446.949 580.171 481.786 546.002 525.465L539.701 520.535C572.495 478.614 567.026 447.363 561.521 438.014L568.415 433.955ZM586.896 402.887C595.647 416.951 608.678 441.895 619.53 471.29C630.373 500.658 639.145 534.741 639.145 567H631.145C631.145 536.059 622.701 502.975 612.026 474.06C601.36 445.172 588.568 420.716 580.104 407.113L586.896 402.887ZM253.668 359.52C200.547 349.346 101.79 311.766 7.27524 232.566L12.4135 226.434C105.896 304.77 203.406 341.749 255.173 351.663L253.668 359.52ZM437.582 151.038C429.651 136.639 430.091 121.146 435.178 112.548C437.747 108.206 442.225 104.71 447.896 106.054C453.014 107.267 457.286 112.135 460.687 119.365L453.448 122.77C450.315 116.109 447.47 114.175 446.051 113.839C445.187 113.634 443.708 113.842 442.063 116.622C438.724 122.266 437.707 134.684 444.589 147.178L437.582 151.038ZM340.79 118.663C340.732 118.587 340.721 118.572 340.69 118.533L346.975 113.583C347.058 113.689 347.112 113.76 347.165 113.83L340.79 118.663ZM557.283 513.653C555.466 516.162 553.512 518.706 551.326 521.1L545.418 515.706C547.315 513.629 549.069 511.357 550.803 508.961L557.283 513.653Z" fill="#E76A1F" fill-opacity="0.65"/>
</svg>
