<svg width="800" height="800" viewBox="0 0 800 800" fill="none" xmlns="http://www.w3.org/2000/svg">
<g clip-path="url(#clip0_1088_314)">
<path d="M448.614 263.612C448.244 258.992 444.509 245.981 432.526 230.9C420.543 215.82 407.747 199.113 402.846 192.645M448.614 263.612C450.571 260.414 456.103 253.14 456.103 253.14C456.103 253.14 494.659 202.902 572.047 210.664C648.91 218.373 673.291 320.995 574.821 411.645C496.046 484.164 352.826 537.223 291.062 554.688C286.809 555.612 279.912 554.91 286.347 544.708C292.782 534.507 402.569 343.357 448.614 263.612ZM402.846 192.645C398.223 184.513 382.154 165.145 354.86 152.726C320.742 137.202 283.851 141.914 263.602 146.073C243.354 150.231 204.243 161.319 164.855 195.14C133.345 222.196 114.649 257.236 109.657 268.879C102.762 284.957 87.7574 319.497 91.6282 367.013C95.5124 414.694 112.43 444.079 143.219 492.592C157.829 515.611 177.649 546.4 194.832 572.984C198.901 579.279 202.822 585.339 206.491 591.003C213.45 601.749 219.503 611.074 223.937 617.893L248.623 651.991C251.675 655.132 261.327 660.473 275.529 656.703C289.731 652.933 409.781 615.953 468.03 597.934C502.61 588.231 585.417 555.52 640.005 502.294C694.594 449.069 705.858 402.22 707.963 380.32C709.535 363.964 712.622 325.985 687.992 290.779C678.284 277.306 654.928 247.244 639.173 234.781C667.096 255.665 707.797 318.833 647.217 404.437C586.638 490.041 447.597 544.673 385.649 561.289L266.376 597.379C262.801 598.488 255.017 601.815 252.478 606.25L246.131 617.339C245.575 618.263 243.409 620.055 239.193 619.834C234.976 619.612 230.964 618.078 229.484 617.339C228.159 616.602 226.043 614.185 228.189 610.408L428.365 258.068C432.249 250.952 432.582 227.907 402.846 192.645ZM402.846 192.645C411.168 205.119 419.89 220.826 422.54 229.792C426.146 241.989 417.917 257.975 414.219 263.612C355.877 364.518 238.36 567.662 235.032 572.984C231.703 578.307 229.083 575.202 228.189 572.984C224.275 565.037 216.059 548.257 214.506 544.708C212.953 541.16 215.153 536.761 216.448 535.006C275.992 430.126 381.654 244.817 384.539 239.494C365.234 224.635 348.757 245.685 342.932 258.068C300.771 336.242 214.456 495.087 206.491 505.066C198.525 515.046 193.148 509.779 189.264 505.898C171.861 488.505 134.177 441.307 115.759 380.32C94.6784 310.516 123.433 261.025 138.781 239.494C150.801 222.006 179.25 180.557 252.478 159.102" stroke="white" stroke-opacity="0.4" stroke-width="10" stroke-linecap="round" stroke-linejoin="round"/>
</g>
<defs>
<clipPath id="clip0_1088_314">
<rect width="800" height="800" fill="white"/>
</clipPath>
</defs>
</svg>
