<svg width="628" height="603" viewBox="0 0 628 603" fill="none" xmlns="http://www.w3.org/2000/svg">
<path d="M349 224.5C348.63 219.88 370.191 201.044 365 167.5C358.5 125.5 322 117 322 60C322 8.69386 362 5.5 362 5.5M349 224.5C350.957 221.302 370.103 193.14 370.103 193.14C370.103 193.14 408.659 142.902 486.047 150.664C562.91 158.373 587.291 260.995 488.821 351.645C410.046 424.164 266.826 477.223 205.062 494.688C200.809 495.612 193.912 494.91 200.347 484.708C206.782 474.507 302.955 304.246 349 224.5ZM316.846 132.645C312.223 124.513 296.154 105.145 268.86 92.7257C234.742 77.2016 197.851 81.9143 177.602 86.0725C157.354 90.2308 118.243 101.319 78.8553 135.14C47.345 162.196 28.6495 197.236 23.6566 208.879C16.7623 224.957 1.75742 259.497 5.62818 307.013C9.51237 354.694 26.4304 384.079 57.2194 432.592C71.8289 455.611 91.6492 486.4 108.832 512.984C112.901 519.279 116.822 525.339 120.491 531.003C127.45 541.749 133.503 551.074 137.937 557.893L162.623 591.991C164.932 594.368 171.021 598.004 180 598M316.846 132.645C325.168 145.119 333.89 160.826 336.54 169.792C340.146 181.989 331.917 197.975 328.219 203.612C269.877 304.518 141.265 532.057 137.937 537.379M316.846 132.645C346.582 167.907 346.249 190.952 342.365 198.068L162.623 534.5C155.082 547.167 148 577.6 180 598M189.529 596.703C203.731 592.933 323.781 555.953 382.03 537.934C416.61 528.231 499.417 495.52 554.005 442.294C608.594 389.069 619.858 342.22 621.963 320.32C623.535 303.964 626.622 265.985 601.992 230.779C592.284 217.306 568.928 187.244 553.173 174.781C581.096 195.665 621.797 258.833 561.217 344.437C500.638 430.041 361.597 484.673 299.649 501.289L205.062 527C185.061 534.469 153.953 558.866 189.529 596.703ZM189.529 596.703C186.074 597.621 182.887 597.999 180 598M137.937 537.379C130.598 515.779 128.355 494.688 149.032 459.5C195.355 380.667 290.33 218.014 299.649 198.068C308.968 178.122 303.532 164.99 299.649 157.5C276.793 99.6571 201.345 92.1878 166.478 99.1017M137.937 537.379C142.686 499.283 116.801 460.518 103.264 445.898C85 422.869 48.1769 381.307 29.7589 320.32C8.6784 250.516 37.4331 201.025 52.7814 179.494C64.8011 162.006 93.2503 120.557 166.478 99.1017M166.478 99.1017C137.271 107.661 78.8553 138.453 78.8553 193.14C78.8553 247.828 125.64 316.792 149.032 344.437C174.02 387.994 256.996 483.385 389 516.5" stroke="#A5A5A5" stroke-opacity="0.5" stroke-width="10" stroke-linecap="round" stroke-linejoin="round"/>
</svg>
