<svg width="1200" height="1200" viewBox="0 0 1200 1200" fill="none" xmlns="http://www.w3.org/2000/svg">
<g clip-path="url(#clip0_1088_309)">
<path d="M685.502 360C684.835 351.667 678.102 328.2 656.502 301C634.902 273.8 611.835 243.667 603.002 232M685.502 360C689.031 354.232 699.002 341.113 699.002 341.113C699.002 341.113 768.502 250.5 908.002 264.5C1046.55 278.405 1090.5 463.5 913.002 627C771.002 757.8 512.835 853.5 401.501 885C393.835 886.667 381.401 885.4 393.001 867C404.601 848.6 602.502 503.833 685.502 360ZM603.002 232C594.669 217.333 565.702 182.4 516.502 160C455.002 132 388.502 140.5 352.002 148C315.502 155.5 245.002 175.5 174.002 236.5C117.202 285.3 83.5014 348.5 74.5014 369.5C62.0736 398.5 35.0261 460.798 42.0034 546.5C49.005 632.5 79.5012 685.5 135.001 773C161.336 814.519 197.064 870.051 228.038 918C235.372 929.354 242.44 940.283 249.053 950.5C261.599 969.881 272.509 986.7 280.501 999L325.001 1060.5C330.501 1066.17 347.901 1075.8 373.501 1069C399.101 1062.2 615.502 995.5 720.502 963C782.835 945.5 932.102 886.5 1030.5 790.5C1128.9 694.5 1149.21 610 1153 570.5C1155.84 541 1161.4 472.5 1117 409C1099.5 384.699 1057.4 330.478 1029 308C1079.34 345.667 1152.7 459.6 1043.5 614C934.302 768.4 683.668 866.937 572.001 896.905L357.001 962C350.558 964 336.527 970 331.95 978L320.508 998C319.506 999.667 315.601 1002.9 308.001 1002.5C300.401 1002.1 293.168 999.333 290.501 998C288.112 996.672 284.299 992.312 288.167 985.5L649.001 350C656.002 337.167 656.602 295.6 603.002 232ZM603.002 232C618.001 254.5 633.724 282.829 638.501 299C645.001 321 630.168 349.833 623.501 360C518.335 542 306.501 908.4 300.501 918C294.501 927.6 289.778 922 288.167 918C281.112 903.667 266.301 873.4 263.501 867C260.701 860.6 264.668 852.667 267.001 849.5C374.335 660.333 564.801 326.1 570.001 316.5C535.201 289.7 505.501 327.667 495.001 350C419.001 491 263.412 777.5 249.053 795.5C234.695 813.5 225.001 804 218.001 797C186.631 765.629 118.701 680.5 85.5012 570.5C47.5017 444.598 99.3346 355.333 127.001 316.5C148.668 284.958 199.95 210.198 331.95 171.5" stroke="white" stroke-opacity="0.6" stroke-width="16" stroke-linecap="round" stroke-linejoin="round"/>
</g>
<defs>
<clipPath id="clip0_1088_309">
<rect width="1200" height="1200" fill="white"/>
</clipPath>
</defs>
</svg>
