<svg width="800" height="400" viewBox="0 0 800 400" fill="none" xmlns="http://www.w3.org/2000/svg">
<mask id="path-1-outside-1_1088_303" maskUnits="userSpaceOnUse" x="-2.12132" y="74.9977" width="251.023" height="251.023" fill="black">
<rect fill="white" x="-2.12132" y="74.9977" width="251.023" height="251.023"/>
<path d="M72.4454 84.5766C117.521 98.1035 110.47 100.787 111.382 249.857C85.0039 247 75.8545 240 73.4565 212.613C71.4587 189.783 72.9304 151.644 72.4454 84.5766Z"/>
<path d="M239.42 250.868C232.164 226.688 228.164 217.931 203.005 214.868C193.858 213.754 181.916 213.393 166.005 213.316C144.091 213.211 113.491 212.858 73.4565 212.613C75.0368 237.28 87.0063 248.5 111.384 249.857C134.213 251.855 172.353 250.383 239.42 250.868Z"/>
</mask>
<path d="M72.4454 84.5766C117.521 98.1035 110.47 100.787 111.382 249.857C85.0039 247 75.8545 240 73.4565 212.613C71.4587 189.783 72.9304 151.644 72.4454 84.5766Z" fill="#16100D"/>
<path d="M239.42 250.868C232.164 226.688 228.164 217.931 203.005 214.868C193.858 213.754 181.916 213.393 166.005 213.316C144.091 213.211 113.491 212.858 73.4565 212.613C75.0368 237.28 87.0063 248.5 111.384 249.857C134.213 251.855 172.353 250.383 239.42 250.868Z" fill="#16100D"/>
<path d="M111.382 249.857L112.382 249.851C112.384 250.136 112.264 250.408 112.052 250.599C111.841 250.79 111.558 250.882 111.274 250.851L111.382 249.857ZM72.4454 84.5766L71.4455 84.5839C71.4432 84.2665 71.5917 83.9669 71.8457 83.7765C72.0996 83.5861 72.4289 83.5276 72.7329 83.6188L72.4454 84.5766ZM239.42 250.868L240.378 250.58C240.469 250.884 240.41 251.214 240.22 251.468C240.03 251.722 239.73 251.87 239.413 251.868L239.42 250.868ZM111.384 249.857L111.44 248.858C111.45 248.859 111.461 248.86 111.471 248.861L111.384 249.857ZM203.005 214.868L202.884 215.86L203.005 214.868ZM166.005 213.316L166.009 212.316L166.005 213.316ZM110.382 249.863C110.154 212.537 110.424 184.516 110.252 163.053C110.08 141.616 109.466 126.971 107.492 116.574C105.527 106.219 102.237 100.214 96.7983 95.9309C91.2818 91.5861 83.4641 88.9274 72.158 85.5344L72.7329 83.6188C83.9644 86.9894 92.1685 89.7386 98.0358 94.3597C103.981 99.0423 107.437 105.561 109.457 116.201C111.469 126.801 112.081 141.622 112.252 163.037C112.423 184.426 112.154 212.642 112.382 249.851L110.382 249.863ZM73.4454 84.5694C73.9309 151.718 72.4594 189.748 74.4527 212.525L72.4603 212.7C70.458 189.819 71.9298 151.569 71.4455 84.5839L73.4454 84.5694ZM111.274 250.851C98.0647 249.421 88.8847 246.936 82.7418 241.162C76.5789 235.37 73.6647 226.455 72.4603 212.7L74.4527 212.525C75.6463 226.157 78.5057 234.436 84.1116 239.705C89.7375 244.993 98.3214 247.437 111.49 248.863L111.274 250.851ZM239.413 251.868C172.427 251.383 134.178 252.855 111.297 250.853L111.471 248.861C134.249 250.854 172.278 249.382 239.427 249.868L239.413 251.868ZM74.4544 212.549C75.2356 224.742 78.5731 233.436 84.568 239.259C90.5664 245.085 99.3804 248.187 111.44 248.858L111.328 250.855C99.0099 250.17 89.6503 246.983 83.1745 240.694C76.6951 234.4 73.2577 225.151 72.4585 212.677L74.4544 212.549ZM203.125 213.875C215.795 215.418 223.377 218.419 228.668 224.279C233.898 230.071 236.764 238.54 240.378 250.58L238.462 251.155C234.819 239.016 232.058 231.017 227.184 225.619C222.372 220.29 215.374 217.381 202.884 215.86L203.125 213.875ZM73.4626 211.613C113.511 211.858 144.09 212.211 166.009 212.316L166 214.316C144.091 214.211 113.471 213.858 73.4504 213.613L73.4626 211.613ZM166.009 212.316C181.921 212.393 193.916 212.754 203.125 213.875L202.884 215.86C193.801 214.754 181.911 214.393 166 214.316L166.009 212.316Z" fill="#16100D" mask="url(#path-1-outside-1_1088_303)"/>
<path d="M405.219 194.744C399.993 189.485 394.352 183.807 388.241 177.688C381.944 183.992 376.143 189.83 370.78 195.227C363.925 202.127 357.784 208.307 352.238 213.82C337.078 228.888 326.353 238.978 317.64 245.099C308.91 251.233 302.138 253.426 294.897 252.62C287.708 251.82 280.12 248.063 269.764 242.504C269.623 242.429 269.528 242.291 269.505 242.134C269.483 241.977 269.536 241.818 269.65 241.707C287.848 223.821 302.888 208.685 315.507 195.985C336.03 175.331 350.151 161.12 361.05 151.999C368.309 145.019 375.26 140.925 382.249 139.675C384.517 139.09 386.771 138.79 389.021 138.781C397.625 138.745 406.056 142.965 414.95 151.517C425.849 160.637 439.97 174.849 460.493 195.503C473.112 208.203 488.152 223.339 506.35 241.224C506.464 241.336 506.517 241.494 506.495 241.652C506.472 241.809 506.377 241.946 506.236 242.021C495.88 247.581 488.292 251.338 481.103 252.138C473.862 252.944 467.09 250.75 458.36 244.617C449.647 238.495 438.922 228.406 423.762 213.337C418.216 207.824 412.075 201.644 405.219 194.744Z" fill="#16100D" stroke="#16100D" stroke-linecap="round" stroke-linejoin="round"/>
<path d="M585.781 196.817C591.007 202.076 596.648 207.754 602.759 213.873C609.056 207.569 614.857 201.731 620.22 196.334C627.075 189.434 633.216 183.254 638.762 177.741C653.922 162.673 664.647 152.583 673.36 146.462C682.09 140.328 688.862 138.135 696.103 138.941C703.292 139.741 710.88 143.498 721.236 149.057C721.377 149.132 721.472 149.27 721.495 149.427C721.517 149.584 721.464 149.743 721.35 149.854C703.152 167.74 688.112 182.876 675.493 195.576C654.97 216.23 640.849 230.441 629.95 239.562C622.691 246.542 615.74 250.636 608.751 251.886C606.483 252.471 604.229 252.771 601.979 252.78C593.375 252.816 584.944 248.596 576.05 240.044C565.151 230.924 551.03 216.712 530.507 196.058C517.888 183.358 502.848 168.222 484.65 150.337C484.536 150.225 484.483 150.067 484.505 149.909C484.528 149.752 484.623 149.615 484.764 149.54C495.12 143.98 502.708 140.224 509.897 139.423C517.138 138.617 523.91 140.811 532.64 146.944C541.353 153.066 552.078 163.155 567.238 178.224C572.784 183.737 578.925 189.917 585.781 196.817Z" fill="#16100D" stroke="#16100D" stroke-linecap="round" stroke-linejoin="round"/>
</svg>
