<svg width="267" height="219" viewBox="0 0 267 219" fill="none" xmlns="http://www.w3.org/2000/svg">
<path fill-rule="evenodd" clip-rule="evenodd" d="M1.5 85C1.49425 38.5 24.7214 0.998698 80.5034 0.999023C136.285 0.999349 150.436 58.5 150.436 85C150.436 125 136.85 217.499 80.5034 217.499C19 217.499 1.50575 131.5 1.5 85ZM80.5034 50.6212C55.0068 50.6212 57.5 80.7043 57.5 105C57.5 135 64 172.5 80.5034 172.5C97.0068 172.5 102 120.499 102 105C102 89.501 106 50.6212 80.5034 50.6212Z" fill="#EB5080"/>
<path d="M153.571 24.5394C154.211 12.2098 165.758 3.39838 177.819 6.0372L193.122 9.38529C203.021 11.5513 209.737 20.7792 208.753 30.8651L201.334 106.906C200.875 111.609 204.571 115.683 209.296 115.683H222.568C226.758 115.683 230.238 112.45 230.546 108.272L233.896 62.928C234.432 55.6734 239.785 49.6887 246.935 48.3498V48.3498C257.305 46.4079 266.692 54.8383 265.871 65.3567L255.553 197.584C254.735 208.06 244.779 215.347 234.546 212.959V212.959C226.207 211.012 220.579 203.215 221.359 194.687L224.976 155.139C225.405 150.452 221.716 146.41 217.01 146.41H205.18C201.086 146.41 197.653 149.501 197.224 153.573L192.842 195.23C191.573 207.291 180.38 215.773 168.426 213.734L162.385 212.703C151.888 210.913 144.393 201.549 144.945 190.915L153.571 24.5394Z" fill="#EB5080"/>
<path fill-rule="evenodd" clip-rule="evenodd" d="M1.5 85C1.49425 38.5 24.7214 0.998698 80.5034 0.999023C136.285 0.999349 150.436 58.5 150.436 85C150.436 125 136.85 217.499 80.5034 217.499C19 217.499 1.50575 131.5 1.5 85ZM80.5034 50.6212C55.0068 50.6212 57.5 80.7043 57.5 105C57.5 135 64 172.5 80.5034 172.5C97.0068 172.5 102 120.499 102 105C102 89.501 106 50.6212 80.5034 50.6212Z" stroke="white" stroke-width="2"/>
<path d="M153.571 24.5394C154.211 12.2098 165.758 3.39838 177.819 6.0372L193.122 9.38529C203.021 11.5513 209.737 20.7792 208.753 30.8651L201.334 106.906C200.875 111.609 204.571 115.683 209.296 115.683H222.568C226.758 115.683 230.238 112.45 230.546 108.272L233.896 62.928C234.432 55.6734 239.785 49.6887 246.935 48.3498V48.3498C257.305 46.4079 266.692 54.8383 265.871 65.3567L255.553 197.584C254.735 208.06 244.779 215.347 234.546 212.959V212.959C226.207 211.012 220.579 203.215 221.359 194.687L224.976 155.139C225.405 150.452 221.716 146.41 217.01 146.41H205.18C201.086 146.41 197.653 149.501 197.224 153.573L192.842 195.23C191.573 207.291 180.38 215.773 168.426 213.734L162.385 212.703C151.888 210.913 144.393 201.549 144.945 190.915L153.571 24.5394Z" stroke="white" stroke-width="2"/>
</svg>
