<svg width="185" height="145" viewBox="0 0 185 145" fill="none" xmlns="http://www.w3.org/2000/svg">
<path fill-rule="evenodd" clip-rule="evenodd" d="M1.99904 37C4.45169 23.399 12.2155 0.341797 43.4541 0.341797C74.6928 0.341797 78 29 78 41C78 69.8988 78.5 104.5 76.5 115.5C74.2032 128.132 65 145 43.4542 145C12.5965 145 6.54846 129.726 3.50401 119.421C0.459377 109.114 -1.15672 54.5 1.99904 37ZM43.4541 27.4918C34.6926 27.4918 32.2104 36.759 32.0035 44C31.5035 61.5 31.5035 78.5 31.5035 78.5C31.5035 78.5 31.5035 95.5 32.0035 105.5C32.1972 109.374 33.5486 119.897 43.4541 119.897C53.3596 119.897 54.5035 107.464 54.5035 105.5C54.5035 92.5 54.5035 92.3214 54.5035 78.5C54.5035 64.5039 54.7856 64.3828 54.5035 44C54.4051 36.8941 52.2157 27.4918 43.4541 27.4918Z" fill="#EB5080"/>
<path d="M80.6866 26.6051C80.6866 24.9482 82.0298 23.6051 83.6866 23.6051H104.354C106.011 23.6051 107.354 24.9482 107.354 26.6051V56.9816C107.354 58.6385 108.697 59.9816 110.354 59.9816H124.83C126.487 59.9816 127.83 58.6385 127.83 56.9816V20.1132C127.83 18.4564 129.174 17.1133 130.83 17.1133H151.498C153.154 17.1133 154.498 18.4564 154.498 20.1133V127C154.498 128.657 153.154 130 151.498 130H130.83C129.174 130 127.83 128.657 127.83 127V86.3211C127.83 84.6642 126.487 83.3211 124.83 83.3211H110.354C108.697 83.3211 107.354 84.6642 107.354 86.3211V123.113C107.354 124.77 106.011 126.113 104.354 126.113H83.6866C82.0298 126.113 80.6866 124.77 80.6866 123.113V26.6051Z" fill="#EB5080"/>
<path d="M157.575 9.57573C157.533 7.88976 158.888 6.5 160.574 6.5H181.196C182.966 6.5 184.351 8.02458 184.182 9.78656L175.258 102.787C175.11 104.325 173.818 105.5 172.272 105.5H162.923C161.295 105.5 159.965 104.203 159.924 102.576L157.575 9.57573Z" fill="white"/>
<path d="M159.707 117.176C159.872 115.653 161.158 114.5 162.689 114.5H171.998C173.654 114.5 174.998 115.843 174.998 117.5V134.5C174.998 136.157 173.654 137.5 171.998 137.5H160.841C159.056 137.5 157.666 135.951 157.859 134.176L159.707 117.176Z" fill="white"/>
<path fill-rule="evenodd" clip-rule="evenodd" d="M1.99904 37C4.45169 23.399 12.2155 0.341797 43.4541 0.341797C74.6928 0.341797 78 29 78 41C78 69.8988 78.5 104.5 76.5 115.5C74.2032 128.132 65 145 43.4542 145C12.5965 145 6.54846 129.726 3.50401 119.421C0.459377 109.114 -1.15672 54.5 1.99904 37ZM43.4541 27.4918C34.6926 27.4918 32.2104 36.759 32.0035 44C31.5035 61.5 31.5035 78.5 31.5035 78.5C31.5035 78.5 31.5035 95.5 32.0035 105.5C32.1972 109.374 33.5486 119.897 43.4541 119.897C53.3596 119.897 54.5035 107.464 54.5035 105.5C54.5035 92.5 54.5035 92.3214 54.5035 78.5C54.5035 64.5039 54.7856 64.3828 54.5035 44C54.4051 36.8941 52.2157 27.4918 43.4541 27.4918Z" stroke="white"/>
<path d="M80.6866 26.6051C80.6866 24.9482 82.0298 23.6051 83.6866 23.6051H104.354C106.011 23.6051 107.354 24.9482 107.354 26.6051V56.9816C107.354 58.6385 108.697 59.9816 110.354 59.9816H124.83C126.487 59.9816 127.83 58.6385 127.83 56.9816V20.1132C127.83 18.4564 129.174 17.1133 130.83 17.1133H151.498C153.154 17.1133 154.498 18.4564 154.498 20.1133V127C154.498 128.657 153.154 130 151.498 130H130.83C129.174 130 127.83 128.657 127.83 127V86.3211C127.83 84.6642 126.487 83.3211 124.83 83.3211H110.354C108.697 83.3211 107.354 84.6642 107.354 86.3211V123.113C107.354 124.77 106.011 126.113 104.354 126.113H83.6866C82.0298 126.113 80.6866 124.77 80.6866 123.113V26.6051Z" stroke="white"/>
<path d="M157.575 9.57573C157.533 7.88976 158.888 6.5 160.574 6.5H181.196C182.966 6.5 184.351 8.02458 184.182 9.78656L175.258 102.787C175.11 104.325 173.818 105.5 172.272 105.5H162.923C161.295 105.5 159.965 104.203 159.924 102.576L157.575 9.57573Z" stroke="white"/>
<path d="M159.707 117.176C159.872 115.653 161.158 114.5 162.689 114.5H171.998C173.654 114.5 174.998 115.843 174.998 117.5V134.5C174.998 136.157 173.654 137.5 171.998 137.5H160.841C159.056 137.5 157.666 135.951 157.859 134.176L159.707 117.176Z" stroke="white"/>
</svg>
