<svg width="738" height="450" viewBox="0 0 738 450" fill="none" xmlns="http://www.w3.org/2000/svg">
<g filter="url(#filter0_d_1355_250)">
<path fill-rule="evenodd" clip-rule="evenodd" d="M9.21006 123.606C13.1262 97.4922 35.6655 66.1554 92.7542 66.1554C149.843 66.1554 168.756 105.617 171.076 123.606C175.718 147.109 182.389 243.731 171.076 284.642C165.855 302.052 149.147 336 92.7542 336C36.3617 336 17.9686 302.688 12.6911 283.772C2.24801 246.342 1.37777 175.834 9.21006 123.606ZM92.7542 115.772C76.7426 115.772 68.235 129.282 67.5 142.5C65.7762 173.5 65.7762 202.819 65.7762 202.819C65.7762 202.819 65.7773 249.824 69.2572 268.104C70.5829 275.067 74.6519 284.642 92.7542 284.642C110.857 284.642 115.105 271.682 115.381 268.104C117.121 245.471 118.155 228.756 118.5 203.5C118.847 178.075 118.5 179.5 117 142.5C116.474 129.523 108.766 115.772 92.7542 115.772Z" fill="#CDCDCD"/>
<path d="M193.702 123.124C193.702 121.467 195.045 120.124 196.702 120.124H239.436C241.093 120.124 242.436 121.467 242.436 123.124V195.466C242.436 197.123 243.779 198.466 245.436 198.466H276.857C278.514 198.466 279.857 197.123 279.857 195.466V123.124C279.857 121.467 281.2 120.124 282.857 120.124H325.591C327.248 120.124 328.591 121.467 328.591 123.124V323.425C328.591 325.082 327.248 326.425 325.591 326.425H282.857C281.2 326.425 279.857 325.082 279.857 323.425V244.119C279.857 242.462 278.514 241.119 276.857 241.119H245.436C243.779 241.119 242.436 242.462 242.436 244.119V323.425C242.436 325.082 241.093 326.425 239.436 326.425H196.702C195.045 326.425 193.702 325.082 193.702 323.425V123.124Z" fill="#CDCDCD"/>
<path d="M342.515 3.00001C342.515 1.34315 343.858 0 345.515 0H420.17C421.577 0 422.795 0.977593 423.099 2.35112L453.472 139.451C454.172 142.612 458.692 142.575 459.34 139.403L487.357 2.39895C487.643 1.00267 488.871 0 490.296 0H564.911C566.568 0 567.911 1.34315 567.911 3V246.824C567.911 248.481 566.568 249.824 564.911 249.824H517.826C516.169 249.824 514.826 248.481 514.826 246.824V100.393C514.826 96.7972 509.651 96.2456 508.893 99.7611L477.045 247.456C476.747 248.838 475.526 249.824 474.112 249.824H438.868C437.481 249.824 436.274 248.873 435.95 247.524L399.777 96.8891C398.947 93.433 393.86 94.0353 393.86 97.5897V246.824C393.86 248.481 392.517 249.824 390.86 249.824H345.515C343.858 249.824 342.515 248.481 342.515 246.824V3.00001Z" fill="#CDCDCD"/>
<path d="M588.827 47.6952C587.988 45.7168 589.44 43.5233 591.589 43.5233H636.22C637.521 43.5233 638.673 44.3615 639.074 45.5989L655.841 97.3692C656.708 100.047 660.453 100.164 661.485 97.5452L682.036 45.4229C682.488 44.2766 683.595 43.5233 684.827 43.5233H730.438C732.595 43.5233 734.047 45.7315 733.192 47.712L683.03 163.949C682.868 164.324 682.785 164.729 682.785 165.138V246.824C682.785 248.481 681.442 249.824 679.785 249.824H641.402C639.745 249.824 638.402 248.481 638.402 246.824V165.128C638.402 164.726 638.321 164.327 638.163 163.956L588.827 47.6952Z" fill="#CDCDCD"/>
<path d="M426.93 293.801C426.93 288.494 430.718 283.944 435.937 282.983L525.151 266.545C525.808 266.424 526.475 266.363 527.144 266.363H715.297C721.373 266.363 726.297 271.288 726.297 277.363V315.425C726.297 321.5 721.373 326.425 715.297 326.425H526.139L436.683 316.221C431.126 315.587 426.93 310.885 426.93 305.292V293.801Z" fill="#CDCDCD"/>
<path d="M342.515 274.585C342.515 272.929 343.858 271.585 345.515 271.585H396.952C398.609 271.585 399.952 272.929 399.952 274.585V323.425C399.952 325.082 398.609 326.425 396.952 326.425H345.515C343.858 326.425 342.515 325.082 342.515 323.425V274.585Z" fill="#CDCDCD"/>
<path fill-rule="evenodd" clip-rule="evenodd" d="M9.21006 123.606C13.1262 97.4922 35.6655 66.1554 92.7542 66.1554C149.843 66.1554 168.756 105.617 171.076 123.606C175.718 147.109 182.389 243.731 171.076 284.642C165.855 302.052 149.147 336 92.7542 336C36.3617 336 17.9686 302.688 12.6911 283.772C2.24801 246.342 1.37777 175.834 9.21006 123.606ZM92.7542 115.772C76.7426 115.772 68.235 129.282 67.5 142.5C65.7762 173.5 65.7762 202.819 65.7762 202.819C65.7762 202.819 65.7773 249.824 69.2572 268.104C70.5829 275.067 74.6519 284.642 92.7542 284.642C110.857 284.642 115.105 271.682 115.381 268.104C117.121 245.471 118.155 228.756 118.5 203.5C118.847 178.075 118.5 179.5 117 142.5C116.474 129.523 108.766 115.772 92.7542 115.772Z" stroke="white"/>
<path d="M193.702 123.124C193.702 121.467 195.045 120.124 196.702 120.124H239.436C241.093 120.124 242.436 121.467 242.436 123.124V195.466C242.436 197.123 243.779 198.466 245.436 198.466H276.857C278.514 198.466 279.857 197.123 279.857 195.466V123.124C279.857 121.467 281.2 120.124 282.857 120.124H325.591C327.248 120.124 328.591 121.467 328.591 123.124V323.425C328.591 325.082 327.248 326.425 325.591 326.425H282.857C281.2 326.425 279.857 325.082 279.857 323.425V244.119C279.857 242.462 278.514 241.119 276.857 241.119H245.436C243.779 241.119 242.436 242.462 242.436 244.119V323.425C242.436 325.082 241.093 326.425 239.436 326.425H196.702C195.045 326.425 193.702 325.082 193.702 323.425V123.124Z" stroke="white"/>
<path d="M342.515 3.00001C342.515 1.34315 343.858 0 345.515 0H420.17C421.577 0 422.795 0.977593 423.099 2.35112L453.472 139.451C454.172 142.612 458.692 142.575 459.34 139.403L487.357 2.39895C487.643 1.00267 488.871 0 490.296 0H564.911C566.568 0 567.911 1.34315 567.911 3V246.824C567.911 248.481 566.568 249.824 564.911 249.824H517.826C516.169 249.824 514.826 248.481 514.826 246.824V100.393C514.826 96.7972 509.651 96.2456 508.893 99.7611L477.045 247.456C476.747 248.838 475.526 249.824 474.112 249.824H438.868C437.481 249.824 436.274 248.873 435.95 247.524L399.777 96.8891C398.947 93.433 393.86 94.0353 393.86 97.5897V246.824C393.86 248.481 392.517 249.824 390.86 249.824H345.515C343.858 249.824 342.515 248.481 342.515 246.824V3.00001Z" stroke="white"/>
<path d="M588.827 47.6952C587.988 45.7168 589.44 43.5233 591.589 43.5233H636.22C637.521 43.5233 638.673 44.3615 639.074 45.5989L655.841 97.3692C656.708 100.047 660.453 100.164 661.485 97.5452L682.036 45.4229C682.488 44.2766 683.595 43.5233 684.827 43.5233H730.438C732.595 43.5233 734.047 45.7315 733.192 47.712L683.03 163.949C682.868 164.324 682.785 164.729 682.785 165.138V246.824C682.785 248.481 681.442 249.824 679.785 249.824H641.402C639.745 249.824 638.402 248.481 638.402 246.824V165.128C638.402 164.726 638.321 164.327 638.163 163.956L588.827 47.6952Z" stroke="white"/>
<path d="M426.93 293.801C426.93 288.494 430.718 283.944 435.937 282.983L525.151 266.545C525.808 266.424 526.475 266.363 527.144 266.363H715.297C721.373 266.363 726.297 271.288 726.297 277.363V315.425C726.297 321.5 721.373 326.425 715.297 326.425H526.139L436.683 316.221C431.126 315.587 426.93 310.885 426.93 305.292V293.801Z" stroke="white"/>
<path d="M342.515 274.585C342.515 272.929 343.858 271.585 345.515 271.585H396.952C398.609 271.585 399.952 272.929 399.952 274.585V323.425C399.952 325.082 398.609 326.425 396.952 326.425H345.515C343.858 326.425 342.515 325.082 342.515 323.425V274.585Z" stroke="white"/>
</g>
<g filter="url(#filter1_d_1355_250)">
<path d="M292.177 305.422C311.677 299.089 352.565 276.597 368.677 240.922C382.678 209.922 364.562 199.615 353.678 197.922C331.178 194.422 287.277 204.822 257.678 252.422C250.678 262.755 241.106 287.422 261.677 314.422C285.677 345.922 297.178 357.422 296.177 382.922C295.04 411.903 265.344 430.255 249.677 435.922C224.678 444.964 168.679 445.922 156.679 412.922C143.86 377.671 167.677 360.922 180.177 354.922C190.594 349.922 212.178 340.922 229.678 356.422C189.278 356.422 172.178 373.422 168.678 391.922C166.502 403.422 167.214 436.198 221.178 428.922C265.678 422.922 281.678 386.422 272.178 364.922C269.887 359.736 265.279 351.322 251.678 336.922C242.233 326.922 233.549 317.922 228.678 304.422C211.178 255.922 260.57 219.609 288.177 203.922C315.785 188.236 366.078 181.922 379.678 199.922C393.278 217.922 380.077 250.922 367.678 266.422C357.679 278.922 341.678 295.479 312.178 306.422C300.682 310.687 286.011 309.255 292.177 305.422Z" fill="black" fill-opacity="0.76" shape-rendering="crispEdges"/>
<path d="M398.678 276.422C400.678 276.422 403.678 275.922 401.178 280.922C397.772 287.734 370.678 313.922 353.678 347.922C350.345 354.922 343.463 365.38 349.678 357.922C354.678 351.922 364.678 342.922 375.678 337.922C385.678 333.922 402.92 331.016 406.678 340.922C412.178 355.422 399.678 369.922 391.178 377.422C382.27 385.282 369.678 389.589 364.178 390.422C363.178 395.922 363.678 402.922 364.178 407.922C364.874 414.887 369.178 424.922 381.178 417.422C393.178 409.922 416.178 387.422 451.678 343.422C454.678 339.422 458.178 335.422 472.178 337.922C475.658 338.544 478.148 340.923 474.178 345.422C466.678 353.922 431.132 401.422 433.678 415.422C435.278 424.222 457.678 402.422 472.178 385.422C486.678 368.422 499.678 350.922 505.678 340.922C512.469 329.603 520.511 341.589 523.178 347.922C522.345 350.422 519.006 355.042 516.678 358.922C513.678 363.922 528.678 343.422 544.678 341.922C558.626 340.615 562.678 345.422 564.178 347.422C567.178 351.422 569.698 360.248 556.178 377.422C537.678 400.922 527.678 417.422 529.678 421.922C531.678 426.422 564.178 392.422 588.178 365.422C591.011 361.589 596.725 355.889 600.678 361.422C603.178 364.922 601.678 366.922 600.678 366.922C599.56 366.922 598.678 366.422 597.678 367.422C560.178 408.922 544.678 422.922 536.178 428.422C527.678 433.922 510.178 435.922 507.678 424.922C504.269 409.922 521.345 387.422 531.678 376.422C543.011 364.589 555.178 344.071 531.678 356.922C499.678 374.422 486.345 406.922 481.178 424.922C480.747 426.422 477.178 427.922 472.178 428.422C466.089 429.031 460.178 428.422 459.178 426.922C458.178 425.422 483.178 381.922 483.178 381.922C466.511 402.422 439.678 440.422 418.678 430.922C407.262 425.758 415.178 400.089 421.178 390.422L395.178 417.422C385.678 427.922 367.215 438.787 356.678 424.922C347.178 412.422 343.178 395.922 342.678 390.422C342.271 385.941 345.178 383.57 347.178 383.422C368.778 381.822 383.178 362.422 385.678 353.422C387.511 348.755 385.778 343.722 364.178 354.922C337.178 368.922 319.178 421.422 317.178 424.922C315.578 427.722 304.845 427.755 299.678 427.422C320.478 360.222 360.011 304.755 377.178 285.422C377.178 285.422 380.48 280.679 384.678 278.922C388.876 277.165 398.678 276.422 398.678 276.422Z" fill="black" fill-opacity="0.76" shape-rendering="crispEdges"/>
<path d="M474.178 301.422C474.178 297.422 481.778 287.522 494.178 289.922C509.678 292.922 498.178 304.978 491.515 306.458C486.93 307.822 474.178 310.316 474.178 301.422Z" fill="black" fill-opacity="0.76" shape-rendering="crispEdges"/>
</g>
<defs>
<filter id="filter0_d_1355_250" x="0" y="0" width="737.441" height="344" filterUnits="userSpaceOnUse" color-interpolation-filters="sRGB">
<feFlood flood-opacity="0" result="BackgroundImageFix"/>
<feColorMatrix in="SourceAlpha" type="matrix" values="0 0 0 0 0 0 0 0 0 0 0 0 0 0 0 0 0 0 127 0" result="hardAlpha"/>
<feOffset dy="4"/>
<feGaussianBlur stdDeviation="2"/>
<feComposite in2="hardAlpha" operator="out"/>
<feColorMatrix type="matrix" values="0 0 0 0 0 0 0 0 0 0 0 0 0 0 0 0 0 0 0.25 0"/>
<feBlend mode="normal" in2="BackgroundImageFix" result="effect1_dropShadow_1355_250"/>
<feBlend mode="normal" in="SourceGraphic" in2="effect1_dropShadow_1355_250" result="shape"/>
</filter>
<filter id="filter1_d_1355_250" x="149" y="189" width="457.047" height="260.338" filterUnits="userSpaceOnUse" color-interpolation-filters="sRGB">
<feFlood flood-opacity="0" result="BackgroundImageFix"/>
<feColorMatrix in="SourceAlpha" type="matrix" values="0 0 0 0 0 0 0 0 0 0 0 0 0 0 0 0 0 0 127 0" result="hardAlpha"/>
<feOffset dy="4"/>
<feGaussianBlur stdDeviation="2"/>
<feComposite in2="hardAlpha" operator="out"/>
<feColorMatrix type="matrix" values="0 0 0 0 0 0 0 0 0 0 0 0 0 0 0 0 0 0 0.25 0"/>
<feBlend mode="normal" in2="BackgroundImageFix" result="effect1_dropShadow_1355_250"/>
<feBlend mode="normal" in="SourceGraphic" in2="effect1_dropShadow_1355_250" result="shape"/>
</filter>
</defs>
</svg>
