<svg width="400" height="272" viewBox="0 0 400 272" fill="none" xmlns="http://www.w3.org/2000/svg">
<path fill-rule="evenodd" clip-rule="evenodd" d="M2.85092 55.2526C4.99382 40.9631 17.3272 23.8157 48.5659 23.8157C79.8046 23.8157 90.1536 45.4087 91.4234 55.2526C93.9632 68.1131 97.6139 120.984 91.4234 143.371C88.5661 152.897 79.4236 171.474 48.5659 171.474C17.7082 171.474 7.64357 153.245 4.75571 142.895C-0.95868 122.413 -1.43487 83.8315 2.85092 55.2526ZM48.5659 50.9658C39.8044 50.9658 35.1491 58.3584 34.7469 65.5912C33.8037 82.5542 33.8037 98.5973 33.8037 98.5973C33.8037 98.5973 33.8043 124.318 35.7085 134.321C36.4339 138.131 38.6604 143.371 48.5659 143.371C58.4714 143.371 60.7964 136.279 60.947 134.321C61.8994 121.937 62.4652 112.79 62.6539 98.9701C62.8438 85.0577 62.6539 85.8374 61.8331 65.5912C61.5452 58.4904 57.3274 50.9658 48.5659 50.9658Z" fill="#D946EF" fill-opacity="0.9"/>
<path d="M103.804 52.1133C103.804 50.4564 105.147 49.1133 106.804 49.1133H127.471C129.128 49.1133 130.471 50.4564 130.471 52.1133V88.9816C130.471 90.6385 131.814 91.9816 133.471 91.9816H147.948C149.605 91.9816 150.948 90.6385 150.948 88.9816V52.1132C150.948 50.4564 152.291 49.1133 153.948 49.1133H174.615C176.272 49.1133 177.615 50.4564 177.615 52.1133V159C177.615 160.657 176.272 162 174.615 162H153.948C152.291 162 150.948 160.657 150.948 159V118.321C150.948 116.664 149.605 115.321 147.948 115.321H133.471C131.814 115.321 130.471 116.664 130.471 118.321V159C130.471 160.657 129.128 162 127.471 162H106.804C105.147 162 103.804 160.657 103.804 159V52.1133Z" fill="#D946EF" fill-opacity="0.9"/>
<path d="M185.234 2.99999C185.234 1.34314 186.577 0 188.234 0H226.636C228.043 0 229.261 0.977593 229.565 2.35112L244.57 70.0805C245.27 73.2416 249.789 73.2047 250.438 70.0326L264.269 2.39895C264.554 1.00267 265.783 0 267.208 0H305.57C307.227 0 308.57 1.34315 308.57 3V133.702C308.57 135.359 307.227 136.702 305.57 136.702H282.522C280.865 136.702 279.522 135.359 279.522 133.702V67.6789C279.522 64.0826 274.347 63.531 273.589 67.0465L259.079 134.335C258.781 135.716 257.56 136.702 256.147 136.702H239.028C237.641 136.702 236.435 135.752 236.111 134.403L219.247 64.1746C218.417 60.7185 213.33 61.3207 213.33 64.8751V133.702C213.33 135.359 211.987 136.702 210.33 136.702H188.234C186.577 136.702 185.234 135.359 185.234 133.702V2.99999Z" fill="#D946EF" fill-opacity="0.9"/>
<path d="M320.816 27.9877C319.977 26.0093 321.429 23.8157 323.578 23.8157H344.96C346.261 23.8157 347.413 24.654 347.814 25.8914L355.517 49.6769C356.385 52.3548 360.13 52.4716 361.162 49.8529L370.679 25.7154C371.131 24.5691 372.238 23.8157 373.47 23.8157H395.438C397.595 23.8157 399.047 26.024 398.192 28.0044L371.674 89.4546C371.512 89.83 371.428 90.2345 371.428 90.6433V133.702C371.428 135.359 370.085 136.702 368.428 136.702H350.142C348.485 136.702 347.142 135.359 347.142 133.702V90.6338C347.142 90.2311 347.061 89.8326 346.903 89.4619L320.816 27.9877Z" fill="#D946EF" fill-opacity="0.9"/>
<path fill-rule="evenodd" clip-rule="evenodd" d="M2.85092 55.2526C4.99382 40.9631 17.3272 23.8157 48.5659 23.8157C79.8046 23.8157 90.1536 45.4087 91.4234 55.2526C93.9632 68.1131 97.6139 120.984 91.4234 143.371C88.5661 152.897 79.4236 171.474 48.5659 171.474C17.7082 171.474 7.64357 153.245 4.75571 142.895C-0.95868 122.413 -1.43487 83.8315 2.85092 55.2526ZM48.5659 50.9658C39.8044 50.9658 35.1491 58.3584 34.7469 65.5912C33.8037 82.5542 33.8037 98.5973 33.8037 98.5973C33.8037 98.5973 33.8043 124.318 35.7085 134.321C36.4339 138.131 38.6604 143.371 48.5659 143.371C58.4714 143.371 60.7964 136.279 60.947 134.321C61.8994 121.937 62.4652 112.79 62.6539 98.9701C62.8438 85.0577 62.6539 85.8374 61.8331 65.5912C61.5452 58.4904 57.3274 50.9658 48.5659 50.9658Z" stroke="white"/>
<path d="M103.804 52.1133C103.804 50.4564 105.147 49.1133 106.804 49.1133H127.471C129.128 49.1133 130.471 50.4564 130.471 52.1133V88.9816C130.471 90.6385 131.814 91.9816 133.471 91.9816H147.948C149.605 91.9816 150.948 90.6385 150.948 88.9816V52.1132C150.948 50.4564 152.291 49.1133 153.948 49.1133H174.615C176.272 49.1133 177.615 50.4564 177.615 52.1133V159C177.615 160.657 176.272 162 174.615 162H153.948C152.291 162 150.948 160.657 150.948 159V118.321C150.948 116.664 149.605 115.321 147.948 115.321H133.471C131.814 115.321 130.471 116.664 130.471 118.321V159C130.471 160.657 129.128 162 127.471 162H106.804C105.147 162 103.804 160.657 103.804 159V52.1133Z" stroke="white"/>
<path d="M185.234 2.99999C185.234 1.34314 186.577 0 188.234 0H226.636C228.043 0 229.261 0.977593 229.565 2.35112L244.57 70.0805C245.27 73.2416 249.789 73.2047 250.438 70.0326L264.269 2.39895C264.554 1.00267 265.783 0 267.208 0H305.57C307.227 0 308.57 1.34315 308.57 3V133.702C308.57 135.359 307.227 136.702 305.57 136.702H282.522C280.865 136.702 279.522 135.359 279.522 133.702V67.6789C279.522 64.0826 274.347 63.531 273.589 67.0465L259.079 134.335C258.781 135.716 257.56 136.702 256.147 136.702H239.028C237.641 136.702 236.435 135.752 236.111 134.403L219.247 64.1746C218.417 60.7185 213.33 61.3207 213.33 64.8751V133.702C213.33 135.359 211.987 136.702 210.33 136.702H188.234C186.577 136.702 185.234 135.359 185.234 133.702V2.99999Z" stroke="white"/>
<path d="M320.816 27.9877C319.977 26.0093 321.429 23.8157 323.578 23.8157H344.96C346.261 23.8157 347.413 24.654 347.814 25.8914L355.517 49.6769C356.385 52.3548 360.13 52.4716 361.162 49.8529L370.679 25.7154C371.131 24.5691 372.238 23.8157 373.47 23.8157H395.438C397.595 23.8157 399.047 26.024 398.192 28.0044L371.674 89.4546C371.512 89.83 371.428 90.2345 371.428 90.6433V133.702C371.428 135.359 370.085 136.702 368.428 136.702H350.142C348.485 136.702 347.142 135.359 347.142 133.702V90.6338C347.142 90.2311 347.061 89.8326 346.903 89.4619L320.816 27.9877Z" stroke="white"/>
<path d="M231.425 163.801C231.425 159.139 234.754 155.142 239.339 154.297L284.724 145.935C285.381 145.813 286.049 145.752 286.717 145.752H384.238C390.313 145.752 395.238 150.677 395.238 156.752V167.618C395.238 173.693 390.313 178.618 384.238 178.618H285.712L239.994 173.404C235.112 172.847 231.425 168.715 231.425 163.801Z" stroke="white"/>
<path d="M185.234 151.61C185.234 149.954 186.577 148.61 188.234 148.61H213.663C215.32 148.61 216.663 149.954 216.663 151.61V175.618C216.663 177.275 215.32 178.618 213.663 178.618H188.234C186.577 178.618 185.234 177.275 185.234 175.618V151.61Z" stroke="white"/>
<path d="M199.68 191.42L212.46 191.24V198.62C211.02 198.38 209.34 198.26 207.42 198.26C205.5 198.26 203.34 198.38 200.94 198.62C200.94 207.86 196.5 217.22 187.62 226.7C178.74 236.18 168 243.86 155.4 249.74C142.92 255.74 131.28 258.74 120.48 258.74C114.84 258.74 110.22 257.3 106.62 254.42C103.14 251.54 101.4 247.76 101.4 243.08C101.4 236.12 106.02 228.86 115.26 221.3C124.5 213.74 135.3 207.5 147.66 202.58C160.02 197.66 171.18 194.78 181.14 193.94C179.94 192.14 178.08 190.58 175.56 189.26C173.04 187.94 167.88 185.9 160.08 183.14C152.28 180.26 146.76 177.14 143.52 173.78C140.28 170.3 138.66 165.44 138.66 159.2C138.66 152.96 142.02 145.82 148.74 137.78C155.46 129.74 163.38 123.02 172.5 117.62C181.74 112.1 189.84 109.34 196.8 109.34C199.92 109.34 202.5 110.48 204.54 112.76C206.58 114.92 207.6 117.62 207.6 120.86C207.6 126.14 204.42 132.8 198.06 140.84C191.7 148.76 184.62 154.82 176.82 159.02L172.5 152.9C177.18 150.5 181.26 146.78 184.74 141.74C188.34 136.58 190.14 132.14 190.14 128.42C190.14 124.7 188.16 122.84 184.2 122.84C178.56 122.84 172.08 126.38 164.76 133.46C157.56 140.42 153.96 146.96 153.96 153.08C153.96 157.28 155.04 160.58 157.2 162.98C159.36 165.38 164.82 168.38 173.58 171.98C182.34 175.46 188.58 178.58 192.3 181.34C196.02 183.98 198.48 187.34 199.68 191.42ZM119.4 238.4C119.4 244.16 124.08 247.04 133.44 247.04C138.6 247.04 145.26 245.12 153.42 241.28C161.7 237.56 168.96 232.28 175.2 225.44C181.56 218.72 184.74 211.82 184.74 204.74C184.74 203.9 184.56 202.64 184.2 200.96C167.76 202.52 152.82 207.14 139.38 214.82C126.06 222.5 119.4 230.36 119.4 238.4ZM277.972 205.64L282.472 209.6C275.512 221 268.132 226.7 260.332 226.7C255.532 226.7 250.612 223.16 245.572 216.08C240.532 209 238.012 203.18 238.012 198.62C238.012 195.74 242.332 192.86 250.972 189.98C254.212 188.9 257.152 187.28 259.792 185.12C262.552 182.84 263.932 180.5 263.932 178.1C263.932 175.7 263.272 173.9 261.952 172.7C260.632 171.38 258.952 170.72 256.912 170.72C243.712 171.92 229.912 189.68 215.512 224L204.532 220.22C204.532 215.06 211.492 194.18 225.412 157.58C239.452 120.98 249.412 98.84 255.292 91.16L264.112 94.4C247.912 122.6 234.352 155.36 223.432 192.68C232.792 178.64 240.832 169.28 247.552 164.6C254.272 159.92 260.692 157.58 266.812 157.58C270.532 157.58 273.472 158.72 275.632 161C277.912 163.28 279.052 166.22 279.052 169.82C279.052 173.3 278.152 176.48 276.352 179.36C274.672 182.24 272.212 184.76 268.972 186.92C264.292 190.04 258.532 193.1 251.692 196.1C252.772 201.74 254.632 206 257.272 208.88C259.912 211.76 262.912 213.2 266.272 213.2C268.072 213.2 271.972 210.68 277.972 205.64ZM309.134 147.68C302.414 147.68 299.054 144.98 299.054 139.58C299.054 136.58 299.894 134.06 301.574 132.02C303.254 129.98 305.414 128.96 308.054 128.96C310.694 128.96 312.854 129.74 314.534 131.3C316.214 132.86 317.054 134.9 317.054 137.42C317.054 139.94 316.334 142.28 314.894 144.44C313.454 146.6 311.534 147.68 309.134 147.68ZM306.794 200.78L310.394 203.84C307.514 209.36 303.674 214.1 298.874 218.06C294.194 221.9 289.934 223.82 286.094 223.82C279.374 223.82 276.014 219.14 276.014 209.78C276.014 198.14 280.814 182.96 290.414 164.24C292.574 160.16 293.834 157.76 294.194 157.04L301.934 161.72C299.414 166.28 296.294 173.54 292.574 183.5C288.974 193.46 287.174 199.88 287.174 202.76C287.174 205.52 287.774 207.5 288.974 208.7C290.174 209.9 291.614 210.5 293.294 210.5C296.534 210.5 301.034 207.26 306.794 200.78ZM381.598 202.22L385.378 205.1C382.738 210.38 379.078 214.82 374.398 218.42C369.838 222.02 365.698 223.82 361.978 223.82C358.258 223.82 355.318 222.74 353.158 220.58C350.998 218.42 349.918 215.72 349.918 212.48C349.918 209.24 351.958 203.6 356.038 195.56C360.238 187.4 362.338 181.4 362.338 177.56C362.338 175.88 361.618 174.38 360.178 173.06C358.858 171.62 357.238 170.9 355.318 170.9C349.198 170.9 343.018 175.58 336.778 184.94C330.538 194.18 323.578 207.56 315.898 225.08L305.098 221.3C307.378 207.38 310.618 193.82 314.818 180.62C319.138 167.3 323.098 157.76 326.698 152L334.078 154.34C330.718 162.86 326.458 177.56 321.298 198.44C337.858 170.12 353.098 155.96 367.018 155.96C370.018 155.96 372.478 156.98 374.398 159.02C376.438 161.06 377.458 163.46 377.458 166.22C377.458 168.98 377.098 171.5 376.378 173.78C375.658 175.94 373.378 181.1 369.538 189.26C365.818 197.3 363.958 202.34 363.958 204.38C363.958 206.42 364.558 208.04 365.758 209.24C366.958 210.32 368.098 210.86 369.178 210.86C370.258 210.86 371.158 210.68 371.878 210.32C372.598 209.96 373.378 209.42 374.218 208.7C375.178 207.98 376.018 207.32 376.738 206.72C377.458 206.12 378.298 205.34 379.258 204.38C380.338 203.3 381.118 202.58 381.598 202.22Z" fill="#111827"/>
</svg>
