<svg width="400" height="286" viewBox="0 0 400 286" fill="none" xmlns="http://www.w3.org/2000/svg">
<path fill-rule="evenodd" clip-rule="evenodd" d="M2.85092 55.2526C4.99382 40.9631 17.3272 23.8157 48.5659 23.8157C79.8046 23.8157 90.1536 45.4087 91.4234 55.2526C93.9632 68.1131 97.6139 120.984 91.4234 143.371C88.5661 152.897 79.4236 171.474 48.5659 171.474C17.7082 171.474 7.64357 153.245 4.75571 142.895C-0.95868 122.413 -1.43487 83.8315 2.85092 55.2526ZM48.5659 50.9658C39.8044 50.9658 35.1491 58.3584 34.7469 65.5912C33.8037 82.5542 33.8037 98.5973 33.8037 98.5973C33.8037 98.5973 33.8043 124.318 35.7085 134.321C36.4339 138.131 38.6604 143.371 48.5659 143.371C58.4714 143.371 60.7964 136.279 60.947 134.321C61.8994 121.937 62.4652 112.79 62.6539 98.9701C62.8438 85.0577 62.6539 85.8374 61.8331 65.5912C61.5452 58.4904 57.3274 50.9658 48.5659 50.9658Z" fill="#FAC9AA"/>
<path d="M103.804 52.1133C103.804 50.4564 105.147 49.1133 106.804 49.1133H127.471C129.128 49.1133 130.471 50.4564 130.471 52.1133V88.9816C130.471 90.6385 131.814 91.9816 133.471 91.9816H147.948C149.605 91.9816 150.948 90.6385 150.948 88.9816V52.1132C150.948 50.4564 152.291 49.1133 153.948 49.1133H174.615C176.272 49.1133 177.615 50.4564 177.615 52.1133V159C177.615 160.657 176.272 162 174.615 162H153.948C152.291 162 150.948 160.657 150.948 159V118.321C150.948 116.664 149.605 115.321 147.948 115.321H133.471C131.814 115.321 130.471 116.664 130.471 118.321V159C130.471 160.657 129.128 162 127.471 162H106.804C105.147 162 103.804 160.657 103.804 159V52.1133Z" fill="#FAC9AA"/>
<path d="M185.234 2.99999C185.234 1.34314 186.577 0 188.234 0H226.636C228.043 0 229.261 0.977593 229.565 2.35112L244.57 70.0805C245.27 73.2416 249.789 73.2047 250.438 70.0326L264.269 2.39895C264.554 1.00267 265.783 0 267.208 0H305.57C307.227 0 308.57 1.34315 308.57 3V133.702C308.57 135.359 307.227 136.702 305.57 136.702H282.522C280.865 136.702 279.522 135.359 279.522 133.702V67.6789C279.522 64.0826 274.347 63.531 273.589 67.0465L259.079 134.335C258.781 135.716 257.56 136.702 256.147 136.702H239.028C237.641 136.702 236.435 135.752 236.111 134.403L219.247 64.1746C218.417 60.7185 213.33 61.3207 213.33 64.8751V133.702C213.33 135.359 211.987 136.702 210.33 136.702H188.234C186.577 136.702 185.234 135.359 185.234 133.702V2.99999Z" fill="#FAC9AA"/>
<path d="M320.816 27.9877C319.977 26.0093 321.429 23.8157 323.578 23.8157H344.96C346.261 23.8157 347.413 24.654 347.814 25.8914L355.517 49.6769C356.385 52.3548 360.13 52.4716 361.162 49.8529L370.679 25.7154C371.131 24.5691 372.238 23.8157 373.47 23.8157H395.438C397.595 23.8157 399.047 26.024 398.192 28.0044L371.674 89.4546C371.512 89.83 371.428 90.2345 371.428 90.6433V133.702C371.428 135.359 370.085 136.702 368.428 136.702H350.142C348.485 136.702 347.142 135.359 347.142 133.702V90.6338C347.142 90.2311 347.061 89.8325 346.903 89.4619L320.816 27.9877Z" fill="#FAC9AA"/>
<path d="M231.425 163.801C231.425 159.139 234.754 155.142 239.339 154.297L284.724 145.935C285.381 145.813 286.049 145.752 286.717 145.752H384.238C390.313 145.752 395.238 150.677 395.238 156.752V167.618C395.238 173.693 390.313 178.618 384.238 178.618H285.712L239.994 173.404C235.112 172.847 231.425 168.715 231.425 163.801V163.801Z" fill="#FAC9AA"/>
<path d="M185.234 151.61C185.234 149.954 186.577 148.61 188.234 148.61H213.663C215.32 148.61 216.663 149.954 216.663 151.61V175.618C216.663 177.275 215.32 178.618 213.663 178.618H188.234C186.577 178.618 185.234 177.275 185.234 175.618V151.61Z" fill="#FAC9AA"/>
<path fill-rule="evenodd" clip-rule="evenodd" d="M2.85092 55.2526C4.99382 40.9631 17.3272 23.8157 48.5659 23.8157C79.8046 23.8157 90.1536 45.4087 91.4234 55.2526C93.9632 68.1131 97.6139 120.984 91.4234 143.371C88.5661 152.897 79.4236 171.474 48.5659 171.474C17.7082 171.474 7.64357 153.245 4.75571 142.895C-0.95868 122.413 -1.43487 83.8315 2.85092 55.2526ZM48.5659 50.9658C39.8044 50.9658 35.1491 58.3584 34.7469 65.5912C33.8037 82.5542 33.8037 98.5973 33.8037 98.5973C33.8037 98.5973 33.8043 124.318 35.7085 134.321C36.4339 138.131 38.6604 143.371 48.5659 143.371C58.4714 143.371 60.7964 136.279 60.947 134.321C61.8994 121.937 62.4652 112.79 62.6539 98.9701C62.8438 85.0577 62.6539 85.8374 61.8331 65.5912C61.5452 58.4904 57.3274 50.9658 48.5659 50.9658Z" stroke="white"/>
<path d="M103.804 52.1133C103.804 50.4564 105.147 49.1133 106.804 49.1133H127.471C129.128 49.1133 130.471 50.4564 130.471 52.1133V88.9816C130.471 90.6385 131.814 91.9816 133.471 91.9816H147.948C149.605 91.9816 150.948 90.6385 150.948 88.9816V52.1132C150.948 50.4564 152.291 49.1133 153.948 49.1133H174.615C176.272 49.1133 177.615 50.4564 177.615 52.1133V159C177.615 160.657 176.272 162 174.615 162H153.948C152.291 162 150.948 160.657 150.948 159V118.321C150.948 116.664 149.605 115.321 147.948 115.321H133.471C131.814 115.321 130.471 116.664 130.471 118.321V159C130.471 160.657 129.128 162 127.471 162H106.804C105.147 162 103.804 160.657 103.804 159V52.1133Z" stroke="white"/>
<path d="M185.234 2.99999C185.234 1.34314 186.577 0 188.234 0H226.636C228.043 0 229.261 0.977593 229.565 2.35112L244.57 70.0805C245.27 73.2416 249.789 73.2047 250.438 70.0326L264.269 2.39895C264.554 1.00267 265.783 0 267.208 0H305.57C307.227 0 308.57 1.34315 308.57 3V133.702C308.57 135.359 307.227 136.702 305.57 136.702H282.522C280.865 136.702 279.522 135.359 279.522 133.702V67.6789C279.522 64.0826 274.347 63.531 273.589 67.0465L259.079 134.335C258.781 135.716 257.56 136.702 256.147 136.702H239.028C237.641 136.702 236.435 135.752 236.111 134.403L219.247 64.1746C218.417 60.7185 213.33 61.3207 213.33 64.8751V133.702C213.33 135.359 211.987 136.702 210.33 136.702H188.234C186.577 136.702 185.234 135.359 185.234 133.702V2.99999Z" stroke="white"/>
<path d="M320.816 27.9877C319.977 26.0093 321.429 23.8157 323.578 23.8157H344.96C346.261 23.8157 347.413 24.654 347.814 25.8914L355.517 49.6769C356.385 52.3548 360.13 52.4716 361.162 49.8529L370.679 25.7154C371.131 24.5691 372.238 23.8157 373.47 23.8157H395.438C397.595 23.8157 399.047 26.024 398.192 28.0044L371.674 89.4546C371.512 89.83 371.428 90.2345 371.428 90.6433V133.702C371.428 135.359 370.085 136.702 368.428 136.702H350.142C348.485 136.702 347.142 135.359 347.142 133.702V90.6338C347.142 90.2311 347.061 89.8325 346.903 89.4619L320.816 27.9877Z" stroke="white"/>
<path d="M231.425 163.801C231.425 159.139 234.754 155.142 239.339 154.297L284.724 145.935C285.381 145.813 286.049 145.752 286.717 145.752H384.238C390.313 145.752 395.238 150.677 395.238 156.752V167.618C395.238 173.693 390.313 178.618 384.238 178.618H285.712L239.994 173.404C235.112 172.847 231.425 168.715 231.425 163.801V163.801Z" stroke="white"/>
<path d="M185.234 151.61C185.234 149.954 186.577 148.61 188.234 148.61H213.663C215.32 148.61 216.663 149.954 216.663 151.61V175.618C216.663 177.275 215.32 178.618 213.663 178.618H188.234C186.577 178.618 185.234 177.275 185.234 175.618V151.61Z" stroke="white"/>
<g filter="url(#filter0_d_1355_255)">
<path d="M157.688 196.674C168.359 193.209 190.732 180.902 199.549 161.38C207.21 144.417 197.297 138.777 191.341 137.851C179.03 135.936 155.007 141.627 138.811 167.673C134.98 173.327 129.742 186.825 140.999 201.599C154.132 218.836 160.425 225.129 159.877 239.082C159.255 254.94 143.005 264.983 134.433 268.083C120.753 273.031 90.1105 273.555 83.5442 255.498C76.53 236.209 89.5626 227.044 96.4026 223.761C102.103 221.025 113.913 216.1 123.489 224.581C101.382 224.581 92.0255 233.884 90.1103 244.007C88.9198 250.3 89.3093 268.234 118.838 264.253C143.188 260.97 151.943 240.997 146.745 229.233C145.491 226.395 142.97 221.791 135.527 213.911C130.359 208.439 125.607 203.514 122.942 196.127C113.366 169.588 140.393 149.718 155.5 141.134C170.606 132.55 198.127 129.096 205.568 138.945C213.01 148.795 205.787 166.852 199.002 175.334C193.531 182.174 184.775 191.233 168.633 197.222C162.342 199.555 154.314 198.772 157.688 196.674Z" fill="black" fill-opacity="0.76" shape-rendering="crispEdges"/>
<path d="M215.965 180.806C217.06 180.806 218.701 180.532 217.333 183.268C215.469 186.995 200.644 201.326 191.341 219.93C189.517 223.761 185.752 229.483 189.153 225.402C191.889 222.119 197.361 217.194 203.38 214.458C208.852 212.269 218.287 210.679 220.343 216.1C223.352 224.034 216.512 231.969 211.861 236.072C206.987 240.373 200.096 242.73 197.087 243.186C196.54 246.196 196.813 250.026 197.087 252.762C197.468 256.573 199.823 262.064 206.389 257.96C212.956 253.856 225.541 241.544 244.966 217.468C246.608 215.279 248.523 213.09 256.184 214.458C258.089 214.798 259.451 216.1 257.278 218.562C253.174 223.213 233.724 249.205 235.117 256.866C235.992 261.681 248.25 249.752 256.184 240.45C264.118 231.148 271.232 221.572 274.515 216.1C278.231 209.906 282.632 216.465 284.091 219.93C283.635 221.298 281.808 223.826 280.534 225.949C278.893 228.685 287.101 217.468 295.856 216.647C303.488 215.932 305.705 218.562 306.526 219.657C308.168 221.845 309.547 226.675 302.148 236.072C292.025 248.932 286.553 257.96 287.648 260.423C288.742 262.885 306.526 244.28 319.659 229.506C321.209 227.409 324.336 224.29 326.499 227.317C327.867 229.233 327.046 230.327 326.499 230.327C325.887 230.327 325.404 230.053 324.857 230.601C304.337 253.309 295.856 260.97 291.205 263.979C286.553 266.989 276.977 268.083 275.609 262.064C273.744 253.856 283.088 241.544 288.742 235.525C294.944 229.05 301.601 217.823 288.742 224.855C271.232 234.431 263.936 252.215 261.109 262.064C260.873 262.885 258.92 263.706 256.184 263.979C252.852 264.313 249.618 263.979 249.07 263.159C248.523 262.338 262.203 238.535 262.203 238.535C253.083 249.752 238.4 270.546 226.909 265.347C220.662 262.522 224.994 248.476 228.277 243.186L214.05 257.96C208.852 263.706 198.749 269.651 192.983 262.064C187.785 255.224 185.596 246.196 185.322 243.186C185.099 240.734 186.69 239.437 187.785 239.356C199.604 238.48 207.484 227.865 208.852 222.94C209.855 220.386 208.906 217.632 197.087 223.761C182.313 231.421 172.463 260.149 171.369 262.064C170.493 263.596 164.62 263.615 161.793 263.432C173.174 226.661 194.807 196.31 204.2 185.731C204.2 185.731 206.007 183.135 208.304 182.174C210.602 181.212 215.965 180.806 215.965 180.806Z" fill="black" fill-opacity="0.76" shape-rendering="crispEdges"/>
<path d="M257.278 194.486C257.278 192.297 261.437 186.88 268.222 188.193C276.704 189.834 270.411 196.431 266.765 197.241C264.257 197.988 257.278 199.352 257.278 194.486Z" fill="black" fill-opacity="0.76" shape-rendering="crispEdges"/>
</g>
<defs>
<filter id="filter0_d_1355_255" x="81.5312" y="132.969" width="259.717" height="152.078" filterUnits="userSpaceOnUse" color-interpolation-filters="sRGB">
<feFlood flood-opacity="0" result="BackgroundImageFix"/>
<feColorMatrix in="SourceAlpha" type="matrix" values="0 0 0 0 0 0 0 0 0 0 0 0 0 0 0 0 0 0 127 0" result="hardAlpha"/>
<feOffset dx="8" dy="8"/>
<feGaussianBlur stdDeviation="3"/>
<feComposite in2="hardAlpha" operator="out"/>
<feColorMatrix type="matrix" values="0 0 0 0 0 0 0 0 0 0 0 0 0 0 0 0 0 0 0.3 0"/>
<feBlend mode="normal" in2="BackgroundImageFix" result="effect1_dropShadow_1355_255"/>
<feBlend mode="normal" in="SourceGraphic" in2="effect1_dropShadow_1355_255" result="shape"/>
</filter>
</defs>
</svg>
