<svg width="409" height="283" viewBox="0 0 409 283" fill="none" xmlns="http://www.w3.org/2000/svg">
<path fill-rule="evenodd" clip-rule="evenodd" d="M2.85092 55.2526C4.99382 40.9631 17.3272 23.8157 48.5659 23.8157C79.8046 23.8157 90.1536 45.4087 91.4234 55.2526C93.9632 68.1131 97.6139 120.984 91.4234 143.371C88.5661 152.897 79.4236 171.474 48.5659 171.474C17.7082 171.474 7.64357 153.245 4.75571 142.895C-0.95868 122.413 -1.43487 83.8315 2.85092 55.2526ZM48.5659 50.9658C39.8044 50.9658 35.1491 58.3584 34.7469 65.5912C33.8037 82.5542 33.8037 98.5973 33.8037 98.5973C33.8037 98.5973 33.8043 124.318 35.7085 134.321C36.4339 138.131 38.6604 143.371 48.5659 143.371C58.4714 143.371 60.7964 136.279 60.947 134.321C61.8994 121.937 62.4652 112.79 62.6539 98.9701C62.8438 85.0577 62.6539 85.8374 61.8331 65.5912C61.5452 58.4904 57.3274 50.9658 48.5659 50.9658Z" fill="#FAC9AA"/>
<path d="M103.804 52.1133C103.804 50.4564 105.147 49.1133 106.804 49.1133H127.471C129.128 49.1133 130.471 50.4564 130.471 52.1133V88.9816C130.471 90.6385 131.814 91.9816 133.471 91.9816H147.948C149.605 91.9816 150.948 90.6385 150.948 88.9816V52.1132C150.948 50.4564 152.291 49.1133 153.948 49.1133H174.615C176.272 49.1133 177.615 50.4564 177.615 52.1133V159C177.615 160.657 176.272 162 174.615 162H153.948C152.291 162 150.948 160.657 150.948 159V118.321C150.948 116.664 149.605 115.321 147.948 115.321H133.471C131.814 115.321 130.471 116.664 130.471 118.321V159C130.471 160.657 129.128 162 127.471 162H106.804C105.147 162 103.804 160.657 103.804 159V52.1133Z" fill="#FAC9AA"/>
<path d="M185.234 2.99999C185.234 1.34314 186.577 0 188.234 0H226.636C228.043 0 229.261 0.977593 229.565 2.35112L244.57 70.0805C245.27 73.2416 249.789 73.2047 250.438 70.0326L264.269 2.39895C264.554 1.00267 265.783 0 267.208 0H305.57C307.227 0 308.57 1.34315 308.57 3V133.702C308.57 135.359 307.227 136.702 305.57 136.702H282.522C280.865 136.702 279.522 135.359 279.522 133.702V67.6789C279.522 64.0826 274.347 63.531 273.589 67.0465L259.079 134.335C258.781 135.716 257.56 136.702 256.147 136.702H239.028C237.641 136.702 236.435 135.752 236.111 134.403L219.247 64.1746C218.417 60.7185 213.33 61.3207 213.33 64.8751V133.702C213.33 135.359 211.987 136.702 210.33 136.702H188.234C186.577 136.702 185.234 135.359 185.234 133.702V2.99999Z" fill="#FAC9AA"/>
<path d="M320.816 27.9877C319.977 26.0093 321.429 23.8157 323.578 23.8157H344.96C346.261 23.8157 347.413 24.654 347.814 25.8914L355.517 49.6769C356.385 52.3548 360.13 52.4716 361.162 49.8529L370.679 25.7154C371.131 24.5691 372.238 23.8157 373.47 23.8157H395.438C397.595 23.8157 399.047 26.024 398.192 28.0044L371.674 89.4546C371.512 89.83 371.428 90.2345 371.428 90.6433V133.702C371.428 135.359 370.085 136.702 368.428 136.702H350.142C348.485 136.702 347.142 135.359 347.142 133.702V90.6338C347.142 90.2311 347.061 89.8325 346.903 89.4619L320.816 27.9877Z" fill="#FAC9AA"/>
<path d="M231.425 163.801C231.425 159.139 234.754 155.142 239.339 154.297L284.724 145.935C285.381 145.813 286.049 145.752 286.717 145.752H384.238C390.313 145.752 395.238 150.677 395.238 156.752V167.618C395.238 173.693 390.313 178.618 384.238 178.618H285.712L239.994 173.404C235.112 172.847 231.425 168.715 231.425 163.801V163.801Z" fill="#FAC9AA"/>
<path d="M185.234 151.61C185.234 149.954 186.577 148.61 188.234 148.61H213.663C215.32 148.61 216.663 149.954 216.663 151.61V175.618C216.663 177.275 215.32 178.618 213.663 178.618H188.234C186.577 178.618 185.234 177.275 185.234 175.618V151.61Z" fill="#FAC9AA"/>
<path fill-rule="evenodd" clip-rule="evenodd" d="M2.85092 55.2526C4.99382 40.9631 17.3272 23.8157 48.5659 23.8157C79.8046 23.8157 90.1536 45.4087 91.4234 55.2526C93.9632 68.1131 97.6139 120.984 91.4234 143.371C88.5661 152.897 79.4236 171.474 48.5659 171.474C17.7082 171.474 7.64357 153.245 4.75571 142.895C-0.95868 122.413 -1.43487 83.8315 2.85092 55.2526ZM48.5659 50.9658C39.8044 50.9658 35.1491 58.3584 34.7469 65.5912C33.8037 82.5542 33.8037 98.5973 33.8037 98.5973C33.8037 98.5973 33.8043 124.318 35.7085 134.321C36.4339 138.131 38.6604 143.371 48.5659 143.371C58.4714 143.371 60.7964 136.279 60.947 134.321C61.8994 121.937 62.4652 112.79 62.6539 98.9701C62.8438 85.0577 62.6539 85.8374 61.8331 65.5912C61.5452 58.4904 57.3274 50.9658 48.5659 50.9658Z" stroke="white"/>
<path d="M103.804 52.1133C103.804 50.4564 105.147 49.1133 106.804 49.1133H127.471C129.128 49.1133 130.471 50.4564 130.471 52.1133V88.9816C130.471 90.6385 131.814 91.9816 133.471 91.9816H147.948C149.605 91.9816 150.948 90.6385 150.948 88.9816V52.1132C150.948 50.4564 152.291 49.1133 153.948 49.1133H174.615C176.272 49.1133 177.615 50.4564 177.615 52.1133V159C177.615 160.657 176.272 162 174.615 162H153.948C152.291 162 150.948 160.657 150.948 159V118.321C150.948 116.664 149.605 115.321 147.948 115.321H133.471C131.814 115.321 130.471 116.664 130.471 118.321V159C130.471 160.657 129.128 162 127.471 162H106.804C105.147 162 103.804 160.657 103.804 159V52.1133Z" stroke="white"/>
<path d="M185.234 2.99999C185.234 1.34314 186.577 0 188.234 0H226.636C228.043 0 229.261 0.977593 229.565 2.35112L244.57 70.0805C245.27 73.2416 249.789 73.2047 250.438 70.0326L264.269 2.39895C264.554 1.00267 265.783 0 267.208 0H305.57C307.227 0 308.57 1.34315 308.57 3V133.702C308.57 135.359 307.227 136.702 305.57 136.702H282.522C280.865 136.702 279.522 135.359 279.522 133.702V67.6789C279.522 64.0826 274.347 63.531 273.589 67.0465L259.079 134.335C258.781 135.716 257.56 136.702 256.147 136.702H239.028C237.641 136.702 236.435 135.752 236.111 134.403L219.247 64.1746C218.417 60.7185 213.33 61.3207 213.33 64.8751V133.702C213.33 135.359 211.987 136.702 210.33 136.702H188.234C186.577 136.702 185.234 135.359 185.234 133.702V2.99999Z" stroke="white"/>
<path d="M320.816 27.9877C319.977 26.0093 321.429 23.8157 323.578 23.8157H344.96C346.261 23.8157 347.413 24.654 347.814 25.8914L355.517 49.6769C356.385 52.3548 360.13 52.4716 361.162 49.8529L370.679 25.7154C371.131 24.5691 372.238 23.8157 373.47 23.8157H395.438C397.595 23.8157 399.047 26.024 398.192 28.0044L371.674 89.4546C371.512 89.83 371.428 90.2345 371.428 90.6433V133.702C371.428 135.359 370.085 136.702 368.428 136.702H350.142C348.485 136.702 347.142 135.359 347.142 133.702V90.6338C347.142 90.2311 347.061 89.8325 346.903 89.4619L320.816 27.9877Z" stroke="white"/>
<path d="M231.425 163.801C231.425 159.139 234.754 155.142 239.339 154.297L284.724 145.935C285.381 145.813 286.049 145.752 286.717 145.752H384.238C390.313 145.752 395.238 150.677 395.238 156.752V167.618C395.238 173.693 390.313 178.618 384.238 178.618H285.712L239.994 173.404C235.112 172.847 231.425 168.715 231.425 163.801V163.801Z" stroke="white"/>
<path d="M185.234 151.61C185.234 149.954 186.577 148.61 188.234 148.61H213.663C215.32 148.61 216.663 149.954 216.663 151.61V175.618C216.663 177.275 215.32 178.618 213.663 178.618H188.234C186.577 178.618 185.234 177.275 185.234 175.618V151.61Z" stroke="white"/>
<g filter="url(#filter0_d_1355_260)">
<path d="M192.263 177.742C204.769 173.677 230.993 159.237 241.327 136.334C250.306 116.432 238.688 109.815 231.707 108.728C217.276 106.481 189.12 113.158 170.136 143.717C165.647 150.351 159.508 166.187 172.701 183.52C188.094 203.743 195.47 211.126 194.828 227.497C194.099 246.103 175.053 257.885 165.005 261.523C148.971 267.328 113.056 267.943 105.359 246.757C97.1381 224.126 112.413 213.373 120.43 209.521C127.111 206.311 140.954 200.533 152.178 210.484C126.267 210.484 115.3 221.398 113.055 233.275C111.66 240.658 112.117 261.7 146.727 257.029C175.267 253.177 185.529 229.744 179.436 215.941C177.966 212.612 175.011 207.21 166.288 197.965C160.23 191.545 154.661 185.767 151.537 177.101C140.313 145.964 171.991 122.651 189.697 112.58C207.404 102.509 239.66 98.456 248.382 110.012C257.104 121.568 248.638 142.754 240.686 152.705C234.273 160.73 224.01 171.359 205.09 178.384C197.717 181.122 188.308 180.203 192.263 177.742Z" fill="#5F5F5F"/>
<path d="M260.568 159.125C261.851 159.125 263.775 158.804 262.171 162.014C259.987 166.387 242.61 183.199 231.707 205.027C229.569 209.521 225.155 216.235 229.141 211.447C232.348 207.595 238.762 201.817 245.817 198.607C252.23 196.039 263.289 194.174 265.699 200.533C269.226 209.842 261.209 219.151 255.758 223.966C250.045 229.012 241.968 231.777 238.441 232.312C237.8 235.843 238.12 240.337 238.441 243.547C238.888 248.019 241.648 254.461 249.344 249.646C257.04 244.831 271.792 230.386 294.56 202.138C296.484 199.57 298.729 197.002 307.708 198.607C309.94 199.006 311.536 200.534 308.99 203.422C304.18 208.879 281.383 239.374 283.015 248.362C284.042 254.012 298.408 240.016 307.708 229.102C317.007 218.188 325.345 206.953 329.193 200.533C333.549 193.266 338.707 200.961 340.417 205.027C339.883 206.632 337.741 209.598 336.248 212.089C334.324 215.299 343.944 202.138 354.206 201.175C363.152 200.336 365.751 203.422 366.713 204.706C368.637 207.274 370.253 212.94 361.582 223.966C349.717 239.053 343.303 249.646 344.586 252.535C345.869 255.424 366.713 233.596 382.105 216.262C383.923 213.801 387.587 210.142 390.122 213.694C391.726 215.941 390.764 217.225 390.123 217.225C389.405 217.225 388.84 216.904 388.198 217.546C364.147 244.189 354.207 253.177 348.755 256.708C343.303 260.239 332.079 261.523 330.476 254.461C328.289 244.831 339.241 230.386 345.869 223.324C353.137 215.727 360.941 202.555 345.869 210.805C325.345 222.04 316.794 242.905 313.48 254.461C313.204 255.424 310.914 256.387 307.708 256.708C303.803 257.099 300.011 256.708 299.37 255.745C298.729 254.782 314.763 226.855 314.763 226.855C304.073 240.016 286.864 264.412 273.395 258.313C266.073 254.997 271.15 238.518 274.998 232.312L258.323 249.646C252.23 256.387 240.389 263.362 233.631 254.461C227.538 246.436 224.972 235.843 224.652 232.312C224.39 229.435 226.255 227.913 227.538 227.818C241.391 226.791 250.627 214.336 252.23 208.558C253.406 205.562 252.294 202.331 238.441 209.521C221.124 218.509 209.58 252.214 208.297 254.461C207.271 256.259 200.387 256.28 197.073 256.066C210.414 212.924 235.769 177.315 246.779 164.903C246.779 164.903 248.896 161.858 251.589 160.73C254.281 159.601 260.568 159.125 260.568 159.125Z" fill="#5F5F5F"/>
<path d="M308.99 175.175C308.99 172.607 313.865 166.251 321.818 167.792C331.759 169.718 324.383 177.457 320.11 178.408C317.169 179.284 308.99 180.884 308.99 175.175Z" fill="#5F5F5F"/>
</g>
<defs>
<filter id="filter0_d_1355_260" x="103" y="103" width="306" height="180" filterUnits="userSpaceOnUse" color-interpolation-filters="sRGB">
<feFlood flood-opacity="0" result="BackgroundImageFix"/>
<feColorMatrix in="SourceAlpha" type="matrix" values="0 0 0 0 0 0 0 0 0 0 0 0 0 0 0 0 0 0 127 0" result="hardAlpha"/>
<feOffset dx="10" dy="10"/>
<feGaussianBlur stdDeviation="4"/>
<feComposite in2="hardAlpha" operator="out"/>
<feColorMatrix type="matrix" values="0 0 0 0 0 0 0 0 0 0 0 0 0 0 0 0 0 0 0.25 0"/>
<feBlend mode="normal" in2="BackgroundImageFix" result="effect1_dropShadow_1355_260"/>
<feBlend mode="normal" in="SourceGraphic" in2="effect1_dropShadow_1355_260" result="shape"/>
</filter>
</defs>
</svg>
