<svg width="400" height="272" viewBox="0 0 400 272" fill="none" xmlns="http://www.w3.org/2000/svg">
<rect width="400" height="271.047" fill="white"/>
<path fill-rule="evenodd" clip-rule="evenodd" d="M2.85092 55.2526C4.99382 40.9631 17.3272 23.8157 48.5659 23.8157C79.8046 23.8157 90.1536 45.4087 91.4234 55.2526C93.9632 68.1131 97.6139 120.984 91.4234 143.371C88.5661 152.897 79.4236 171.474 48.5659 171.474C17.7082 171.474 7.64357 153.245 4.75571 142.895C-0.95868 122.413 -1.43487 83.8315 2.85092 55.2526ZM48.5659 50.9658C39.8044 50.9658 35.1491 58.3584 34.7469 65.5912C33.8037 82.5542 33.8037 98.5973 33.8037 98.5973C33.8037 98.5973 33.8043 124.318 35.7085 134.321C36.4339 138.131 38.6604 143.371 48.5659 143.371C58.4714 143.371 60.7964 136.279 60.947 134.321C61.8994 121.937 62.4652 112.79 62.6539 98.9701C62.8438 85.0577 62.6539 85.8374 61.8331 65.5912C61.5452 58.4904 57.3274 50.9658 48.5659 50.9658Z" fill="#E97B9D"/>
<path d="M103.804 52.1133C103.804 50.4564 105.147 49.1133 106.804 49.1133H127.471C129.128 49.1133 130.471 50.4564 130.471 52.1133V88.9816C130.471 90.6385 131.814 91.9816 133.471 91.9816H147.948C149.605 91.9816 150.948 90.6385 150.948 88.9816V52.1132C150.948 50.4564 152.291 49.1133 153.948 49.1133H174.615C176.272 49.1133 177.615 50.4564 177.615 52.1133V159C177.615 160.657 176.272 162 174.615 162H153.948C152.291 162 150.948 160.657 150.948 159V118.321C150.948 116.664 149.605 115.321 147.948 115.321H133.471C131.814 115.321 130.471 116.664 130.471 118.321V159C130.471 160.657 129.128 162 127.471 162H106.804C105.147 162 103.804 160.657 103.804 159V52.1133Z" fill="#E97B9D"/>
<path d="M185.234 2.99999C185.234 1.34314 186.577 0 188.234 0H226.636C228.043 0 229.261 0.977593 229.565 2.35112L244.57 70.0805C245.27 73.2416 249.789 73.2047 250.438 70.0326L264.269 2.39895C264.554 1.00267 265.783 0 267.208 0H305.57C307.227 0 308.57 1.34315 308.57 3V133.702C308.57 135.359 307.227 136.702 305.57 136.702H282.522C280.865 136.702 279.522 135.359 279.522 133.702V67.6789C279.522 64.0826 274.347 63.531 273.589 67.0465L259.079 134.335C258.781 135.716 257.56 136.702 256.147 136.702H239.028C237.641 136.702 236.435 135.752 236.111 134.403L219.247 64.1746C218.417 60.7185 213.33 61.3207 213.33 64.8751V133.702C213.33 135.359 211.987 136.702 210.33 136.702H188.234C186.577 136.702 185.234 135.359 185.234 133.702V2.99999Z" fill="#E97B9D"/>
<path d="M320.816 27.9877C319.977 26.0093 321.429 23.8157 323.578 23.8157H344.96C346.261 23.8157 347.413 24.654 347.814 25.8914L355.517 49.6769C356.385 52.3548 360.13 52.4716 361.162 49.8529L370.679 25.7154C371.131 24.5691 372.238 23.8157 373.47 23.8157H395.438C397.595 23.8157 399.047 26.024 398.192 28.0044L371.674 89.4546C371.512 89.83 371.428 90.2345 371.428 90.6433V133.702C371.428 135.359 370.085 136.702 368.428 136.702H350.142C348.485 136.702 347.142 135.359 347.142 133.702V90.6338C347.142 90.2311 347.061 89.8326 346.903 89.4619L320.816 27.9877Z" fill="#E97B9D"/>
<path fill-rule="evenodd" clip-rule="evenodd" d="M2.85092 55.2526C4.99382 40.9631 17.3272 23.8157 48.5659 23.8157C79.8046 23.8157 90.1536 45.4087 91.4234 55.2526C93.9632 68.1131 97.6139 120.984 91.4234 143.371C88.5661 152.897 79.4236 171.474 48.5659 171.474C17.7082 171.474 7.64357 153.245 4.75571 142.895C-0.95868 122.413 -1.43487 83.8315 2.85092 55.2526ZM48.5659 50.9658C39.8044 50.9658 35.1491 58.3584 34.7469 65.5912C33.8037 82.5542 33.8037 98.5973 33.8037 98.5973C33.8037 98.5973 33.8043 124.318 35.7085 134.321C36.4339 138.131 38.6604 143.371 48.5659 143.371C58.4714 143.371 60.7964 136.279 60.947 134.321C61.8994 121.937 62.4652 112.79 62.6539 98.9701C62.8438 85.0577 62.6539 85.8374 61.8331 65.5912C61.5452 58.4904 57.3274 50.9658 48.5659 50.9658Z" stroke="white"/>
<path d="M103.804 52.1133C103.804 50.4564 105.147 49.1133 106.804 49.1133H127.471C129.128 49.1133 130.471 50.4564 130.471 52.1133V88.9816C130.471 90.6385 131.814 91.9816 133.471 91.9816H147.948C149.605 91.9816 150.948 90.6385 150.948 88.9816V52.1132C150.948 50.4564 152.291 49.1133 153.948 49.1133H174.615C176.272 49.1133 177.615 50.4564 177.615 52.1133V159C177.615 160.657 176.272 162 174.615 162H153.948C152.291 162 150.948 160.657 150.948 159V118.321C150.948 116.664 149.605 115.321 147.948 115.321H133.471C131.814 115.321 130.471 116.664 130.471 118.321V159C130.471 160.657 129.128 162 127.471 162H106.804C105.147 162 103.804 160.657 103.804 159V52.1133Z" stroke="white"/>
<path d="M185.234 2.99999C185.234 1.34314 186.577 0 188.234 0H226.636C228.043 0 229.261 0.977593 229.565 2.35112L244.57 70.0805C245.27 73.2416 249.789 73.2047 250.438 70.0326L264.269 2.39895C264.554 1.00267 265.783 0 267.208 0H305.57C307.227 0 308.57 1.34315 308.57 3V133.702C308.57 135.359 307.227 136.702 305.57 136.702H282.522C280.865 136.702 279.522 135.359 279.522 133.702V67.6789C279.522 64.0826 274.347 63.531 273.589 67.0465L259.079 134.335C258.781 135.716 257.56 136.702 256.147 136.702H239.028C237.641 136.702 236.435 135.752 236.111 134.403L219.247 64.1746C218.417 60.7185 213.33 61.3207 213.33 64.8751V133.702C213.33 135.359 211.987 136.702 210.33 136.702H188.234C186.577 136.702 185.234 135.359 185.234 133.702V2.99999Z" stroke="white"/>
<path d="M320.816 27.9877C319.977 26.0093 321.429 23.8157 323.578 23.8157H344.96C346.261 23.8157 347.413 24.654 347.814 25.8914L355.517 49.6769C356.385 52.3548 360.13 52.4716 361.162 49.8529L370.679 25.7154C371.131 24.5691 372.238 23.8157 373.47 23.8157H395.438C397.595 23.8157 399.047 26.024 398.192 28.0044L371.674 89.4546C371.512 89.83 371.428 90.2345 371.428 90.6433V133.702C371.428 135.359 370.085 136.702 368.428 136.702H350.142C348.485 136.702 347.142 135.359 347.142 133.702V90.6338C347.142 90.2311 347.061 89.8326 346.903 89.4619L320.816 27.9877Z" stroke="white"/>
<path d="M231.425 163.801C231.425 159.139 234.754 155.142 239.339 154.297L284.724 145.935C285.381 145.813 286.049 145.752 286.717 145.752H384.238C390.313 145.752 395.238 150.677 395.238 156.752V167.618C395.238 173.693 390.313 178.618 384.238 178.618H285.712L239.994 173.404C235.112 172.847 231.425 168.715 231.425 163.801Z" stroke="white"/>
<path d="M185.234 151.61C185.234 149.954 186.577 148.61 188.234 148.61H213.663C215.32 148.61 216.663 149.954 216.663 151.61V175.618C216.663 177.275 215.32 178.618 213.663 178.618H188.234C186.577 178.618 185.234 177.275 185.234 175.618V151.61Z" stroke="white"/>
<path d="M187.356 191.714L201.982 191.508V199.954C200.334 199.679 198.411 199.542 196.214 199.542C194.017 199.542 191.545 199.679 188.798 199.954C188.798 210.529 183.717 221.241 173.554 232.09C163.391 242.939 151.1 251.729 136.68 258.458C122.397 265.325 109.076 268.758 96.716 268.758C90.2613 268.758 84.974 267.11 80.854 263.814C76.8713 260.518 74.88 256.192 74.88 250.836C74.88 242.871 80.1673 234.562 90.742 225.91C101.317 217.258 113.677 210.117 127.822 204.486C141.967 198.855 154.739 195.559 166.138 194.598C164.765 192.538 162.636 190.753 159.752 189.242C156.868 187.731 150.963 185.397 142.036 182.238C133.109 178.942 126.792 175.371 123.084 171.526C119.376 167.543 117.522 161.981 117.522 154.84C117.522 147.699 121.367 139.527 129.058 130.326C136.749 121.125 145.813 113.434 156.25 107.254C166.825 100.937 176.095 97.778 184.06 97.778C187.631 97.778 190.583 99.0827 192.918 101.692C195.253 104.164 196.42 107.254 196.42 110.962C196.42 117.005 192.781 124.627 185.502 133.828C178.223 142.892 170.121 149.827 161.194 154.634L156.25 147.63C161.606 144.883 166.275 140.626 170.258 134.858C174.378 128.953 176.438 123.871 176.438 119.614C176.438 115.357 174.172 113.228 169.64 113.228C163.185 113.228 155.769 117.279 147.392 125.382C139.152 133.347 135.032 140.832 135.032 147.836C135.032 152.643 136.268 156.419 138.74 159.166C141.212 161.913 147.461 165.346 157.486 169.466C167.511 173.449 174.653 177.019 178.91 180.178C183.167 183.199 185.983 187.045 187.356 191.714ZM95.48 245.48C95.48 252.072 100.836 255.368 111.548 255.368C117.453 255.368 125.075 253.171 134.414 248.776C143.89 244.519 152.199 238.476 159.34 230.648C166.619 222.957 170.258 215.061 170.258 206.958C170.258 205.997 170.052 204.555 169.64 202.632C150.825 204.417 133.727 209.705 118.346 218.494C103.102 227.283 95.48 236.279 95.48 245.48ZM276.956 207.988L282.106 212.52C274.141 225.567 265.695 232.09 256.768 232.09C251.275 232.09 245.644 228.039 239.876 219.936C234.108 211.833 231.224 205.173 231.224 199.954C231.224 196.658 236.168 193.362 246.056 190.066C249.764 188.83 253.129 186.976 256.15 184.504C259.309 181.895 260.888 179.217 260.888 176.47C260.888 173.723 260.133 171.663 258.622 170.29C257.112 168.779 255.189 168.024 252.854 168.024C237.748 169.397 221.954 189.723 205.474 229L192.908 224.674C192.908 218.769 200.874 194.873 216.804 152.986C232.872 111.099 244.271 85.7613 251 76.972L261.094 80.68C242.554 112.953 227.036 150.445 214.538 193.156C225.25 177.088 234.452 166.376 242.142 161.02C249.833 155.664 257.18 152.986 264.184 152.986C268.442 152.986 271.806 154.291 274.278 156.9C276.888 159.509 278.192 162.874 278.192 166.994C278.192 170.977 277.162 174.616 275.102 177.912C273.18 181.208 270.364 184.092 266.656 186.564C261.3 190.135 254.708 193.637 246.88 197.07C248.116 203.525 250.245 208.4 253.266 211.696C256.288 214.992 259.721 216.64 263.566 216.64C265.626 216.64 270.09 213.756 276.956 207.988ZM312.62 141.656C304.929 141.656 301.084 138.566 301.084 132.386C301.084 128.953 302.045 126.069 303.968 123.734C305.891 121.399 308.363 120.232 311.384 120.232C314.405 120.232 316.877 121.125 318.8 122.91C320.723 124.695 321.684 127.03 321.684 129.914C321.684 132.798 320.86 135.476 319.212 137.948C317.564 140.42 315.367 141.656 312.62 141.656ZM309.942 202.426L314.062 205.928C310.766 212.245 306.371 217.67 300.878 222.202C295.522 226.597 290.647 228.794 286.252 228.794C278.561 228.794 274.716 223.438 274.716 212.726C274.716 199.405 280.209 182.032 291.196 160.608C293.668 155.939 295.11 153.192 295.522 152.368L304.38 157.724C301.496 162.943 297.925 171.251 293.668 182.65C289.548 194.049 287.488 201.396 287.488 204.692C287.488 207.851 288.175 210.117 289.548 211.49C290.921 212.863 292.569 213.55 294.492 213.55C298.2 213.55 303.35 209.842 309.942 202.426ZM395.551 204.074L399.877 207.37C396.856 213.413 392.667 218.494 387.311 222.614C382.093 226.734 377.355 228.794 373.097 228.794C368.84 228.794 365.475 227.558 363.003 225.086C360.531 222.614 359.295 219.524 359.295 215.816C359.295 212.108 361.63 205.653 366.299 196.452C371.106 187.113 373.509 180.247 373.509 175.852C373.509 173.929 372.685 172.213 371.037 170.702C369.527 169.054 367.673 168.23 365.475 168.23C358.471 168.23 351.399 173.586 344.257 184.298C337.116 194.873 329.151 210.185 320.361 230.236L308.001 225.91C310.611 209.979 314.319 194.461 319.125 179.354C324.069 164.11 328.601 153.192 332.721 146.6L341.167 149.278C337.322 159.029 332.447 175.852 326.541 199.748C345.493 167.337 362.935 151.132 378.865 151.132C382.299 151.132 385.114 152.299 387.311 154.634C389.646 156.969 390.813 159.715 390.813 162.874C390.813 166.033 390.401 168.917 389.577 171.526C388.753 173.998 386.144 179.903 381.749 189.242C377.492 198.443 375.363 204.211 375.363 206.546C375.363 208.881 376.05 210.735 377.423 212.108C378.797 213.344 380.101 213.962 381.337 213.962C382.573 213.962 383.603 213.756 384.427 213.344C385.251 212.932 386.144 212.314 387.105 211.49C388.204 210.666 389.165 209.911 389.989 209.224C390.813 208.537 391.775 207.645 392.873 206.546C394.109 205.31 395.002 204.486 395.551 204.074Z" fill="#111827"/>
</svg>
