<svg width="1032" height="400" viewBox="0 0 1032 400" fill="none" xmlns="http://www.w3.org/2000/svg">
<path d="M117.999 286C110.499 256 96.2993 188.6 99.4993 159C112.666 152.5 148.9 141.4 204.5 157M117.999 286C120.912 280.903 125.763 273.405 132.211 264.769C134.172 262.143 137.567 261.045 140.715 261.955L188.662 275.813C192.249 276.849 194.959 279.797 195.692 283.458C197.062 290.31 199.337 301.683 201 310M117.999 286L97 301.5H61C57.6863 301.5 55 304.186 55 307.5V323M117.999 286H136.654C141.156 286 145.584 287.046 149.633 289.013C162.72 295.372 192.851 309.612 201 310M208.5 308C207.667 245.667 208.2 115.6 217 94.0003C237.667 92.8336 282.1 92.4 310.5 112M344 320C338.079 293.307 327.978 237.167 319.392 164.5M781.5 146C655 122 586.833 168.167 553 195.5C491.4 57.5 362.667 9.33333 306 2.5C306 58 313.718 116.475 319.392 164.5M781.5 146C775.5 175.5 756 239.5 752 245.5M781.5 146C778.371 146.763 775.783 149.104 766.5 159.5C755.509 171.809 735.649 197.605 717 231M752 245.5L757.5 248.55C821.718 215.999 888.76 213.593 922.5 218.613M752 245.5C749.843 244.447 747.149 243.244 744 241.966C726.221 234.751 693.942 225.141 662 226.5C662 244 671.6 284.4 682 310M922.5 218.613C918.167 232.113 907.4 267.8 889 297M922.5 218.613C895.502 227.663 835.026 262.503 781.5 327.476M765 349H920.415C925.425 349 930.387 349.965 935.032 351.843L969.947 365.957C973.21 367.276 975.899 369.709 977.539 372.823V372.823C979.052 375.699 982.035 377.5 985.285 377.5H1011.22C1017.23 377.5 1022.72 380.859 1025.46 386.199L1031 397H588.5V388H152.619C148.944 388 145.34 386.988 142.203 385.074L100.676 359.742C98.2717 358.276 95.5103 357.5 92.6945 357.5V357.5C89.0077 357.5 85.4299 356.249 82.5465 353.951C73.1275 346.445 66.5714 341.221 56.5103 333.204C55.5579 332.445 55 331.291 55 330.073V323M765 349C770.361 341.472 775.878 334.3 781.5 327.476M765 349L752 344.827M889 297C902.667 303 932.7 317.7 943.5 328.5M889 297H847.5C839.667 297.984 815.5 305.457 781.5 327.476M943.5 328.5L781.5 327.476M943.5 328.5H957.249C961.342 328.5 965.361 329.592 968.891 331.664L982.281 339.523C985.043 341.145 988.189 342 991.392 342H1017.14C1019.68 342 1022.2 342.54 1024.52 343.585L1031 346.5M319.392 164.5C278.307 205.234 251.032 249.289 236 279.787L313.17 290.626C316.974 291.16 320.136 293.826 321.305 297.485L328.5 320M201 310C218.776 310 244.581 310 253.941 310C256.303 310 258.634 310.419 260.851 311.236L305.494 327.707C307.811 328.561 310.267 328.98 312.737 328.94L675.433 323.137C681.106 323.046 686.756 323.885 692.158 325.619L752 344.827M384 320C387.479 316.404 443.2 262.8 488 238M696 320L699.403 312.061C700.978 308.384 704.594 306 708.594 306H737.427C742.36 306 746.556 309.598 747.309 314.473L752 344.827M55 323H42C39.2386 323 37 325.239 37 328V347.5H22.5C20.2909 347.5 18.5 349.291 18.5 351.5V388H2.5M553 203.5L634.5 310L611.708 295.945C607.043 293.068 601.535 291.875 596.099 292.562L516.488 302.63C511.793 303.224 508.291 298.402 510.308 294.12L553 203.5Z" stroke="white" stroke-width="5" stroke-linecap="round" stroke-linejoin="round"/>
</svg>
