<svg width="1034" height="570" viewBox="0 0 1034 570" fill="none" xmlns="http://www.w3.org/2000/svg">
<path d="M569 109.5L606.174 91.5M569 109.5C580.158 104.5 611.927 96 649.737 102M569 109.5L568.581 118M562.5 241.5L586 261M562.5 241.5H553.75M562.5 241.5L561.5 287M562.5 241.5L568.581 118M545 241.5H553.75M545 241.5L529.5 240.137M545 241.5L543.5 286.5M586 261V258.5C586 254.082 589.581 250.5 594 250.5H597.973C602.469 250.5 606.082 254.204 605.971 258.698L605.5 277.703M586 261L587 302M499.5 237.5L516 238.951M499.5 237.5L490 238.951M499.5 237.5V269.5M516 238.951C524.333 180.467 538 63.5 531.5 63.5C525.536 63.5 509.327 63.5 498 63.5M516 238.951L523 239.566L529.5 240.137M482.5 199L487.215 71.205C487.374 66.9045 490.906 63.5 495.21 63.5C496.065 63.5 496.987 63.5 498 63.5M482.5 199H465M482.5 199H502.164C506.711 199 510.344 202.785 510.157 207.328L509 235.5M498 63.5L498.798 56.1827C499.207 52.4311 502.183 49.4756 505.937 49.0916L521.5 47.5M556.5 24.5L554.967 43.5M554 55.5L559.747 60.9092C561.49 62.5494 562.409 64.8704 562.242 67.2579C560.481 92.5201 556.971 134.6 552.593 169.5C552.301 171.833 551.902 174.536 551.422 177.5M554 55.5L554.463 49.75M554 55.5C553.5 86.2583 547.9 166.247 529.5 240.137M538.5 240.929C540.85 231.408 548.084 198.127 551.422 177.5M531.5 31V36.1585M531.5 31V25.923C531.5 21.3429 535.338 17.6978 539.912 17.9336L554.967 18.7097M531.5 31C541.38 30.6048 551.26 31.3966 554.967 18.7097M521.5 47.5H533.083C537.469 47.5 541.038 51.0206 541.04 55.406C541.046 73.1448 540.556 101.291 538.5 115M521.5 47.5V44.5C521.5 42.8431 522.843 41.5 524.5 41.5V41.5M556.5 5.5C556.5 11.0333 555.951 15.3454 554.967 18.7097M452.5 211.5L438.103 210.161C434.055 209.784 430.933 206.432 430.846 202.368L429.726 150.5L428.68 102M452.5 211.5L465 212.667M452.5 211.5V115M490 238.951V222.645C490 218.575 486.944 215.154 482.901 214.695L465 212.667M490 238.951L477.5 241.5M465 199V212.667M465 199C463.666 166.667 460.8 101 460 97C459.2 93 454.666 91.6667 452.5 91.5M452.5 91.5C452.215 83.1939 451.81 71.9011 451.369 60.4216M452.5 91.5L418.44 71.5M452.5 91.5V115M449 12C449.335 14.1825 449.859 24.2508 450.415 37M426.5 1L427.001 24.25M427.503 47.5L428.453 91.5M427.503 47.5L427.001 24.25M427.503 47.5L451.369 60.4216M427.503 47.5C426.536 51.9458 423.697 60.7517 418.44 71.5M403 97C409.554 88.0935 414.631 79.287 418.44 71.5M403 97L418.44 102M403 97V115M450.713 44C448.778 52.5 441.616 73.9 428.453 91.5M450.713 44C450.614 41.6018 450.514 39.2588 450.415 37M450.713 44C450.934 49.308 451.156 54.8865 451.369 60.4216M428.453 91.5L428.68 102M427.001 24.25L450.415 37M427.001 24.25L428.68 102M418.44 71.5V102M418.44 102L403 115M418.44 102H428.68M403 115V126M428.68 102L452.5 115M403 130.5L396.971 132.966C393.964 134.196 392 137.122 392 140.371V140.5M403 130.5V126M403 130.5L418.44 133M392 146L388.946 148.114C386.788 149.608 385.5 152.066 385.5 154.692V162.5M392 146V140.5M392 146L404.5 142.5M385.5 162.5L383.029 163.488C379.991 164.703 378 167.645 378 170.916V186.5M385.5 162.5H397M760.5 155.5H756M760.5 155.5L764.5 158.447M760.5 155.5C762.166 155.239 765 156.996 763 166.109C761 175.222 734.833 264.833 722 308.5M701.5 155.5V155.5C698.917 155.5 696.726 157.397 696.357 159.954L691.014 197M701.5 155.5L705.052 135.96C705.311 134.538 706.555 133.51 708 133.523V133.523M701.5 155.5H756M760.5 151.5L762.676 138.443C762.879 137.224 762.481 135.981 761.607 135.107V135.107C760.897 134.397 759.938 133.995 758.934 133.986L708 133.523M760 133.5L756 155.5M708 133.523V132.5C708 128.082 711.581 124.5 716 124.5H740.5M764.5 158.447L771.748 129.5M764.5 158.447L770.295 162.718M771.748 129.5V129.5C772.384 126.961 770.463 124.5 767.845 124.5H744.5M771.748 129.5V129.5C776.098 129.5 779.207 133.708 777.93 137.866L775.397 146.109M770.295 162.718L775.397 146.109M770.295 162.718L774.897 166.109M775.397 146.109V146.109C777.775 147.205 779.032 149.841 778.387 152.378L774.897 166.109M774.897 166.109L776.943 167.616C778.585 168.826 779.715 170.616 780.002 172.636C780.263 174.481 780.5 176.571 780.5 178C780.5 178.878 776.929 191.075 771.748 208.305M740.5 124.5L741.845 118.224C741.935 117.802 742.308 117.5 742.74 117.5V117.5C743.18 117.5 743.558 117.186 743.639 116.753L748.827 89M740.5 124.5H744.5M744.5 124.5L750.495 91M354.5 126L348.075 128.141C344.09 129.47 341.811 133.655 342.857 137.723L346.143 150.5M354.5 126L359.227 146M354.5 126H357M403 126H362.5M367.5 181L359.227 146M354.5 183L346.143 150.5M312 90L330 173.5M319 89.5L334.5 175M319 89.5L322 88.5C324 88 328.9 85.5 326.5 83.5M319 89.5L318.5 86.5M326.5 83.5C325.489 82.6581 319.14 83.965 313.5 85C310.766 85.5017 308.349 86.0103 306.499 86.5C305.499 86.7648 303 88 302.5 89.5M326.5 83.5C325.5 79.8333 323.875 71.5 325 68.5C325.337 67.5992 324.125 67.2056 322 67.1495M298 72.5C304.782 67.6495 316.575 67.0065 322 67.1495M322 67.1495V67.1495C322 65.4451 320.558 64.0966 318.862 64.2711C318.743 64.2834 318.622 64.296 318.5 64.309M300 68.5C300.847 68.0763 301.928 67.509 302.999 67.1495M318.5 64.309L319.217 57.5M318.5 64.309C313.898 64.798 307.646 65.5895 302.999 67.1495M319.217 57.5C316.717 56.5637 307.717 56.1528 299.717 60M319.217 57.5L318.5 55M299.717 60L302.999 67.1495M299.717 60L300 57.5M318.5 55C313.499 54 303.499 55.5 300 57.5M318.5 55L317.544 52.8986C316.565 50.7444 314.718 48.9492 312.374 48.6275C311.797 48.5484 311.175 48.4995 310.499 48.5M300 57.5L300.874 53.7107C301.279 51.9551 302.275 50.354 303.975 49.7573C304.503 49.5718 305.03 49.4155 305.5 49.2854M310.499 48.5L305.774 27.0182C305.319 24.9496 306.915 22.5769 306.5 20.5V20.5C305.999 18 303.999 17.8333 302.999 18C301.999 18.1667 300.4 18.5 300 20.5V20.5C299.475 23.1256 302.759 26.1897 303.075 28.8486L305.5 49.2854M310.499 48.5C309.008 48.5012 306.954 48.8827 305.5 49.2854M359.227 146L392 140.5M359.227 146L346.143 150.5M554.463 49.75L547.259 43.4697C545.802 42.1997 543.935 41.5 542.002 41.5H524.5M554.463 49.75L554.967 43.5M554.463 23C555.809 21.5 557.5 14.2 557.5 1M656.5 33.5C657.108 45.9194 654.145 72.2767 650.5 97L649.737 102M606.174 91.5C613.116 89.6667 635.237 91 649.737 102M606.174 91.5L634 76L651.441 68.7327C657.074 66.3858 663.155 70.9554 662.467 77.0184L659.295 105L658.785 109.5L656.518 129.5L645.579 226L641.945 262.522C641.693 265.064 639.554 267 637 267V267M649.737 102L659.125 106.5M649.737 102C641.745 152.808 625.194 221.739 616 262.5M587 302L572.5 288M587 302L600 306.75M616 262.5L609.5 266.5M616 262.5L636.211 263.398C637.707 263.465 639.191 263.11 640.496 262.375L642.047 261.5M605.5 277.703L600 281M605.5 277.703L608.5 276M600 281L641.5 283M600 281V306.75M600 332.5V306.75M608.5 276L609.5 266.5M608.5 276L628.261 277.224C632.574 277.491 636.319 274.286 636.721 269.984L637 267M641.5 283L656.685 274.5M641.5 283V290M609.5 266.5L637 267M404.5 142.5L418.44 146M404.5 142.5V152.5M397 162.5L403.799 164.069C407.428 164.907 410 168.139 410 171.864V190.47C410 193.281 411.474 195.885 413.884 197.33L420 201M397 162.5V181M553.75 241.5L559.839 186.925C560.231 183.409 558.268 180.054 555.011 178.673L554.603 178.5L551.422 177.5M357 126L355.657 120.094C354.954 116.999 356.147 113.78 358.698 111.892L359.227 111.5M357 126H362.5M359.227 111.5L362.5 126M359.227 111.5L403 118M750.495 310.5L777.951 237.752C779.399 233.916 777.712 229.606 774.044 227.772L773.5 227.5M561.5 287L543.5 286.5M561.5 287L572.5 288M554.967 43.5L547.366 37.3993C545.841 36.1756 543.922 35.5526 541.969 35.6478L531.5 36.1585M524.5 41.5V41.5C524.5 38.7 526.697 36.3928 529.494 36.2564L531.5 36.1585M657 213.375C657.333 212.625 659.999 212.1 664 209.5M657 213.375C657.966 213.645 659.97 214.778 661 215M657 213.375L656.685 274.5M656.641 313.5V283M664 209.5C664.188 209.851 668.953 210.886 671.577 211.577C672.527 211.828 673.504 212 674.486 212H678.487C679.16 212 679.83 211.915 680.481 211.747L689.211 209.5M664 209.5V202.5M674.5 311.5L681.576 262.438L688.652 213.375M568.581 118C577.721 113.667 603.3 105.9 632.5 109.5M661 215L667 217.5M661 215V235.5V235.582C661 236.72 661.747 237.724 662.837 238.051V238.051C664.444 238.533 666.075 237.377 666.153 235.702L667 217.5M740.5 310.5C748.954 283.129 762.769 238.161 771.748 208.305M773.5 227.5L746 310.5M773.5 227.5L776.327 219.96C777.358 217.212 776.801 214.12 774.875 211.904L771.748 208.305M689.211 209.5L690.113 203.25M689.211 209.5L688.652 213.375M664 202.5L669.953 198.408C671.286 197.491 672.866 197 674.485 197H691.014M664 202.5L671.949 204.708C672.647 204.902 673.367 205 674.09 205H678.845C679.281 205 679.716 204.964 680.146 204.893L690.113 203.25M691.014 197L690.113 203.25M667 217.5L678.864 216.076C679.287 216.026 679.706 215.941 680.116 215.823L688.652 213.375M543.5 286.5L531.94 293.105C530.361 294.008 528.521 294.345 526.724 294.062L510.5 291.5M572.5 288V350.5M656.685 274.5L656.641 283M647.5 290C647.5 300.544 647.5 317 647.5 317M647.5 290C651.07 287.266 656.641 283 656.641 283M647.5 290C645.157 290 641.5 290 641.5 290M606.174 331L605.634 298.131C605.56 293.662 609.163 290 613.633 290H630H641.5" stroke="white" stroke-width="2" stroke-linecap="round" stroke-linejoin="round"/>
<path d="M118.499 456C110.999 426 96.7993 358.6 99.9993 329C113.166 322.5 149.4 311.4 205 327M118.499 456C121.412 450.903 126.263 443.405 132.711 434.769C134.672 432.143 138.067 431.045 141.215 431.955L189.162 445.813C192.749 446.849 195.459 449.797 196.192 453.458C197.562 460.31 199.837 471.683 201.5 480M118.499 456L97.5 471.5H61.5C58.1863 471.5 55.5 474.186 55.5 477.5V493M118.499 456H137.154C141.656 456 146.084 457.046 150.133 459.013C163.22 465.372 193.351 479.612 201.5 480M209 478C208.167 415.667 208.7 285.6 217.5 264C238.167 262.834 282.6 262.4 311 282M344.5 490C338.579 463.307 328.478 407.167 319.892 334.5M782 316C655.5 292 587.333 338.167 553.5 365.5C491.9 227.5 363.167 179.333 306.5 172.5C306.5 228 314.218 286.475 319.892 334.5M782 316C776 345.5 756.5 409.5 752.5 415.5M782 316C778.871 316.763 776.283 319.104 767 329.5C756.009 341.809 736.149 367.605 717.5 401M752.5 415.5L758 418.55C822.218 385.999 889.26 383.593 923 388.613M752.5 415.5C750.343 414.447 747.649 413.244 744.5 411.966C726.721 404.751 694.442 395.141 662.5 396.5C662.5 414 672.1 454.4 682.5 480M923 388.613C918.667 402.113 907.9 437.8 889.5 467M923 388.613C896.002 397.663 835.526 432.503 782 497.476M765.5 519H920.915C925.925 519 930.887 519.965 935.532 521.843L970.447 535.957C973.71 537.276 976.399 539.709 978.039 542.823V542.823C979.552 545.699 982.535 547.5 985.785 547.5H1011.72C1017.73 547.5 1023.22 550.859 1025.96 556.199L1031.5 567H589V558H153.119C149.444 558 145.84 556.988 142.703 555.074L101.176 529.742C98.7717 528.276 96.0103 527.5 93.1945 527.5V527.5C89.5077 527.5 85.9299 526.249 83.0465 523.951C73.6275 516.445 67.0714 511.221 57.0103 503.204C56.0579 502.445 55.5 501.291 55.5 500.073V493M765.5 519C770.861 511.472 776.378 504.3 782 497.476M765.5 519L752.5 514.827M889.5 467C903.167 473 933.2 487.7 944 498.5M889.5 467H848C840.167 467.984 816 475.457 782 497.476M944 498.5L782 497.476M944 498.5H957.749C961.842 498.5 965.861 499.592 969.391 501.664L982.781 509.523C985.543 511.145 988.689 512 991.892 512H1017.64C1020.18 512 1022.7 512.54 1025.02 513.585L1031.5 516.5M319.892 334.5C278.807 375.234 251.532 419.289 236.5 449.787L313.67 460.626C317.474 461.16 320.636 463.826 321.805 467.485L329 490M201.5 480C219.276 480 245.081 480 254.441 480C256.803 480 259.134 480.419 261.351 481.236L305.994 497.707C308.311 498.561 310.767 498.98 313.237 498.94L675.933 493.137C681.606 493.046 687.256 493.885 692.658 495.619L752.5 514.827M384.5 490C387.979 486.404 443.7 432.8 488.5 408M696.5 490L699.903 482.061C701.478 478.384 705.094 476 709.094 476H737.927C742.86 476 747.056 479.598 747.809 484.473L752.5 514.827M55.5 493H42.5C39.7386 493 37.5 495.239 37.5 498V517.5H23C20.7909 517.5 19 519.291 19 521.5V558H3M553.5 373.5L635 480L612.208 465.945C607.543 463.068 602.035 461.875 596.599 462.562L516.988 472.63C512.293 473.224 508.791 468.402 510.808 464.12L553.5 373.5Z" stroke="white" stroke-width="5" stroke-linecap="round" stroke-linejoin="round"/>
</svg>
