<svg width="533" height="164" viewBox="0 0 533 164" fill="none" xmlns="http://www.w3.org/2000/svg">
<path d="M137.484 55.9173C137.082 54.5157 137.711 53.4962 138.199 53.0366C138.314 52.9285 138.452 52.8566 138.598 52.7973C143.613 50.7651 153.711 46.7553 155.668 46.2943C157.57 45.846 159.983 46.8819 161.08 47.5254C161.171 47.5788 161.253 47.6395 161.333 47.7084C173.939 58.5902 194.753 76.4495 210.235 89.4662M137.484 55.9173C140.716 62.9783 148.12 78.0689 151.876 81.9436C156.57 86.787 163.124 89.0658 171.653 89.7765C180.182 90.4873 182.613 88.4036 189.643 89.1653C195.267 89.7747 201.524 95.2777 203.95 97.953C204.451 98.6802 205.971 100.217 208.04 100.547C210.017 100.863 209.853 98.8431 209.489 97.6565C209.456 97.5501 209.413 97.447 209.344 97.3592C209.059 96.9934 208.301 96.3865 206.888 96.0837C204.872 95.6519 207.72 91.14 211.725 91.2103M137.484 55.9173C137.696 56.6586 142.732 68.2738 149.181 83.0358M171.665 134.302C172.021 134.957 173.036 136.356 174.249 136.715C175.765 137.164 177.781 137.596 179.331 139.044C180.571 140.203 182.626 142.768 183.498 143.906C184.198 144.882 185.609 147.136 185.65 148.335M171.665 134.302C170.237 131.055 168.625 127.388 166.897 123.457M171.665 134.302L166.069 139.495M185.65 148.335C184.001 148.891 180.307 150.117 178.722 150.572C177.416 150.946 177.836 151.51 178.404 151.871C178.638 152.019 178.915 152.073 179.192 152.076C181.23 152.097 184.534 152.054 187.77 151.838M185.65 148.335L211.955 140.074M465.799 103.796L461.809 104.145M465.799 103.796C465.468 104.496 465.138 105.174 464.808 105.831C464.547 106.353 464.285 106.862 464.025 107.358M465.799 103.796L467.839 103.094M428.389 107.068L461.809 104.145M428.389 107.068C428.129 107.209 427.872 107.387 427.617 107.597M428.389 107.068L427.617 107.597M415.05 112.052L369.628 119.461C369.087 119.55 368.605 119.857 368.296 120.311L362.86 128.306M415.05 112.052L407.97 124.456C407.67 124.982 407.147 125.344 406.549 125.439L401.524 126.242M415.05 112.052L421.02 111.078M421.02 111.078L422.57 110.825C422.86 110.778 423.136 110.667 423.379 110.501L427.617 107.597M421.02 111.078L409.276 131.1C409.224 131.189 409.166 131.274 409.1 131.352C407.907 132.765 404.951 135.492 401.855 135.986C399.573 136.35 397.969 135.509 397.047 134.642C396.492 134.12 396.552 133.28 396.991 132.658L401.524 126.242M401.524 126.242L364.3 132.185C362.569 132.461 361.345 130.535 362.33 129.085L362.86 128.306M461.809 104.145L458.021 111.245C457.739 111.774 457.235 112.148 456.648 112.265L450.619 113.468M432.73 117.036L424.605 118.657C423.116 118.954 421.874 117.555 422.44 116.146C423.69 113.029 425.569 109.283 427.617 107.597M432.73 117.036L432.255 123.099C432.147 124.485 433.409 125.413 434.555 124.625C436.816 123.069 440.081 120.063 443.662 114.855M432.73 117.036L443.662 114.855M443.662 114.855L450.619 113.468M450.619 113.468L450.867 120.78C450.916 122.215 452.357 123.007 453.432 122.056C454.489 121.122 455.747 119.823 457.138 118.098M457.138 118.098C459.21 115.531 461.579 112.019 464.025 107.358M457.138 118.098C457.886 120.245 460.125 123.417 463.946 122.889M464.025 107.358C471.602 111.74 469.996 118.053 468.094 120.943C467.965 121.139 467.793 121.304 467.595 121.43C466.249 122.289 465.034 122.738 463.946 122.889M515.865 119.605C519.157 118.326 526.089 114.26 527.485 108.231C529.201 100.822 526.248 98.3278 523.186 95.0187C523.081 94.9053 522.965 94.8031 522.835 94.7198C520.849 93.4486 516.066 91.4478 510.335 91.9079M362.86 128.306C358.374 131.627 345.794 138.091 331.362 137.381C330.61 137.299 329.09 137.299 327.369 137.651M327.369 137.651C326.409 137.848 325.387 138.154 324.4 138.618C321.993 139.748 308.794 146.367 296.296 150.761M327.369 137.651C329.408 133.868 335.438 124.835 343.244 118.966M296.296 150.761C290.897 152.659 285.628 154.142 281.417 154.587C271.564 155.628 220.813 159.149 188.094 161.361M296.296 150.761C298.722 148.543 297.64 140.25 273.902 124.825L272.369 123.876C265.381 119.444 249.107 110.658 239.912 110.971C232.402 111.226 221.404 101.585 214.324 94.0676M210.235 89.4662C214.481 93.0356 218.325 96.2408 221.49 98.8382M210.235 89.4662C210.687 90.0105 211.186 90.5949 211.725 91.2103M266.913 95.8136C295.053 83.743 329.119 69.1266 335.947 66.1838C347.288 61.2959 349.701 58.7125 356.028 53.4946C361.089 49.3203 384.6 35.514 395.723 29.1326C413.47 21.3588 451.144 5.23694 459.871 2.93927C468.187 0.749679 475.836 3.88322 479.052 5.97359M266.913 95.8136C257.743 99.7474 249.201 103.411 242.437 106.312C242.318 106.363 242.205 106.426 242.095 106.496C240.175 107.699 235.281 109.011 229.714 105.314C228.478 104.493 225.542 102.164 221.49 98.8382M266.913 95.8136L221.49 98.8382M157.054 101.028C119.369 101.391 41.5832 101.7 31.9208 100.028C22.2584 98.3547 17.0645 94.6956 15.6754 93.0752C14.4698 91.9488 10.7661 89.9401 5.59624 90.9162C0.860332 91.8104 1.9323 93.123 3.31546 93.8101C3.56399 93.9335 3.79921 94.0851 3.99275 94.284L14.0669 104.636C15.2726 105.763 18.8797 107.875 23.6633 107.312C29.6429 106.609 48.6659 106.963 70.2724 109.731C87.5575 111.945 120.964 114.512 135.507 115.519M157.054 101.028C158.758 104.916 160.468 108.814 162.135 112.613M157.054 101.028C154.35 94.8579 151.661 88.714 149.181 83.0358M135.507 115.519L137.297 113.215C137.679 112.724 138.268 112.438 138.891 112.443L162.135 112.613M135.507 115.519L132.87 118.599C131.788 119.863 132.632 121.818 134.294 121.897L166.897 123.457M162.135 112.613C163.78 116.36 165.383 120.01 166.897 123.457M166.069 139.495L164.64 140.821C164.475 140.974 164.336 141.153 164.237 141.356C163.315 143.253 162.138 147.003 162.433 151.125M166.069 139.495L84.3448 145.759C84.1197 145.776 83.899 145.832 83.6923 145.923L80.408 147.368C78.4261 148.24 79.05 151.2 81.2152 151.198L162.433 151.125M162.433 151.125C162.538 152.59 162.829 154.103 163.384 155.595C165.586 161.524 172.788 162.447 176.114 162.167C179.694 161.928 183.734 161.656 188.094 161.361M438.533 81.7091C436.455 79.4451 429.941 76.1977 420.51 81.321C411.078 86.4442 388.885 102.741 378.968 110.248M479.052 5.97359C479.211 6.07678 479.359 6.17743 479.495 6.27478C480.441 7.04695 481.76 8.0954 483.149 9.15224M479.052 5.97359L478.443 6.72961C477.907 7.39491 477.853 8.32714 478.308 9.05002L479.192 10.4537C480.056 11.8258 482.108 11.6531 482.731 10.1559L483.149 9.15224M483.149 9.15224C485.791 11.1631 488.687 13.2043 489.744 13.4307C491.357 13.7762 498.581 18.3001 501.992 20.5189C504.036 21.7836 507.958 25.3191 507.295 29.3439C506.465 34.375 506.492 49.883 483.997 65.1557C470.346 74.4243 458.948 79.9505 452.148 82.6591C450.433 83.3427 450.336 85.7482 452.104 86.2827C462.11 89.3075 481.43 91.8771 506.656 86.3908C507.944 86.1105 508.593 84.6692 507.963 83.5104L504.41 76.9694C503.71 75.9926 502.709 74.0254 504.308 73.9711C505.863 73.9183 509.421 73.4822 511.144 73.2529C511.24 73.2401 511.334 73.2194 511.428 73.1968C512.145 73.0243 513.53 72.9097 514.303 73.6315C515.129 74.4039 524.557 80.9542 529.168 84.1328C530.368 85.0926 532.075 87.2358 529.304 88.1305C526.857 88.9204 520.195 90.6026 510.335 91.9079M467.839 103.094L496.203 93.3367C496.373 93.2784 496.55 93.2431 496.729 93.2317C500.974 92.9605 504.888 92.5827 508.428 92.1505M467.839 103.094C470.996 103.365 478.119 104.178 481.358 105.268C483.814 106.095 485.771 106.592 486.914 106.836M487.749 106.996C487.875 106.897 488.001 106.804 488.124 106.717C488.307 106.589 488.521 106.501 488.74 106.456C496.258 104.885 498.494 111.311 498.695 114.968C498.703 115.114 498.692 115.259 498.662 115.402C498.028 118.502 496.544 119.826 495.659 120.206C495.476 120.284 495.287 120.355 495.114 120.449C490.149 123.156 486.609 119.747 485.445 117.666M487.749 106.996C485.791 108.268 482.588 112.183 485.445 117.666M487.749 106.996C487.56 106.966 487.279 106.914 486.914 106.836M463.946 122.889C467.55 122.679 476.896 121.34 485.445 117.666M508.428 92.1505C509.073 92.0376 509.71 91.9581 510.335 91.9079M508.428 92.1505C509.076 92.0713 509.712 91.9904 510.335 91.9079M486.914 106.836C490.336 104.467 498.065 99.2977 501.608 97.5764M211.725 91.2103C212.51 92.1064 213.382 93.0683 214.324 94.0676M214.324 94.0676C214.544 95.6485 214.695 99.1203 213.537 100.36C212.378 101.6 212.27 107.241 212.36 109.906C212.394 110.905 211.463 112.938 207.465 113.074C207.298 113.08 206.979 113.491 207.033 115.09C207.101 117.089 205.153 118.656 203.654 118.707C202.155 118.757 201.122 117.792 201.173 119.291M201.173 119.291C201.208 120.341 201.835 123.747 202.26 125.913C202.365 126.45 202.687 126.915 203.145 127.215C207.405 130.003 214.735 135.633 214.855 139.163M201.173 119.291C201.181 118.254 201.445 115.961 202.427 115.09M214.855 139.163L226.735 135.432C228.89 135.026 233.908 134.488 236.747 135.593C239.586 136.697 252.368 138.897 258.404 139.86C260.253 140.297 262.959 141.406 258.989 142.341C255.018 143.276 250.728 144.623 249.079 145.179C248.585 145.363 247.197 145.743 245.598 145.798C243.6 145.866 199.71 149.858 194.247 151.045C192.473 151.43 190.14 151.68 187.77 151.838M214.855 139.163L211.955 140.074M211.955 140.074C210.151 136.754 204.744 130.176 197.548 130.421C196.882 130.443 195.536 130.089 195.482 128.49C195.414 126.491 195.125 117.996 191.406 111.618C188.431 106.516 183.955 103.367 182.089 102.429C179.817 101.339 173.803 98.9088 167.927 97.9078C162.051 96.9067 152.981 87.576 149.181 83.0358M187.77 151.838C188.517 154.191 189.627 159.389 188.094 161.361" stroke="url(#paint0_linear_1322_256)" stroke-width="3" stroke-linecap="round" stroke-linejoin="round"/>
<defs>
<linearGradient id="paint0_linear_1322_256" x1="483" y1="-20.5" x2="-111.725" y2="218.143" gradientUnits="userSpaceOnUse">
<stop stop-color="#94A3B8" stop-opacity="0.85"/>
<stop offset="1" stop-color="#424952" stop-opacity="0.9"/>
</linearGradient>
</defs>
</svg>
