<svg width="465" height="383" viewBox="0 0 465 383" fill="none" xmlns="http://www.w3.org/2000/svg">
<g filter="url(#filter0_d_1322_330)">
<g style="mix-blend-mode:plus-darker">
<path fill-rule="evenodd" clip-rule="evenodd" d="M8.13093 201.602C7.43428 200.307 7.46667 198.786 8.2886 197.566C50.9816 134.237 180.179 12.4328 368.192 14.9626C369.61 14.9817 370.927 15.7583 371.623 16.9935L456.389 167.527C457.078 168.751 457.108 170.196 456.399 171.409C417.598 237.894 293.8 366.135 97.8709 364.032C96.4219 364.016 95.0747 363.209 94.3881 361.933L8.13093 201.602ZM346.646 71.5693C345.939 70.293 344.58 69.5006 343.121 69.5167C212.17 70.9693 111.998 159.708 76.4883 206.033C75.5509 207.256 75.4563 208.868 76.1731 210.232L125.342 303.797C126.051 305.146 127.48 305.976 129.003 305.924C262.981 301.328 361.361 211.178 395.556 164.499C396.466 163.256 396.525 161.642 395.779 160.295L346.646 71.5693Z" stroke="black" stroke-opacity="0.45" stroke-width="3" stroke-linejoin="round"/>
</g>
<path opacity="0.13" d="M222.405 109.969C223.454 110.679 224.525 111.459 225.62 112.307C226.762 113.272 227.927 114.278 229.114 115.323C230.347 116.406 231.601 117.481 232.876 118.549C234.192 119.555 235.525 120.506 236.875 121.404C238.257 122.16 239.652 122.834 241.059 123.426C242.487 123.85 243.921 124.197 245.36 124.467C246.807 124.61 248.252 124.711 249.697 124.771C251.133 124.801 252.561 124.843 253.98 124.898C255.375 125.036 256.753 125.24 258.116 125.508C259.44 125.943 260.741 126.472 262.02 127.095C263.248 127.906 264.448 128.801 265.619 129.781C266.73 130.897 267.809 132.053 268.855 133.251C269.835 134.473 270.782 135.674 271.696 136.853C272.544 137.93 273.358 138.929 274.139 139.851C275.488 140.997 276.755 141.842 277.94 142.386C276.868 143.594 275.775 144.802 274.659 146.009C273.574 147.217 272.539 148.425 271.555 149.633C270.739 150.841 270.033 152.049 269.438 153.257C269.102 154.466 268.908 155.674 268.855 156.882C269.089 158.09 269.458 159.298 269.961 160.506C270.703 161.714 271.539 162.922 272.468 164.129C273.525 165.337 274.61 166.545 275.723 167.753C276.819 168.961 277.87 170.17 278.876 171.378C279.727 172.586 280.472 173.794 281.109 175.002C281.493 176.21 281.736 177.418 281.839 178.626C281.656 179.835 281.336 181.043 280.878 182.251C280.174 183.459 279.372 184.667 278.471 185.875C277.432 187.082 276.359 188.29 275.25 189.498C274.146 190.706 273.08 191.914 272.052 193.122C271.17 194.33 270.39 195.539 269.711 196.747C269.28 197.955 268.987 199.163 268.833 200.371C267.895 201.777 266.992 203.04 266.124 204.159C264.6 205.161 263.155 205.651 261.79 205.629C260.615 204.572 259.473 203.52 258.363 202.474C257.275 202.517 256.169 203.101 255.045 204.224C254.442 205.441 253.823 206.813 253.188 208.34C252.513 210.082 251.817 211.877 251.097 213.723C250.33 215.544 249.538 217.29 248.72 218.962C247.849 220.372 246.951 221.608 246.027 222.671C245.048 223.335 244.043 223.793 243.012 224.046C241.93 223.917 240.824 223.632 239.693 223.193C238.519 222.541 237.324 221.847 236.109 221.109C234.859 220.419 233.594 219.817 232.314 219.305C231.01 219.087 229.696 219.056 228.374 219.214C226.721 218.714 225.009 218.752 223.236 219.328C222.279 220.018 221.3 220.728 220.3 221.458C219.263 222.092 218.206 222.618 217.13 223.035C216.02 223.135 214.894 223.044 213.752 222.762C212.583 222.07 211.402 221.181 210.209 220.094C208.996 218.667 207.777 217.114 206.55 215.434C205.313 213.613 204.074 211.785 202.833 209.949C201.59 208.223 200.35 206.609 199.111 205.107C197.881 203.916 196.656 202.91 195.436 202.089C194.233 201.655 193.038 201.405 191.852 201.34C190.685 201.585 189.529 201.941 188.385 202.408C187.264 202.99 186.154 203.569 185.056 204.145C183.982 204.598 182.919 204.938 181.866 205.165C180.837 205.087 179.818 204.832 178.809 204.399C177.818 203.602 176.836 202.635 175.861 201.498C175.89 200.281 175.945 199.063 176.026 197.844C176.153 196.627 176.3 195.41 176.466 194.192C176.659 192.975 176.86 191.758 177.069 190.541C177.277 189.323 177.479 188.106 177.675 186.889C177.845 185.671 177.995 184.454 178.127 183.237C178.214 182.02 178.275 180.802 178.309 179.585C178.29 178.368 178.244 177.15 178.172 175.933C178.051 174.716 177.911 173.499 177.751 172.281C177.562 171.063 177.364 169.845 177.158 168.628C176.949 167.41 176.744 166.193 176.545 164.976C176.37 163.758 176.212 162.541 176.073 161.324C175.979 160.107 175.909 158.889 175.865 157.672C175.875 156.455 175.912 155.237 175.975 154.02C176.087 152.803 176.22 151.586 176.373 150.368C176.559 149.151 176.753 147.934 176.957 146.716C177.167 145.499 177.373 144.282 177.576 143.065C178.721 142.769 179.868 142.37 181.018 141.867C182.169 141.15 183.32 140.335 184.471 139.421C185.615 138.349 186.755 137.223 187.891 136.042C189.013 134.816 190.128 133.599 191.237 132.391C192.325 131.263 193.402 130.201 194.469 129.204C195.511 128.379 196.541 127.647 197.558 127.011C199.49 126.356 201.377 125.898 203.221 125.637C204.924 125.523 206.59 125.294 208.22 124.949C208.998 124.538 209.77 124.043 210.533 123.464C211.286 122.717 212.036 121.898 212.784 121.006C213.53 120.001 214.28 118.963 215.032 117.891C215.795 116.801 216.565 115.728 217.343 114.672C218.142 113.696 218.954 112.776 219.78 111.914C221.083 110.905 221.958 110.257 222.405 109.969Z" stroke="url(#paint0_linear_1322_330)" stroke-opacity="0.28" stroke-width="2" stroke-linecap="round" stroke-dasharray="8 8"/>
<path opacity="0.77" d="M226.811 111.971C227.869 112.732 228.942 113.561 230.03 114.459C231.15 115.473 232.285 116.528 233.436 117.625C234.619 118.766 235.818 119.906 237.031 121.044C238.277 122.135 239.536 123.181 240.808 124.18C242.108 125.054 243.419 125.854 244.741 126.577C246.078 127.142 247.421 127.63 248.768 128.04C250.119 128.314 251.465 128.538 252.807 128.711C254.133 128.826 255.446 128.937 256.746 129.044C258.008 129.195 259.249 129.392 260.467 129.636C261.631 130.013 262.764 130.471 263.867 131.011C264.905 131.724 265.909 132.525 266.878 133.414C267.778 134.454 268.644 135.554 269.476 136.712C270.243 137.941 270.98 139.177 271.685 140.421C272.336 141.62 272.963 142.77 273.565 143.87C274.637 145.494 275.667 146.826 276.654 147.865C275.526 148.96 274.398 150.056 273.269 151.152C272.203 152.252 271.198 153.357 270.256 154.466C269.488 155.588 268.829 156.718 268.281 157.855C267.976 159.009 267.803 160.172 267.76 161.345C267.973 162.535 268.307 163.734 268.76 164.942C269.42 166.165 270.159 167.394 270.979 168.627C271.906 169.868 272.855 171.111 273.824 172.355C274.774 173.597 275.682 174.837 276.547 176.074C277.271 177.3 277.9 178.521 278.433 179.735C278.736 180.932 278.914 182.12 278.966 183.3C278.757 184.46 278.421 185.612 277.958 186.755C277.265 187.882 276.476 189.002 275.592 190.116C274.564 191.219 273.494 192.319 272.381 193.416C271.246 194.511 270.131 195.608 269.037 196.707C268.048 197.813 267.138 198.925 266.308 200.042C265.683 201.174 265.178 202.313 264.792 203.462C263.737 204.393 262.726 205.166 261.758 205.781C260.114 205.903 258.578 205.639 257.153 204.989C255.153 203.445 253.46 202.63 252.075 202.545C251.491 203.225 250.891 204.079 250.275 205.104C249.627 206.429 248.961 207.868 248.276 209.421C247.556 211.108 246.821 212.807 246.068 214.519C245.287 216.144 244.491 217.673 243.683 219.106C242.852 220.259 242.01 221.24 241.157 222.048C239.377 222.376 237.559 222.217 235.703 221.572C234.721 220.863 233.72 220.125 232.7 219.357C231.635 218.648 230.546 218.025 229.432 217.489C228.266 217.224 227.074 217.13 225.857 217.209C224.139 216.563 222.326 216.411 220.418 216.754C219.368 217.311 218.299 217.896 217.21 218.509C216.092 219.061 214.964 219.526 213.828 219.905C212.682 220.019 211.537 219.966 210.393 219.746C209.254 219.159 208.122 218.385 206.996 217.426C205.882 216.128 204.775 214.694 203.675 213.124C202.586 211.369 201.502 209.573 200.42 207.737C199.343 205.932 198.267 204.197 197.191 202.531C196.111 201.096 195.028 199.813 193.943 198.682C192.851 197.894 191.757 197.283 190.661 196.85C189.565 196.745 188.47 196.779 187.375 196.95C186.292 197.32 185.215 197.74 184.147 198.21C183.101 198.676 182.071 199.089 181.054 199.45C179.148 199.347 177.297 198.785 175.503 197.765C175.649 196.595 175.82 195.427 176.016 194.259C176.253 193.096 176.507 191.933 176.777 190.771C177.07 189.611 177.367 188.452 177.668 187.292C177.964 186.132 178.251 184.972 178.531 183.812C178.779 182.648 179.008 181.484 179.218 180.318C179.379 179.148 179.514 177.977 179.623 176.805C179.679 175.627 179.708 174.449 179.711 173.269C179.666 172.086 179.602 170.9 179.518 169.713C179.404 168.525 179.282 167.336 179.152 166.145C179.017 164.955 178.887 163.766 178.761 162.577C178.657 161.388 178.569 160.202 178.498 159.016C178.47 157.833 178.467 156.652 178.49 155.474C178.565 154.298 178.667 153.124 178.795 151.953C178.974 150.786 179.176 149.619 179.401 148.454C179.662 147.292 179.935 146.131 180.222 144.971C180.522 143.811 180.821 142.652 181.12 141.493C182.263 141.045 183.416 140.498 184.578 139.851C185.758 139.023 186.944 138.122 188.136 137.147C189.333 136.075 190.529 134.981 191.724 133.866C192.908 132.767 194.085 131.705 195.253 130.68C196.398 129.774 197.528 128.947 198.644 128.198C199.726 127.626 200.791 127.144 201.838 126.752C203.804 126.487 205.718 126.361 207.579 126.374C209.298 126.361 210.987 126.199 212.646 125.89C213.45 125.484 214.248 124.995 215.042 124.425C215.828 123.701 216.611 122.911 217.393 122.056C218.17 121.105 218.948 120.128 219.725 119.124C220.5 118.115 221.275 117.126 222.052 116.156C222.832 115.269 223.615 114.439 224.401 113.667C225.602 112.783 226.406 112.218 226.811 111.971Z" stroke="url(#paint1_linear_1322_330)" stroke-opacity="0.28" stroke-width="2" stroke-linecap="round" stroke-dasharray="6 11"/>
<path opacity="0.74" d="M231.253 114.338C232.296 115.152 233.347 116.032 234.405 116.978C235.476 118.036 236.555 119.137 237.64 120.28C238.744 121.471 239.855 122.666 240.974 123.864C242.113 125.027 243.262 126.152 244.421 127.24C245.6 128.216 246.788 129.124 247.983 129.965C249.194 130.656 250.41 131.271 251.628 131.809C252.849 132.207 254.065 132.547 255.278 132.831C256.473 133.031 257.654 133.212 258.82 133.373C259.946 133.542 261.046 133.738 262.121 133.96C263.136 134.276 264.117 134.659 265.064 135.106C265.937 135.706 266.772 136.386 267.57 137.147C268.29 138.066 268.974 139.053 269.621 140.11C270.2 141.272 270.748 142.466 271.266 143.69C271.734 144.928 272.183 146.146 272.611 147.344C273.391 149.345 274.159 151.102 274.916 152.616C273.768 153.595 272.637 154.578 271.524 155.562C270.498 156.56 269.541 157.566 268.652 158.583C267.941 159.625 267.334 160.681 266.831 161.753C266.558 162.857 266.401 163.977 266.361 165.113C266.55 166.282 266.844 167.467 267.242 168.666C267.816 169.89 268.458 171.124 269.167 172.367C269.964 173.623 270.777 174.881 271.607 176.142C272.413 177.399 273.18 178.651 273.907 179.897C274.508 181.125 275.023 182.341 275.454 183.545C275.679 184.719 275.792 185.878 275.793 187.021C275.559 188.131 275.21 189.224 274.745 190.3C274.067 191.347 273.298 192.38 272.436 193.401C271.431 194.401 270.378 195.394 269.275 196.38C268.13 197.361 266.991 198.342 265.858 199.323C264.793 200.315 263.787 201.315 262.84 202.323C262.056 203.355 261.372 204.4 260.788 205.46C258.744 205.873 256.846 205.891 255.093 205.514C253.72 204.374 252.415 203.248 251.178 202.135C250.001 201.889 248.8 202.076 247.575 202.698C246.912 203.56 246.232 204.565 245.533 205.711C244.804 207.085 244.06 208.534 243.303 210.058C242.523 211.642 241.737 213.206 240.945 214.751C240.149 216.163 239.354 217.465 238.562 218.658C237.01 219.974 235.472 220.788 233.947 221.1C233.189 220.717 232.426 220.224 231.657 219.621C230.864 218.883 230.053 218.127 229.224 217.354C228.343 216.648 227.432 216.025 226.489 215.484C225.474 215.189 224.42 215.05 223.327 215.066C221.548 214.266 219.652 213.916 217.638 214.016C216.52 214.43 215.382 214.88 214.226 215.365C213.048 215.818 211.868 216.205 210.687 216.528C209.516 216.635 208.359 216.601 207.216 216.426C206.107 215.927 205.019 215.259 203.952 214.422C202.929 213.262 201.926 211.963 200.944 210.523C199.998 208.87 199.065 207.153 198.145 205.372C197.242 203.556 196.343 201.771 195.447 200.017C194.547 198.415 193.64 196.927 192.726 195.553C191.792 194.464 190.847 193.533 189.892 192.76C187.909 192.273 185.909 192.148 183.893 192.386C182.888 192.752 181.892 193.121 180.905 193.493C178.328 193.045 176.825 191.9 176.396 190.056C176.734 188.962 177.085 187.869 177.449 186.778C177.828 185.689 178.209 184.6 178.591 183.512C178.965 182.422 179.327 181.331 179.677 180.238C179.995 179.14 180.293 178.039 180.569 176.936C180.798 175.826 181 174.712 181.176 173.594C181.299 172.468 181.396 171.34 181.467 170.207C181.493 169.068 181.499 167.926 181.487 166.782C181.444 165.633 181.393 164.483 181.333 163.331C181.269 162.18 181.208 161.028 181.15 159.877C181.113 158.729 181.091 157.583 181.083 156.439C181.116 155.301 181.173 154.167 181.253 153.035C181.385 151.911 181.544 150.791 181.728 149.674C181.965 148.565 182.226 147.46 182.509 146.357C182.834 145.261 183.174 144.166 183.529 143.074C183.905 141.984 184.284 140.895 184.666 139.807C185.829 139.213 187.008 138.539 188.201 137.783C189.421 136.899 190.648 135.972 191.883 135.004C193.124 134.003 194.363 133.011 195.6 132.03C196.823 131.119 198.033 130.265 199.231 129.468C200.398 128.815 201.547 128.245 202.676 127.757C203.766 127.439 204.835 127.2 205.882 127.039C207.841 127.116 209.75 127.275 211.609 127.516C213.356 127.573 215.084 127.459 216.793 127.173C217.636 126.773 218.478 126.296 219.318 125.742C220.154 125.048 220.988 124.296 221.82 123.487C222.647 122.597 223.468 121.687 224.285 120.757C225.089 119.831 225.888 118.928 226.682 118.046C228.975 116.097 230.498 114.861 231.253 114.338Z" stroke="url(#paint2_linear_1322_330)" stroke-opacity="0.28" stroke-width="2" stroke-linecap="round" stroke-dasharray="8 11"/>
<path opacity="0.77" d="M235.623 117.094C236.626 117.958 237.625 118.883 238.623 119.871C239.617 120.966 240.609 122.102 241.6 123.279C242.592 124.506 243.586 125.74 244.581 126.981C245.582 128.197 246.59 129.38 247.602 130.532C248.629 131.59 249.661 132.586 250.701 133.52C251.753 134.316 252.81 135.038 253.871 135.687C254.935 136.195 255.998 136.64 257.059 137.022C258.107 137.305 259.142 137.554 260.164 137.772C262.061 138.198 263.87 138.706 265.592 139.297C266.949 140.469 268.187 141.857 269.308 143.462C269.737 144.499 270.134 145.584 270.501 146.718C270.816 147.914 271.111 149.117 271.386 150.329C271.638 151.512 271.885 152.659 272.126 153.768C271.939 155.619 271.091 157.412 269.584 159.146C268.615 160.046 267.719 160.962 266.894 161.893C266.243 162.861 265.689 163.851 265.232 164.862C264.985 165.917 264.841 166.994 264.802 168.093C264.962 169.236 265.212 170.397 265.551 171.578C266.039 172.791 266.582 174.016 267.182 175.254C267.853 176.506 268.534 177.761 269.227 179.017C269.895 180.269 270.528 181.513 271.124 182.749C271.608 183.961 272.015 185.157 272.346 186.337C272.498 187.478 272.551 188.597 272.504 189.695C272.247 190.748 271.887 191.778 271.423 192.787C270.765 193.753 270.019 194.701 269.187 195.631C268.214 196.531 267.19 197.42 266.115 198.297C264.979 199.161 263.839 200.024 262.693 200.886C261.582 201.755 260.513 202.634 259.485 203.521C257.671 204.883 255.828 205.647 253.956 205.814C252.328 204.727 250.797 203.56 249.361 202.313C248.061 201.544 246.75 201.11 245.428 201.008C244.723 201.44 244 202.016 243.26 202.735C242.485 203.719 241.693 204.812 240.887 206.015C240.056 207.375 239.219 208.774 238.376 210.213C237.534 211.648 236.697 213.041 235.866 214.391C235.059 215.575 234.269 216.645 233.495 217.601C231.134 218.27 229.174 218.17 227.616 217.301C226.314 215.842 224.933 214.489 223.473 213.24C221.711 212.569 219.915 211.853 218.085 211.091C217.064 210.973 216.003 210.97 214.904 211.081C213.748 211.351 212.572 211.661 211.377 212.011C210.166 212.356 208.958 212.654 207.754 212.906C206.576 212.989 205.421 212.957 204.287 212.81C203.21 212.384 202.167 211.81 201.157 211.087C200.216 210.066 199.307 208.909 198.432 207.617C197.618 206.099 196.827 204.499 196.061 202.819C195.329 201.054 194.607 199.287 193.895 197.517C193.186 195.827 192.472 194.214 191.753 192.677C191.008 191.358 190.246 190.169 189.469 189.111C187.779 187.985 186.038 187.25 184.245 186.903C182.377 187.356 180.527 187.837 178.695 188.347C177.606 187.887 177.144 186.867 177.31 185.287C177.735 184.275 178.169 183.265 178.613 182.257C179.065 181.25 179.517 180.243 179.968 179.236C180.403 178.227 180.826 177.214 181.236 176.199C181.612 175.175 181.966 174.147 182.299 173.115C182.584 172.073 182.844 171.025 183.078 169.971C183.26 168.907 183.417 167.837 183.549 166.762C183.638 165.677 183.709 164.588 183.761 163.496C183.783 162.397 183.798 161.297 183.804 160.193C183.803 159.09 183.806 157.987 183.812 156.885C183.833 155.785 183.87 154.689 183.92 153.597C184.007 152.512 184.116 151.432 184.248 150.355C184.427 149.291 184.633 148.231 184.865 147.178C185.148 146.134 185.454 145.096 185.785 144.064C186.159 143.041 186.551 142.021 186.96 141.004C187.395 139.995 187.838 138.986 188.288 137.98C189.484 137.284 190.698 136.535 191.928 135.732C193.181 134.864 194.44 133.987 195.705 133.1C196.967 132.24 198.223 131.415 199.472 130.627C200.696 129.948 201.904 129.337 203.094 128.794C204.247 128.406 205.378 128.096 206.486 127.866C207.549 127.785 208.592 127.768 209.614 127.816C211.533 128.177 213.414 128.567 215.255 128.983C217.036 129.089 218.816 129.01 220.595 128.745C221.489 128.36 222.385 127.903 223.282 127.376C224.18 126.723 225.076 126.021 225.971 125.269C226.855 124.45 227.732 123.618 228.603 122.772C229.452 121.936 230.29 121.124 231.115 120.335C233.391 118.628 234.894 117.547 235.623 117.094Z" stroke="url(#paint3_linear_1322_330)" stroke-opacity="0.28" stroke-width="2" stroke-linecap="round"/>
<path opacity="0.99" d="M239.787 120.229C241.627 122.149 243.425 124.264 245.182 126.575C246.881 129.079 248.573 131.549 250.258 133.985C251.968 136.096 253.7 137.956 255.456 139.567C257.242 140.634 259.016 141.482 260.78 142.111C262.436 142.53 263.995 142.989 265.456 143.487C266.644 144.329 267.677 145.424 268.555 146.773C269.14 148.638 269.613 150.688 269.974 152.923C270.225 155.257 270.486 157.486 270.757 159.608C268.655 161.144 266.777 162.746 265.125 164.412C264.123 166.267 263.488 168.227 263.22 170.294C263.626 172.558 264.278 174.893 265.177 177.298C266.289 179.765 267.352 182.218 268.363 184.656C268.976 186.98 269.279 189.213 269.271 191.355C268.535 193.287 267.451 195.118 266.02 196.848C264.052 198.422 261.946 199.958 259.704 201.454C257.501 202.96 255.47 204.517 253.612 206.123C251.718 205.119 249.972 203.939 248.375 202.583C246.93 201.381 245.487 200.498 244.044 199.933C242.491 200.331 240.86 201.241 239.152 202.663C237.322 204.89 235.477 207.294 233.618 209.874C231.854 212.254 230.193 214.281 228.634 215.954C227.332 216.608 226.147 216.74 225.078 216.351C224.139 215.186 223.181 213.883 222.206 212.439C221.015 211.291 219.641 210.539 218.086 210.183C216.329 208.941 214.386 208.191 212.258 207.93C209.895 208.275 207.508 208.65 205.095 209.056C202.82 208.97 200.686 208.436 198.694 207.453C197.046 205.433 195.559 202.972 194.232 200.069C193.121 196.691 192.045 193.344 191.003 190.027C189.884 187.285 188.675 185.004 187.377 183.184C185.867 182.369 184.273 181.961 182.596 181.958C180.481 181.546 179.738 180.022 180.366 177.386C181.382 175.551 182.36 173.706 183.302 171.85C184.1 169.952 184.806 168.028 185.419 166.077C185.836 164.069 186.171 162.037 186.423 159.982C186.569 157.895 186.701 155.804 186.819 153.709C186.994 151.631 187.235 149.572 187.543 147.532C188.03 145.545 188.616 143.586 189.3 141.655C190.157 139.774 191.075 137.911 192.053 136.066C194.534 134.568 197.039 133.064 199.568 131.554C202.038 130.338 204.438 129.379 206.77 128.676C208.924 128.549 210.994 128.66 212.98 129.009C214.842 129.598 216.677 130.159 218.484 130.694C220.299 130.896 222.137 130.845 223.998 130.539C225.909 129.689 227.827 128.625 229.752 127.347C231.633 125.862 233.458 124.406 235.226 122.982C237.551 121.498 239.071 120.581 239.787 120.229Z" stroke="url(#paint4_linear_1322_330)" stroke-opacity="0.28" stroke-width="2" stroke-linecap="round" stroke-dasharray="10 1"/>
<path opacity="0.51" d="M243.597 123.699C245.223 125.653 246.778 127.784 248.262 130.092C249.639 132.584 250.99 135.054 252.314 137.501C253.644 139.673 254.998 141.62 256.375 143.342C257.806 144.549 259.247 145.526 260.696 146.271C262.095 146.73 263.424 147.165 264.685 147.578C265.721 148.198 266.618 149.02 267.374 150.044C267.843 151.558 268.19 153.292 268.416 155.247C268.499 157.47 268.575 159.7 268.645 161.938C266.683 163.29 264.952 164.727 263.451 166.249C262.554 167.992 261.976 169.853 261.719 171.832C262.032 174.021 262.545 176.283 263.26 178.619C264.138 181.016 264.967 183.395 265.745 185.754C266.172 187.986 266.331 190.118 266.221 192.151C265.478 193.951 264.423 195.637 263.057 197.208C261.189 198.595 259.171 199.926 257.004 201.202C254.796 202.462 252.698 203.764 250.71 205.107C248.975 203.697 247.327 202.285 245.765 200.872C244.222 199.888 242.627 199.288 240.979 199.072C239.156 199.781 237.252 200.915 235.267 202.477C233.2 204.604 231.158 206.798 229.141 209.059C227.316 210.987 225.641 212.556 224.115 213.766C222.93 214.06 221.893 213.915 221.004 213.331C220.282 212.139 219.553 210.858 218.817 209.489C217.87 208.423 216.736 207.71 215.416 207.351C213.719 205.983 211.835 205.053 209.765 204.562C207.46 204.647 205.131 204.798 202.779 205.015C200.578 204.891 198.532 204.411 196.642 203.574C195.145 201.842 193.84 199.692 192.727 197.126C191.905 194.002 191.151 190.81 190.468 187.551C189.754 184.613 188.954 182.017 188.067 179.766C186.928 178.394 185.663 177.442 184.272 176.912C182.418 176.276 181.903 174.784 182.728 172.438C183.824 170.788 184.878 169.123 185.889 167.443C186.754 165.708 187.53 163.941 188.217 162.14C188.72 160.273 189.145 158.376 189.492 156.45C189.739 154.489 189.971 152.522 190.188 150.549C190.453 148.593 190.776 146.659 191.157 144.747C191.702 142.894 192.34 141.076 193.071 139.292C193.975 137.573 194.947 135.877 195.984 134.205C198.467 132.867 200.94 131.627 203.401 130.482C205.745 129.756 208.003 129.294 210.174 129.096C212.167 129.401 214.089 129.878 215.94 130.529C217.718 131.284 219.498 131.961 221.281 132.558C223.129 132.779 225.026 132.754 226.972 132.481C228.997 131.719 231.036 130.776 233.09 129.651C235.094 128.372 237.031 127.128 238.903 125.922C241.305 124.715 242.87 123.974 243.597 123.699Z" stroke="url(#paint5_linear_1322_330)" stroke-opacity="0.28" stroke-width="2" stroke-linecap="round" stroke-dasharray="3 1"/>
<path opacity="0.75" d="M246.921 127.424C248.291 129.371 249.568 131.474 250.751 133.733C251.787 136.162 252.784 138.577 253.74 140.98C254.688 143.153 255.661 145.131 256.66 146.913C257.735 148.22 258.843 149.299 259.984 150.149C261.137 150.662 262.256 151.103 263.34 151.473C264.27 151.927 265.085 152.524 265.785 153.264C266.223 154.425 266.536 155.814 266.724 157.43C266.731 159.417 266.704 161.504 266.644 163.691C264.849 164.888 263.279 166.187 261.934 167.587C261.131 169.231 260.602 170.998 260.349 172.889C260.568 174.993 260.949 177.17 261.491 179.42C262.153 181.722 262.766 184.003 263.33 186.263C263.59 188.385 263.62 190.404 263.42 192.318C262.674 193.988 261.655 195.535 260.362 196.958C258.607 198.173 256.699 199.319 254.638 200.396C252.473 201.427 250.368 202.484 248.322 203.567C246.711 202.018 245.111 200.605 243.522 199.328C241.823 198.644 240.028 198.353 238.136 198.455C236.038 199.365 233.87 200.598 231.63 202.157C229.372 204.059 227.18 205.94 225.055 207.802C223.207 209.249 221.547 210.355 220.074 211.118C218.997 211.087 218.085 210.699 217.339 209.956C216.781 208.757 216.221 207.514 215.659 206.227C214.895 205.246 213.948 204.581 212.818 204.231C211.235 202.76 209.469 201.68 207.52 200.99C205.336 200.845 203.127 200.794 200.892 200.835C198.801 200.667 196.866 200.226 195.087 199.513C193.719 198.058 192.564 196.226 191.621 194.016C191.03 191.219 190.545 188.284 190.166 185.211C189.822 182.236 189.414 179.486 188.941 176.961C188.215 175.128 187.338 173.683 186.31 172.624C184.843 171.529 184.618 169.899 185.635 167.735C186.785 166.27 187.887 164.783 188.941 163.275C189.853 161.702 190.679 160.091 191.419 158.441C191.99 156.715 192.49 154.957 192.918 153.167C193.252 151.334 193.57 149.495 193.873 147.648C194.213 145.818 194.604 144.011 195.045 142.227C195.633 140.507 196.307 138.827 197.066 137.186C197.993 135.62 198.989 134.086 200.055 132.583C202.458 131.547 204.812 130.68 207.116 129.98C209.254 129.747 211.299 129.758 213.252 130.013C215.045 130.664 216.79 131.421 218.488 132.286C220.177 133.138 221.9 133.875 223.658 134.497C225.539 134.728 227.489 134.729 229.508 134.501C231.633 133.851 233.777 133.052 235.94 132.106C238.049 131.051 240.086 130.039 242.052 129.071C244.548 128.163 246.171 127.614 246.921 127.424Z" stroke="url(#paint6_linear_1322_330)" stroke-opacity="0.28" stroke-width="2" stroke-linecap="round" stroke-dasharray="10 2"/>
<path opacity="0.15" d="M249.637 131.29C250.728 133.185 251.709 135.215 252.582 137.381C253.282 139.697 253.933 142.009 254.533 144.317C255.116 146.44 255.725 148.398 256.361 150.188C257.097 151.559 257.887 152.715 258.731 153.654C260.536 154.599 262.228 155.514 263.806 156.4C264.278 157.25 264.631 158.309 264.866 159.574C264.894 161.251 264.858 163.088 264.758 165.086C263.144 166.161 261.739 167.349 260.545 168.65C259.826 170.207 259.337 171.888 259.08 173.694C259.206 175.706 259.459 177.786 259.838 179.934C260.302 182.126 260.72 184.294 261.091 186.438C261.2 188.441 261.115 190.339 260.836 192.133C260.092 193.677 259.112 195.093 257.895 196.381C256.261 197.446 254.476 198.43 252.542 199.333C250.464 200.159 248.404 200.994 246.362 201.839C244.798 200.376 243.173 199.136 241.488 198.12C239.589 197.748 237.568 197.733 235.426 198.075C233.085 199.059 230.697 200.263 228.261 201.687C225.881 203.261 223.608 204.751 221.44 206.157C219.619 207.12 218.01 207.772 216.612 208.112C215.635 207.79 214.827 207.191 214.189 206.315C213.741 205.118 213.293 203.915 212.845 202.707C212.205 201.804 211.391 201.18 210.401 200.837C208.98 199.299 207.383 198.108 205.61 197.262C203.604 196.927 201.565 196.703 199.492 196.59C197.543 196.378 195.739 195.968 194.081 195.362C192.824 194.165 191.788 192.64 190.972 190.787C190.548 188.36 190.262 185.752 190.114 182.962C190.079 180.097 190.013 177.346 189.916 174.709C189.606 172.555 189.143 170.719 188.525 169.201C187.573 167.53 187.706 165.66 188.925 163.592C190.103 162.303 191.23 160.986 192.307 159.642C193.246 158.222 194.105 156.761 194.884 155.257C195.509 153.67 196.07 152.047 196.565 150.389C196.973 148.686 197.366 146.974 197.742 145.253C198.148 143.547 198.595 141.864 199.084 140.203C199.702 138.612 200.397 137.063 201.17 135.554C202.099 134.131 203.1 132.746 204.172 131.399C206.395 130.762 208.538 130.327 210.6 130.096C212.47 130.315 214.253 130.736 215.949 131.359C217.528 132.255 219.09 133.198 220.636 134.187C222.239 135.073 223.908 135.823 225.642 136.437C227.547 136.672 229.537 136.703 231.611 136.531C233.808 136.009 236.028 135.373 238.269 134.623C240.455 133.807 242.566 133.04 244.602 132.321C247.185 131.731 248.864 131.388 249.637 131.29Z" stroke="url(#paint7_linear_1322_330)" stroke-opacity="0.28" stroke-width="2" stroke-linecap="round" stroke-dasharray="2 4"/>
<path opacity="0.78" d="M251.673 135.171C252.48 136.971 253.169 138.887 253.74 140.918C254.126 143.083 254.456 145.251 254.73 147.421C254.981 149.451 255.26 151.346 255.567 153.105C255.991 154.506 256.486 155.713 257.051 156.727C258.522 157.759 259.996 158.654 261.472 159.41C262.017 160.021 262.461 160.801 262.803 161.752C262.934 163.095 262.979 164.626 262.937 166.343C261.503 167.329 260.258 168.434 259.202 169.66C258.552 171.141 258.092 172.743 257.821 174.465C257.855 176.379 257.986 178.355 258.213 180.392C258.497 182.466 258.736 184.511 258.932 186.528C258.908 188.406 258.72 190.18 258.37 191.852C257.632 193.278 256.692 194.577 255.549 195.748C254.039 196.686 252.386 197.533 250.591 198.291C248.631 198.943 246.656 199.588 244.667 200.224C243.06 199.001 241.337 198.037 239.498 197.329C237.384 197.224 235.148 197.409 232.789 197.884C230.27 198.813 227.738 199.867 225.193 201.044C222.78 202.221 220.505 203.273 218.37 204.202C216.627 204.694 215.104 204.916 213.802 204.868C212.92 204.292 212.201 203.51 211.643 202.523C211.262 201.331 210.879 200.162 210.492 199.018C209.923 198.171 209.189 197.573 208.291 197.223C207.074 195.664 205.687 194.409 204.132 193.458C202.343 192.975 200.512 192.615 198.639 192.379C196.856 192.126 195.199 191.742 193.668 191.226C192.507 190.257 191.56 189.016 190.828 187.502C190.507 185.463 190.348 183.222 190.351 180.78C190.54 178.14 190.739 175.522 190.947 172.927C191.016 170.61 190.951 168.522 190.753 166.663C190.218 165.35 189.512 164.304 188.634 163.526C189.888 162.441 191.137 161.353 192.38 160.261C193.566 159.132 194.7 157.972 195.783 156.779C196.734 155.503 197.613 154.181 198.42 152.813C199.087 151.358 199.696 149.865 200.247 148.335C200.72 146.756 201.177 145.167 201.618 143.568C202.08 141.982 202.576 140.418 203.106 138.875C203.745 137.401 204.453 135.971 205.228 134.583C206.148 133.287 207.136 132.034 208.191 130.824C210.143 130.624 211.996 130.627 213.751 130.833C215.319 131.422 216.818 132.159 218.249 133.044C219.622 134.082 221.013 135.117 222.422 136.147C223.95 137.013 225.57 137.737 227.281 138.321C229.198 138.557 231.209 138.622 233.314 138.516C235.549 138.133 237.806 137.669 240.083 137.124C242.306 136.551 244.453 136.032 246.525 135.565C249.165 135.303 250.881 135.171 251.673 135.171Z" stroke="url(#paint8_linear_1322_330)" stroke-opacity="0.28" stroke-width="2" stroke-linecap="round" stroke-dasharray="7 9"/>
<path opacity="0.44" d="M252.998 138.935C253.533 140.606 253.949 142.374 254.246 144.24C254.354 146.226 254.404 148.22 254.397 150.223C254.362 152.127 254.356 153.926 254.377 155.622C254.525 157.024 254.754 158.262 255.066 159.334C256.212 160.511 257.468 161.478 258.835 162.237C259.842 163.569 260.587 165.372 261.07 167.647C259.805 168.573 258.705 169.621 257.771 170.79C257.173 172.207 256.726 173.736 256.431 175.377C256.372 177.191 256.386 179.058 256.471 180.978C256.59 182.923 256.669 184.839 256.708 186.726C256.563 188.476 256.284 190.128 255.871 191.681C255.138 192.998 254.235 194.191 253.162 195.26C251.772 196.094 250.251 196.832 248.601 197.474C246.775 197.988 244.915 198.477 243.021 198.94C241.294 198.03 239.421 197.364 237.401 196.944C235.101 197.016 232.696 197.298 230.186 197.788C227.584 198.553 225.007 199.361 222.455 200.212C220.102 200.955 217.913 201.555 215.887 202.013C214.269 202.069 212.869 201.902 211.686 201.512C210.896 200.717 210.253 199.78 209.757 198.699C209.41 197.508 209.054 196.363 208.689 195.263C208.148 194.45 207.455 193.856 206.608 193.48C205.62 191.945 204.47 190.674 203.16 189.668C201.614 189.084 200.015 188.627 198.363 188.298C196.762 188.013 195.261 187.649 193.86 187.205C192.782 186.433 191.902 185.444 191.218 184.238C190.94 182.574 190.837 180.71 190.911 178.646C191.231 176.313 191.602 173.934 192.026 171.508C192.397 169.182 192.673 166.993 192.855 164.941C192.74 163.288 192.452 161.863 191.99 160.665C193.259 159.749 194.514 158.824 195.755 157.889C196.931 156.905 198.056 155.883 199.13 154.826C200.084 153.678 200.974 152.484 201.798 151.242C202.5 149.909 203.15 148.538 203.75 147.131C204.279 145.67 204.792 144.199 205.29 142.717C205.802 141.244 206.341 139.791 206.906 138.359C207.562 136.992 208.277 135.669 209.05 134.389C209.951 133.204 210.915 132.064 211.942 130.97C213.556 131.187 215.071 131.577 216.487 132.141C217.75 132.992 218.974 133.935 220.159 134.968C221.354 136.051 222.599 137.093 223.895 138.095C225.366 138.902 226.945 139.574 228.632 140.109C230.545 140.347 232.554 140.448 234.66 140.413C236.891 140.174 239.142 139.883 241.412 139.539C243.624 139.204 245.763 138.925 247.829 138.701C250.477 138.761 252.2 138.839 252.998 138.935Z" stroke="url(#paint9_linear_1322_330)" stroke-opacity="0.28" stroke-width="2" stroke-linecap="round" stroke-dasharray="10 5"/>
<path opacity="0.16" d="M253.632 142.459C253.925 143.977 254.103 145.577 254.166 147.259C254.043 149.05 253.864 150.855 253.629 152.676C253.362 154.435 253.121 156.118 252.907 157.725C252.818 159.109 252.818 160.359 252.904 161.476C253.723 162.834 254.743 163.95 255.964 164.825C257.181 165.901 258.199 167.331 259.021 169.115C257.907 170.007 256.933 171.017 256.097 172.145C255.531 173.502 255.084 174.961 254.756 176.52C254.606 178.232 254.507 179.987 254.46 181.786C254.429 183.598 254.363 185.381 254.262 187.134C254.008 188.757 253.646 190.289 253.176 191.728C252.445 192.946 251.574 194.045 250.565 195.024C249.287 195.776 247.894 196.429 246.384 196.984C244.704 197.393 242.977 197.762 241.203 198.092C239.318 197.484 237.283 197.076 235.1 196.867C232.677 197.012 230.184 197.284 227.622 197.682C225.045 198.197 222.53 198.696 220.079 199.179C217.878 199.488 215.852 199.654 214.002 199.676C212.553 199.35 211.306 198.847 210.262 198.17C209.567 197.197 208.995 196.133 208.548 194.976C208.214 193.782 207.863 192.648 207.496 191.574C206.956 190.769 206.275 190.155 205.453 189.732C204.702 188.264 203.798 187.023 202.741 186.009C201.447 185.368 200.09 184.851 198.67 184.455C197.257 184.146 195.916 183.798 194.649 183.411C193.643 182.798 192.81 182.022 192.147 181.081C191.863 179.759 191.757 178.255 191.829 176.567C192.189 174.583 192.635 172.509 193.167 170.344C193.743 168.142 194.271 165.996 194.751 163.906C195.016 162.054 195.13 160.367 195.095 158.846C196.356 158.08 197.597 157.297 198.82 156.499C199.973 155.641 201.08 154.744 202.138 153.806C203.088 152.773 203.98 151.693 204.817 150.566C205.546 149.347 206.23 148.091 206.871 146.797C207.45 145.451 208.014 144.092 208.564 142.72C209.121 141.355 209.698 140.008 210.296 138.678C210.968 137.41 211.688 136.184 212.456 134.998C213.334 133.907 214.269 132.863 215.261 131.869C216.509 132.424 217.676 133.109 218.762 133.923C219.752 134.918 220.738 135.953 221.719 137.029C222.778 138.076 223.915 139.06 225.131 139.98C226.557 140.7 228.101 141.301 229.764 141.782C231.653 142.023 233.634 142.163 235.706 142.2C237.893 142.099 240.093 141.971 242.308 141.818C244.463 141.702 246.546 141.644 248.558 141.643C251.153 142.001 252.844 142.272 253.632 142.459Z" stroke="url(#paint10_linear_1322_330)" stroke-opacity="0.28" stroke-width="2" stroke-linecap="round" stroke-dasharray="2 6"/>
<path opacity="0.54" d="M253.639 145.649C253.731 147.004 253.715 148.429 253.59 149.924C253.29 151.518 252.937 153.132 252.528 154.767C252.086 156.373 251.666 157.93 251.268 159.438C250.987 160.785 250.791 162.031 250.683 163.175C251.172 164.73 251.927 166.044 252.948 167.116C254.294 168.109 255.534 169.33 256.668 170.779C255.683 171.652 254.809 172.636 254.047 173.731C253.498 175.032 253.038 176.421 252.667 177.898C252.427 179.502 252.221 181.141 252.051 182.815C251.885 184.492 251.689 186.14 251.462 187.757C251.112 189.255 250.675 190.667 250.152 191.993C249.421 193.118 248.578 194.132 247.623 195.035C246.446 195.722 245.17 196.311 243.795 196.803C242.261 197.139 240.674 197.424 239.036 197.657C237.002 197.282 234.844 197.046 232.561 196.949C230.112 197.059 227.636 197.225 225.133 197.445C222.695 197.666 220.349 197.831 218.095 197.942C216.125 197.849 214.33 197.625 212.709 197.269C211.462 196.627 210.394 195.853 209.504 194.946C208.905 193.84 208.404 192.681 208.001 191.469C207.672 190.27 207.316 189.139 206.933 188.076C206.382 187.258 205.7 186.603 204.887 186.112C204.367 184.751 203.701 183.578 202.889 182.595C201.843 181.933 200.724 181.385 199.533 180.951C198.31 180.624 197.129 180.286 195.992 179.938C195.053 179.448 194.255 178.839 193.6 178.111C193.275 177.086 193.12 175.903 193.135 174.562C193.452 172.932 193.882 171.191 194.425 169.34C195.091 167.362 195.76 165.376 196.429 163.381C196.986 161.482 197.435 159.678 197.776 157.97C199.012 157.334 200.226 156.675 201.416 155.995C202.538 155.246 203.617 154.456 204.653 153.623C205.592 152.695 206.483 151.72 207.325 150.698C208.077 149.586 208.791 148.438 209.466 147.253C210.09 146.015 210.7 144.764 211.296 143.501C211.894 142.238 212.507 140.991 213.136 139.76C213.821 138.583 214.546 137.445 215.309 136.346C217.091 135.271 218.846 135.173 220.574 136.053C221.351 137.082 222.157 138.111 222.993 139.139C223.963 140.089 225.031 140.967 226.197 141.774C227.592 142.396 229.105 142.92 230.737 143.346C232.581 143.591 234.506 143.766 236.513 143.872C238.614 143.898 240.722 143.919 242.837 143.934C244.887 144.009 246.869 144.143 248.782 144.336C251.265 144.949 252.884 145.387 253.639 145.649Z" stroke="url(#paint11_linear_1322_330)" stroke-opacity="0.28" stroke-width="2" stroke-linecap="round" stroke-dasharray="1 1"/>
<path opacity="0.87" d="M253.121 148.454C253.058 149.65 252.894 150.905 252.631 152.22C252.209 153.627 251.735 155.059 251.208 156.515C250.643 157.971 250.094 159.4 249.562 160.803C249.131 162.102 248.779 163.33 248.506 164.487C248.667 166.229 249.127 167.757 249.884 169.068C251.239 170.126 252.589 171.3 253.934 172.588C253.05 173.451 252.254 174.414 251.546 175.475C250.996 176.716 250.512 178.031 250.093 179.42C249.766 180.913 249.461 182.431 249.179 183.974C248.894 185.514 248.582 187.025 248.244 188.505C247.81 189.875 247.308 191.17 246.737 192.388C246.005 193.423 245.184 194.358 244.275 195.194C243.188 195.828 242.017 196.368 240.765 196.815C239.372 197.104 237.926 197.334 236.428 197.504C234.312 197.261 232.111 197.094 229.826 197.004C227.466 196.996 225.121 196.989 222.79 196.981C220.593 196.897 218.507 196.738 216.533 196.504C214.851 196.07 213.332 195.524 211.978 194.865C210.953 193.983 210.077 193.006 209.349 191.937C208.85 190.741 208.42 189.521 208.061 188.277C207.737 187.079 207.377 185.948 206.981 184.886C206.419 184.04 205.735 183.332 204.931 182.764C204.62 181.532 204.172 180.454 203.588 179.532C202.772 178.878 201.876 178.324 200.901 177.871C198.919 177.164 197.129 176.344 195.532 175.411C195.15 174.622 194.919 173.706 194.838 172.663C195.052 171.364 195.393 169.952 195.861 168.426C196.509 166.728 197.203 164.98 197.942 163.184C198.671 161.371 199.345 159.592 199.963 157.848C201.16 157.322 202.332 156.768 203.481 156.188C204.563 155.535 205.609 154.838 206.616 154.098C207.54 153.266 208.424 152.387 209.267 151.462C210.035 150.453 210.772 149.408 211.477 148.328C212.138 147.196 212.787 146.052 213.423 144.894C214.058 143.733 214.703 142.585 215.359 141.45C216.057 140.361 216.785 139.306 217.543 138.286C219.141 137.372 220.618 137.408 221.975 138.394C222.612 139.366 223.307 140.311 224.062 141.231C224.99 142.047 226.026 142.793 227.17 143.471C228.54 143.995 230.021 144.445 231.611 144.821C233.387 145.072 235.231 145.282 237.141 145.449C239.12 145.584 241.098 145.73 243.073 145.887C244.979 146.117 246.821 146.405 248.597 146.752C250.908 147.565 252.416 148.132 253.121 148.454Z" stroke="url(#paint12_linear_1322_330)" stroke-opacity="0.28" stroke-width="2" stroke-linecap="round" stroke-dasharray="1 4"/>
<path opacity="0.14" d="M252.199 150.861C252.023 151.912 251.759 153.014 251.407 154.167C250.909 155.405 250.362 156.672 249.766 157.967C249.128 159.282 248.499 160.588 247.879 161.886C247.338 163.127 246.864 164.325 246.456 165.479C246.297 167.377 246.44 169.102 246.883 170.654C248.104 171.879 249.415 173.133 250.814 174.417C250.007 175.269 249.267 176.207 248.591 177.231C248.031 178.406 247.517 179.639 247.048 180.932C246.641 182.306 246.248 183.698 245.868 185.107C245.48 186.506 245.07 187.876 244.639 189.217C244.131 190.46 243.573 191.636 242.962 192.745C242.228 193.693 241.426 194.553 240.556 195.324C239.548 195.912 238.472 196.414 237.33 196.83C236.07 197.09 234.761 197.289 233.405 197.424C231.306 197.209 229.172 197.017 227.001 196.849C224.844 196.671 222.737 196.458 220.681 196.212C218.803 195.848 217.044 195.406 215.404 194.886C214.044 194.187 212.829 193.398 211.758 192.519C210.961 191.477 210.279 190.372 209.712 189.205C209.314 187.965 208.959 186.72 208.647 185.472C208.335 184.284 207.979 183.159 207.579 182.098C206.558 180.351 205.624 178.622 204.778 176.908C203.343 175.874 201.773 174.994 200.069 174.268C198.715 173.376 197.67 172.258 196.931 170.915C197.007 169.9 197.209 168.782 197.537 167.561C198.078 166.159 198.696 164.688 199.39 163.147C200.16 161.52 200.928 159.881 201.692 158.23C202.836 157.796 203.956 157.333 205.054 156.839C206.091 156.268 207.097 155.655 208.07 155C208.975 154.255 209.847 153.467 210.684 152.636C211.462 151.725 212.214 150.781 212.94 149.805C213.63 148.779 214.309 147.74 214.978 146.688C215.642 145.63 216.313 144.581 216.991 143.54C217.699 142.539 218.429 141.567 219.182 140.624C220.642 139.807 221.932 139.87 223.053 140.814C223.628 141.666 224.282 142.479 225.015 143.254C225.941 143.925 226.972 144.537 228.108 145.09C229.456 145.526 230.897 145.911 232.431 146.245C234.117 146.503 235.854 146.743 237.64 146.963C239.466 147.185 241.282 147.429 243.09 147.693C244.821 148.04 246.491 148.442 248.1 148.9C250.192 149.847 251.559 150.5 252.199 150.861Z" stroke="url(#paint13_linear_1322_330)" stroke-opacity="0.28" stroke-width="2" stroke-linecap="round" stroke-dasharray="10 9"/>
<path opacity="0.93" d="M250.997 152.908C250.749 153.834 250.425 154.805 250.023 155.819C249.492 156.913 248.914 158.036 248.29 159.189C247.617 160.377 246.946 161.57 246.277 162.766C245.664 163.944 245.102 165.098 244.592 166.23C244.132 168.234 243.951 170.114 244.05 171.87C245 173.308 246.113 174.721 247.387 176.111C246.639 176.945 245.937 177.85 245.281 178.825C244.705 179.922 244.159 181.065 243.645 182.255C243.168 183.502 242.698 184.76 242.237 186.029C241.766 187.283 241.276 188.511 240.768 189.712C240.205 190.827 239.603 191.883 238.962 192.881C238.229 193.741 237.446 194.524 236.612 195.229C235.674 195.776 234.683 196.245 233.641 196.634C232.502 196.879 231.323 197.063 230.103 197.183C228.145 196.913 226.195 196.63 224.254 196.334C222.398 195.971 220.615 195.558 218.907 195.095C217.397 194.505 216.002 193.845 214.725 193.113C213.693 192.235 212.782 191.29 211.989 190.277C211.411 189.152 210.916 187.988 210.504 186.785C210.203 185.547 209.923 184.316 209.663 183.092C209.372 181.93 209.032 180.823 208.644 179.772C207.727 178.037 206.972 176.374 206.377 174.784C205.286 173.778 204.034 172.906 202.621 172.166C201.325 171.384 200.247 170.452 199.388 169.371C199.314 168.578 199.356 167.701 199.513 166.74C199.886 165.615 200.352 164.418 200.91 163.148C201.604 161.761 202.336 160.336 203.106 158.871C204.186 158.515 205.244 158.127 206.281 157.707C207.268 157.21 208.228 156.673 209.161 156.095C210.039 155.433 210.89 154.732 211.716 153.992C212.493 153.18 213.25 152.337 213.988 151.463C214.696 150.545 215.395 149.612 216.085 148.666C216.77 147.712 217.459 146.764 218.151 145.821C218.863 144.909 219.591 144.021 220.335 143.156C222.511 143.145 224.378 143.827 225.936 145.202C226.881 145.735 227.922 146.223 229.059 146.667C230.373 147.031 231.762 147.365 233.225 147.668C234.8 147.934 236.406 148.198 238.045 148.46C239.698 148.746 241.333 149.06 242.95 149.401C244.487 149.823 245.966 150.296 247.387 150.821C249.23 151.835 250.433 152.531 250.997 152.908Z" stroke="url(#paint14_linear_1322_330)" stroke-opacity="0.28" stroke-width="2" stroke-linecap="round" stroke-dasharray="11 10"/>
<path opacity="0.91" d="M249.627 154.662C248.923 156.392 247.993 158.26 246.835 160.265C245.477 162.441 244.18 164.627 242.942 166.824C242.136 168.9 241.647 170.872 241.476 172.739C241.984 174.391 242.764 175.982 243.815 177.511C242.465 179.227 241.219 181.126 240.076 183.207C239.022 185.446 237.946 187.648 236.85 189.813C235.588 191.683 234.195 193.322 232.674 194.732C230.847 195.603 228.876 196.215 226.761 196.569C223.44 195.763 220.373 194.782 217.562 193.627C215.512 192.022 213.86 190.201 212.606 188.166C211.953 185.846 211.417 183.504 210.999 181.14C210.377 179.001 209.466 177.09 208.265 175.407C208.278 173.921 207.917 172.673 207.181 171.663C205.979 170.936 204.75 170.219 203.495 169.51C202.604 168.556 202.047 167.382 201.824 165.988C202.368 164.078 203.234 161.937 204.422 159.566C206.395 158.917 208.287 158.125 210.1 157.19C211.746 155.959 213.321 154.601 214.823 153.115C216.234 151.466 217.633 149.797 219.021 148.108C220.458 146.506 221.951 145.004 223.502 143.603C224.329 144.889 225.461 146.051 226.897 147.089C228.995 147.864 231.363 148.549 234.002 149.144C236.92 149.709 239.82 150.348 242.7 151.061C245.258 152.071 247.567 153.271 249.627 154.662Z" stroke="url(#paint15_linear_1322_330)" stroke-opacity="0.28" stroke-width="2" stroke-linecap="round" stroke-dasharray="9 3"/>
<path opacity="0.29" d="M248.183 156.222C247.47 157.786 246.557 159.471 245.443 161.277C244.115 163.257 242.804 165.278 241.511 167.338C240.506 169.376 239.748 171.362 239.236 173.295C239.313 175.088 239.67 176.819 240.308 178.488C239.006 180.08 237.766 181.804 236.589 183.659C235.459 185.614 234.309 187.529 233.141 189.403C231.855 191.029 230.479 192.466 229.013 193.713C227.337 194.513 225.553 195.088 223.663 195.439C221.061 194.409 218.745 193.209 216.714 191.839C215.351 190.107 214.29 188.226 213.532 186.196C213.163 183.992 212.834 181.789 212.545 179.586C212.001 177.565 211.194 175.71 210.122 174.021C210.3 172.723 210.145 171.589 209.657 170.618C208.707 169.851 207.677 169.104 206.569 168.377C205.638 167.512 204.936 166.503 204.463 165.351C204.615 163.823 205.082 162.102 205.864 160.189C207.68 159.646 209.434 158.973 211.125 158.169C212.691 157.103 214.206 155.927 215.67 154.64C217.064 153.209 218.446 151.754 219.819 150.275C221.217 148.854 222.653 147.51 224.126 146.243C225.11 147.247 226.381 148.148 227.936 148.948C230.021 149.582 232.291 150.174 234.748 150.724C237.344 151.314 239.884 151.983 242.368 152.732C244.529 153.739 246.467 154.902 248.183 156.222Z" stroke="url(#paint16_linear_1322_330)" stroke-opacity="0.28" stroke-width="2" stroke-linecap="round" stroke-dasharray="3 4"/>
<path opacity="0.1" d="M246.719 157.695C246.025 159.128 245.156 160.663 244.112 162.297C242.85 164.092 241.569 165.94 240.271 167.839C239.134 169.776 238.166 171.697 237.368 173.604C237.029 175.44 236.94 177.231 237.099 178.977C235.848 180.415 234.631 181.941 233.449 183.557C232.286 185.225 231.108 186.853 229.915 188.44C228.642 189.821 227.31 191.054 225.92 192.136C224.389 192.859 222.784 193.395 221.107 193.743C219.275 192.565 217.708 191.249 216.407 189.793C215.633 188.081 215.064 186.271 214.701 184.365C214.552 182.36 214.388 180.364 214.21 178.376C213.757 176.518 213.07 174.771 212.151 173.135C211.94 171.123 211.12 169.298 209.69 167.66C208.792 166.823 208.028 165.9 207.398 164.891C207.214 163.636 207.297 162.241 207.645 160.705C209.289 160.251 210.887 159.683 212.441 159.001C213.909 158.095 215.339 157.097 216.732 156.006C218.078 154.788 219.414 153.546 220.74 152.279C222.078 151.043 223.438 149.864 224.82 148.739C225.999 149.508 227.411 150.209 229.057 150.842C231.074 151.387 233.199 151.924 235.43 152.455C237.686 153.053 239.861 153.725 241.954 154.471C244.434 156.023 246.022 157.097 246.719 157.695Z" stroke="url(#paint17_linear_1322_330)" stroke-opacity="0.28" stroke-width="2" stroke-linecap="round" stroke-dasharray="8 10"/>
<path opacity="0.46" d="M245.259 159.178C244.598 160.501 243.788 161.902 242.828 163.381C241.658 164.994 240.445 166.659 239.189 168.375C237.99 170.15 236.889 171.934 235.887 173.729C235.199 175.503 234.704 177.255 234.403 178.986C233.215 180.243 232.044 181.555 230.889 182.921C229.741 184.307 228.58 185.654 227.406 186.962C226.184 188.11 224.925 189.142 223.63 190.056C222.248 190.694 220.82 191.183 219.346 191.522C218.237 190.304 217.34 188.988 216.655 187.574C216.336 185.995 216.137 184.356 216.06 182.659C216.064 180.91 216.018 179.168 215.924 177.433C215.564 175.778 215.007 174.189 214.252 172.666C214.301 170.781 213.808 169.002 212.773 167.328C211.977 166.487 211.238 165.599 210.558 164.664C210.148 163.585 209.928 162.417 209.899 161.16C211.361 160.783 212.794 160.308 214.196 159.736C215.542 158.983 216.863 158.155 218.162 157.251C219.427 156.241 220.685 155.206 221.936 154.146C223.189 153.098 224.454 152.087 225.73 151.112C227.069 151.718 228.57 152.288 230.234 152.822C232.116 153.325 234.04 153.837 236.006 154.358C237.915 154.952 239.728 155.606 241.448 156.319C243.436 157.706 244.707 158.659 245.259 159.178Z" stroke="url(#paint18_linear_1322_330)" stroke-opacity="0.28" stroke-width="2" stroke-linecap="round" stroke-dasharray="9 3"/>
<path opacity="0.57" d="M243.782 160.747C243.161 161.963 242.416 163.233 241.548 164.559C240.489 165.985 239.373 167.454 238.2 168.966C237.01 170.537 235.862 172.127 234.757 173.735C233.83 175.355 233.029 176.969 232.355 178.58C231.25 179.641 230.151 180.731 229.059 181.849C227.967 182.963 226.867 184.044 225.758 185.091C224.62 186.015 223.462 186.853 222.284 187.606C220.161 187.737 218.539 186.959 217.42 185.272C217.41 183.903 217.454 182.5 217.553 181.066C217.644 179.599 217.671 178.136 217.633 176.674C217.358 175.25 216.924 173.86 216.332 172.503C216.585 170.736 216.384 169.012 215.73 167.333C215.094 166.488 214.461 165.617 213.831 164.722C213.82 163.059 214.681 161.647 216.417 160.487C217.623 159.875 218.815 159.205 219.993 158.476C221.151 157.661 222.303 156.824 223.45 155.963C224.596 155.099 225.747 154.256 226.903 153.432C228.307 153.95 229.802 154.453 231.389 154.941C233.066 155.428 234.738 155.93 236.405 156.446C237.966 157.021 239.433 157.638 240.807 158.297C242.363 159.494 243.354 160.31 243.782 160.747Z" stroke="url(#paint19_linear_1322_330)" stroke-opacity="0.28" stroke-width="2" stroke-linecap="round" stroke-dasharray="3 3"/>
<path opacity="0.46" d="M242.25 162.439C241.673 163.534 240.999 164.664 240.227 165.83C239.292 167.061 238.298 168.322 237.245 169.612C236.133 170.949 235.024 172.303 233.918 173.676C232.882 175.073 231.913 176.473 231.009 177.876C230.01 178.733 229.012 179.601 228.015 180.481C227.016 181.343 226.013 182.178 225.005 182.985C223.983 183.703 222.951 184.36 221.91 184.957C220.253 185.056 219.162 184.395 218.638 182.976C218.796 181.856 218.965 180.718 219.145 179.561C219.267 178.382 219.323 177.2 219.313 176.016C219.088 173.849 219.029 171.863 219.137 170.058C218.647 168.424 217.965 166.768 217.091 165.089C216.961 163.594 217.606 162.358 219.026 161.381C220.078 160.899 221.122 160.373 222.158 159.803C223.185 159.168 224.209 158.514 225.23 157.839C226.248 157.151 227.268 156.472 228.29 155.802C229.635 156.279 231.013 156.753 232.425 157.225C233.837 157.705 235.217 158.197 236.565 158.7C237.792 159.242 238.934 159.808 239.992 160.399C241.174 161.403 241.927 162.084 242.25 162.439Z" stroke="url(#paint20_linear_1322_330)" stroke-opacity="0.28" stroke-width="2" stroke-linecap="round"/>
<path opacity="0.34" d="M240.609 164.248C239.415 166.188 237.967 168.201 236.265 170.287C234.276 172.487 232.291 174.726 230.309 177.002C228.567 178.314 226.82 179.585 225.07 180.816C222.565 181.29 221.143 180.394 220.805 178.128C220.914 176.3 220.735 174.457 220.27 172.597C220.869 171.125 221.125 169.632 221.038 168.119C220.48 166.549 219.847 164.94 219.138 163.292C220.934 162.785 222.718 162.135 224.489 161.341C226.243 160.359 227.993 159.345 229.741 158.301C232.06 159.216 234.286 160.142 236.418 161.08C238.661 162.638 240.058 163.694 240.609 164.248Z" stroke="url(#paint21_linear_1322_330)" stroke-opacity="0.28" stroke-width="2" stroke-linecap="round" stroke-dasharray="9 7"/>
<path opacity="0.69" d="M238.814 166.118C237.792 167.697 236.59 169.306 235.21 170.944C233.568 172.633 231.867 174.34 230.106 176.066C228.661 176.991 227.216 177.88 225.768 178.731C223.8 179.062 222.718 178.404 222.521 176.757C222.586 175.412 222.456 174.04 222.131 172.64C222.75 171.379 223.144 170.091 223.315 168.773C223.126 167.404 222.829 166.009 222.422 164.589C223.861 164.2 225.298 163.72 226.733 163.15C228.168 162.455 229.601 161.73 231.032 160.977C232.774 161.826 234.4 162.674 235.912 163.519C237.463 164.813 238.43 165.679 238.814 166.118Z" stroke="url(#paint22_linear_1322_330)" stroke-opacity="0.28" stroke-width="2" stroke-linecap="round" stroke-dasharray="5 3"/>
<path opacity="0.13" d="M236.823 167.954C236.004 169.137 235.075 170.325 234.037 171.518C232.817 172.719 231.53 173.922 230.178 175.129C229.066 175.718 227.955 176.281 226.844 176.819C225.243 176 224.283 174.59 223.964 172.59C224.542 171.592 224.994 170.571 225.319 169.526C225.92 167.738 227.018 166.304 228.61 165.223C229.705 164.772 230.801 164.299 231.897 163.804C233.023 164.524 234.057 165.234 235 165.933C235.97 166.947 236.578 167.62 236.823 167.954Z" stroke="url(#paint23_linear_1322_330)" stroke-opacity="0.28" stroke-width="2" stroke-linecap="round" stroke-dasharray="10 6"/>
<path opacity="0.98" d="M234.63 169.634C233.368 171.167 231.919 172.685 230.283 174.188C228.127 174.493 226.64 173.909 225.821 172.435C226.642 171.03 227.252 169.578 227.652 168.08C229.122 167.681 230.6 167.217 232.086 166.686C233.46 168.179 234.308 169.161 234.63 169.634Z" stroke="url(#paint24_linear_1322_330)" stroke-opacity="0.28" stroke-width="2" stroke-linecap="round" stroke-dasharray="1 10"/>
<path d="M61.2122 162.328L79.1587 180.38L76.4351 183.087L58.4886 165.036L61.2122 162.328Z" fill="#6F7385"/>
<path d="M70.0057 153.619L73.4959 150.53L92.678 159.977L92.9014 159.779L85.8561 139.591L89.3464 136.502L106.216 155.564L103.48 157.985L91.2723 144.192L91.0955 144.348L97.6567 163.089L95.3857 165.099L77.5729 156.299L77.3961 156.456L89.6119 170.259L86.8756 172.681L70.0057 153.619Z" fill="#6F7385"/>
<path d="M99.3388 128.337L103.072 125.546L121.41 136.542L121.649 136.364L116.292 115.663L120.025 112.873L135.266 133.26L132.339 135.448L121.31 120.695L121.121 120.837L126.115 140.055L123.686 141.87L106.659 131.632L106.47 131.774L117.506 146.537L114.58 148.724L99.3388 128.337Z" fill="#6F7385"/>
<path d="M133.532 103.879L147.565 125.116L144.361 127.233L130.328 105.996L133.532 103.879Z" fill="#6F7385"/>
<path d="M162.732 95.3919C162.143 94.8637 161.522 94.4453 160.87 94.1368C160.22 93.817 159.549 93.6156 158.856 93.5327C158.159 93.4427 157.447 93.4818 156.719 93.6501C155.999 93.8142 155.274 94.1104 154.546 94.5388C153.31 95.2654 152.383 96.2384 151.763 97.4578C151.144 98.6773 150.907 100.071 151.051 101.64C151.197 103.198 151.791 104.862 152.833 106.633C153.879 108.412 155.052 109.745 156.353 110.634C157.654 111.522 158.995 111.988 160.376 112.032C161.756 112.075 163.09 111.719 164.375 110.963C165.568 110.262 166.465 109.408 167.065 108.401C167.672 107.391 167.958 106.3 167.923 105.129C167.891 103.946 167.52 102.751 166.811 101.544L167.762 101.201L161.484 104.892L159.877 102.16L168.502 97.0889L169.97 99.5853C171.054 101.428 171.601 103.259 171.614 105.078C171.629 106.886 171.163 108.563 170.217 110.109C169.279 111.651 167.923 112.943 166.152 113.985C164.166 115.152 162.155 115.72 160.117 115.687C158.087 115.651 156.16 115.039 154.337 113.852C152.511 112.657 150.917 110.903 149.556 108.589C148.527 106.839 147.846 105.125 147.513 103.446C147.18 101.768 147.167 100.184 147.474 98.6965C147.785 97.1971 148.385 95.8397 149.276 94.624C150.169 93.3971 151.326 92.3657 152.748 91.53C153.934 90.8328 155.14 90.359 156.367 90.1084C157.602 89.8537 158.808 89.8126 159.986 89.9851C161.171 90.1534 162.288 90.525 163.337 91.0999C164.382 91.6677 165.313 92.4327 166.129 93.395L162.732 95.3919Z" fill="#6F7385"/>
<path d="M184.232 103.427L172.827 80.6704L180.938 76.6051C182.701 75.7215 184.317 75.292 185.784 75.3166C187.259 75.3374 188.555 75.7401 189.671 76.5246C190.783 77.3018 191.69 78.3904 192.392 79.7904C193.09 81.1831 193.412 82.5557 193.357 83.9083C193.307 85.2498 192.843 86.5064 191.966 87.6782C191.096 88.8463 189.78 89.8721 188.016 90.7557L181.872 93.8353L180.39 90.8796L186.224 87.956C187.335 87.3991 188.159 86.7869 188.696 86.1194C189.24 85.4481 189.523 84.7271 189.544 83.9563C189.566 83.1856 189.363 82.3742 188.936 81.5223C188.505 80.663 187.966 80.0021 187.317 79.5395C186.675 79.0732 185.919 78.8497 185.048 78.8691C184.181 78.8773 183.181 79.1654 182.048 79.7334L177.736 81.8942L187.666 101.706L184.232 103.427ZM190.32 87.5297L201.088 94.9789L197.177 96.9392L186.52 89.4342L190.32 87.5297Z" fill="#6F7385"/>
<path d="M211.114 90.4468L207.359 92.0339L205.886 65.0214L209.973 63.294L228.321 83.174L224.566 84.7611L209.827 68.3754L209.644 68.4528L211.114 90.4468ZM207.863 80.9991L220.044 75.8505L221.302 78.8271L209.121 83.9756L207.863 80.9991Z" fill="#6F7385"/>
<path d="M228.161 59.5546L227.073 56.4325L245.677 49.952L246.764 53.0741L239.264 55.6868L246.55 76.6025L242.935 77.8618L235.649 56.9461L228.161 59.5546Z" fill="#6F7385"/>
<path d="M259.466 45.8028L266.677 70.2145L262.994 71.3025L255.783 46.8909L259.466 45.8028Z" fill="#6F7385"/>
<path d="M295.709 49.6439C296.341 52.2871 296.401 54.6753 295.889 56.8085C295.375 58.9336 294.398 60.7093 292.959 62.1357C291.526 63.552 289.741 64.5157 287.606 65.0265C285.462 65.5394 283.427 65.4895 281.5 64.8771C279.579 64.2546 277.907 63.1081 276.485 61.4376C275.063 59.7672 274.037 57.6143 273.406 54.9792C272.774 52.3359 272.715 49.9518 273.229 47.8267C273.741 45.6935 274.714 43.9187 276.147 42.5024C277.586 41.076 279.378 40.1064 281.521 39.5936C283.657 39.0827 285.685 39.1385 287.606 39.761C289.533 40.3734 291.208 41.5149 292.63 43.1854C294.05 44.8478 295.076 47.0007 295.709 49.6439ZM292.01 50.5288C291.528 48.5141 290.796 46.8959 289.813 45.674C288.837 44.4421 287.7 43.6066 286.402 43.1673C285.11 42.7181 283.755 42.6631 282.337 43.0024C280.911 43.3436 279.723 44.0068 278.775 44.992C277.824 45.9691 277.188 47.2288 276.867 48.7711C276.552 50.3033 276.636 52.0767 277.117 54.0914C277.599 56.106 278.329 57.7293 279.305 58.9611C280.287 60.183 281.424 61.0186 282.716 61.4678C284.006 61.909 285.364 61.959 286.79 61.6178C288.209 61.2785 289.393 60.6202 290.343 59.6431C291.3 58.656 291.936 57.3963 292.251 55.8641C292.572 54.3219 292.492 52.5434 292.01 50.5288Z" fill="#6F7385"/>
<path d="M324.183 31.6964L328.324 56.8118L324.841 57.3861L309.038 41.0716L308.805 41.11L311.842 59.5296L308.053 60.1545L303.911 35.0391L307.419 34.4607L323.238 50.7977L323.471 50.7593L320.43 32.3152L324.183 31.6964Z" fill="#6F7385"/>
<path d="M165.902 346.339L165.373 344.096L168.345 342.063L171.217 314.752L175.138 313.185L190.908 336.735L194.465 337.177L195.006 339.466L181.038 342.764L180.497 340.475L183.396 338.755L181.219 335.176L172.763 337.173L172.42 341.15L175.873 341.568L176.413 343.857L165.902 346.339ZM173.116 334.278L179.609 332.745L174.059 324.487L173.116 334.278Z" fill="#616161"/>
<path d="M215.485 333.599C213.109 334.363 211.056 334.67 209.327 334.52C207.619 334.329 206.167 333.788 204.973 332.894C203.808 331.992 202.834 330.843 202.049 329.448C201.255 328.023 200.584 326.457 200.035 324.751L195.965 312.093L191.82 312.216L191.1 309.977L205.677 305.29L206.397 307.529L202.957 309.845L207.026 322.503C207.575 324.209 208.187 325.693 208.861 326.955C209.536 328.217 210.392 329.102 211.429 329.609C212.496 330.106 213.852 330.09 215.497 329.561C216.899 329.11 217.929 328.393 218.587 327.408C219.235 326.393 219.577 325.207 219.611 323.852C219.646 322.496 219.418 321.056 218.929 319.533L214.609 306.099L210.418 306.236L209.698 303.997L221.213 300.294L221.933 302.534L218.356 304.894L222.852 318.877C223.068 319.547 223.251 320.379 223.402 321.372C223.554 322.366 223.583 323.449 223.489 324.622C223.386 325.764 223.065 326.909 222.527 328.057C221.988 329.205 221.152 330.264 220.018 331.233C218.915 332.193 217.404 332.981 215.485 333.599Z" fill="#616161"/>
<path d="M245.134 322.847C243.858 323.364 242.401 323.816 240.763 324.203C239.136 324.62 237.604 324.843 236.166 324.873L234.114 317.884L236.917 316.749L239.107 320.368C239.629 320.295 240.283 320.203 241.066 320.092C241.838 319.952 242.64 319.714 243.47 319.378C244.924 318.79 245.984 318.084 246.652 317.261C247.32 316.438 247.438 315.493 247.006 314.425C246.585 313.387 245.953 312.763 245.108 312.552C244.252 312.312 243.101 312.157 241.657 312.086L237.172 311.882C236.257 311.838 235.288 311.661 234.264 311.35C233.259 310.998 232.3 310.419 231.387 309.615C230.492 308.769 229.738 307.59 229.126 306.077C228.057 303.437 228.074 301.048 229.176 298.91C230.278 296.773 232.357 295.085 235.412 293.848C236.806 293.284 238.213 292.835 239.631 292.502C241.038 292.14 242.463 291.908 243.907 291.807L246.12 298.679L243.495 299.742L240.913 296.178C240.497 296.174 239.915 296.272 239.167 296.471C238.448 296.658 237.882 296.836 237.466 297.004C236.695 297.316 235.975 297.711 235.305 298.189C234.654 298.626 234.181 299.163 233.886 299.8C233.621 300.425 233.675 301.197 234.047 302.117C234.456 303.125 235.148 303.812 236.124 304.176C237.118 304.499 238.274 304.669 239.593 304.687L244.024 304.758C246.419 304.789 248.239 305.278 249.485 306.223C250.76 307.157 251.711 308.395 252.335 309.937C253.392 312.547 253.334 315.005 252.161 317.309C251.006 319.572 248.663 321.418 245.134 322.847Z" fill="#616161"/>
<path d="M267.585 312.778L266.556 310.663L269.291 307.945L259.485 287.788L254.996 289.971L256.128 294.385L253.495 295.665L249.708 288.647L272.844 277.393L276.07 284.684L273.308 286.028L270.492 282.434L266.089 284.575L275.895 304.733L279.807 304.217L280.836 306.332L267.585 312.778Z" fill="#616161"/>
<path d="M292.828 300.198L291.644 298.166L294.375 295.13L283.092 275.761L279.07 276.771L277.886 274.739L290.204 267.563C292.444 266.258 294.4 265.452 296.072 265.144C297.745 264.837 299.165 264.954 300.332 265.496C301.527 266.022 302.487 266.907 303.212 268.151C304.05 269.589 304.452 270.947 304.419 272.225C304.414 273.488 304.116 274.661 303.526 275.746C302.963 276.814 302.267 277.812 301.437 278.74C301.944 278.593 302.436 278.547 302.912 278.603C303.417 278.642 304.04 278.853 304.781 279.236C305.523 279.619 306.489 280.26 307.679 281.159C308.881 282.014 310.449 283.212 312.383 284.751L315.451 284.297L316.635 286.329L308.381 291.138C306.553 289.462 305.018 288.097 303.775 287.044C302.515 285.963 301.48 285.14 300.67 284.575C299.871 283.967 299.234 283.541 298.76 283.299C298.286 283.057 297.906 282.945 297.62 282.963C297.362 282.965 297.15 283.015 296.984 283.111L296.155 283.595L300.721 291.434L304.128 290.893L305.312 292.925L292.828 300.198ZM294.705 281.106L296.115 280.285C297.47 279.495 298.255 278.427 298.47 277.08C298.685 275.732 298.333 274.271 297.415 272.695C296.546 271.201 295.538 270.362 294.394 270.177C293.277 269.976 292.165 270.198 291.059 270.842C290.672 271.068 290.329 271.305 290.029 271.553C289.741 271.758 289.544 271.929 289.438 272.064L294.705 281.106Z" fill="#616161"/>
<path d="M321.165 283.492L319.856 281.596L321.884 278.621L314.618 252.137L317.699 249.251L340.96 265.445L344.434 264.562L345.77 266.498L333.961 274.654L332.625 272.719L334.698 270.062L331.368 267.52L324.219 272.457L325.347 276.287L328.715 275.419L330.051 277.354L321.165 283.492ZM323.493 269.633L328.983 265.842L320.808 260.171L323.493 269.633Z" fill="#616161"/>
<path d="M351.031 262.394L349.562 260.558L351.856 257.124L337.853 239.62L334.06 241.179L332.591 239.342L344.51 229.807L345.979 231.644L343.588 235.032L357.62 252.574L362.681 248.526L360.904 244.231L363.228 242.372L368.235 248.631L351.031 262.394Z" fill="#616161"/>
<path d="M373.677 243.858L372.101 242.111L374.188 238.549L359.176 221.902L355.446 223.715L353.871 221.968L365.277 211.681L366.852 213.428L364.63 216.984L379.642 233.63L383.472 231.857L385.047 233.603L373.677 243.858Z" fill="#616161"/>
<path d="M389.966 229.217L388.315 227.609L389.731 224.298L377.494 199.713L379.961 196.287L405.908 207.691L409.147 206.155L410.832 207.796L400.817 218.076L399.133 216.435L400.654 213.428L396.896 211.577L390.834 217.8L392.68 221.34L395.817 219.839L397.502 221.48L389.966 229.217ZM389.578 215.169L394.233 210.39L385.118 206.402L389.578 215.169Z" fill="#616161"/>
<path d="M179.003 227.553L145.185 251.44L142.175 247.179C137.266 240.228 134.645 234.016 134.312 228.543C133.998 222.967 134.962 217.982 137.204 213.59L140.803 206.563C142.089 204.024 143.104 201.676 143.847 199.521C144.589 197.366 144.841 195.285 144.602 193.28C144.381 191.171 143.481 188.998 141.901 186.762L140.812 185.221C137.909 181.111 134.793 179.008 131.465 178.913C128.093 178.758 124.473 180.046 120.605 182.778C118.55 184.23 116.454 186.073 114.318 188.307C112.241 190.498 110.301 193.137 108.495 196.225L103.17 192.919C105.011 189.625 107.16 186.703 109.617 184.153C112.031 181.542 114.477 179.361 116.955 177.611C123.241 173.171 128.829 171.398 133.719 172.293C138.627 173.084 142.895 176.049 146.524 181.186L147.613 182.728C149.876 185.931 151.15 189.017 151.435 191.987C151.72 194.956 151.408 197.849 150.499 200.666C149.547 203.422 148.358 206.165 146.933 208.893L143.334 215.919C141.248 220.02 140.529 224.197 141.177 228.45C141.886 232.66 143.91 237.256 147.247 242.237L175.353 222.385L179.003 227.553Z" fill="#34919D"/>
<path d="M215.244 151.586L223.799 166.257C228.981 175.143 230.889 182.896 229.525 189.517C228.187 196.036 224.226 201.216 217.641 205.055C211.057 208.895 204.566 209.81 198.169 207.801C191.799 205.691 186.023 200.193 180.842 191.307L172.287 176.636C167.105 167.751 165.215 160.029 166.617 153.472C168.019 146.916 171.98 141.736 178.501 137.934C185.021 134.131 191.48 133.235 197.877 135.244C204.274 137.253 210.063 142.7 215.244 151.586ZM208.916 155.276C204.554 147.797 200.054 143.312 195.415 141.819C190.802 140.226 186.226 140.753 181.688 143.399C177.213 146.009 174.501 149.732 173.552 154.568C172.566 159.341 174.254 165.466 178.615 172.946L187.17 187.617C191.494 195.032 196.013 199.55 200.727 201.17C205.404 202.726 209.979 202.199 214.454 199.59C218.993 196.943 221.705 193.22 222.59 188.421C223.501 183.521 221.795 177.363 217.471 169.947L208.916 155.276Z" fill="#34919D"/>
<path d="M293.281 164.975L255.837 182.643L253.611 177.925C249.979 170.229 248.474 163.657 249.094 158.209C249.75 152.663 251.563 147.921 254.533 143.983L259.294 137.686C261.001 135.408 262.407 133.272 263.511 131.278C264.616 129.284 265.224 127.278 265.336 125.262C265.484 123.146 264.973 120.851 263.805 118.375L263 116.668C260.852 112.117 258.148 109.507 254.886 108.837C251.592 108.1 247.804 108.742 243.521 110.763C241.246 111.836 238.862 113.288 236.371 115.118C233.947 116.917 231.578 119.18 229.265 121.908L224.593 117.73C226.977 114.805 229.6 112.299 232.461 110.213C235.29 108.059 238.077 106.335 240.821 105.041C247.781 101.756 253.592 100.978 258.253 102.707C262.949 104.336 266.64 107.995 269.324 113.684L270.129 115.39C271.803 118.937 272.523 122.198 272.29 125.172C272.057 128.146 271.248 130.941 269.865 133.558C268.449 136.107 266.804 138.602 264.927 141.042L260.166 147.339C257.401 151.017 255.97 155.006 255.872 159.307C255.841 163.577 257.037 168.453 259.461 173.937L290.581 159.253L293.281 164.975Z" fill="#34919D"/>
<path d="M344.563 124.578L336.571 127.607L343.259 145.252L337.032 147.613L330.343 129.968L300.036 141.457L298.226 136.683C300.664 125.787 302.537 115.699 303.847 106.418C305.13 97.0683 305.751 87.8506 305.71 78.7653L312.56 76.1684C312.436 85.237 311.784 94.2686 310.604 103.263C309.424 112.257 307.588 122.133 305.098 132.891L328.14 124.156L322.71 109.832L328.937 107.472L334.367 121.795L342.359 118.765L344.563 124.578Z" fill="#34919D"/>
<path d="M144.515 299.374L126.371 266.258L128.055 265.336L146.198 298.451L144.515 299.374ZM147.882 297.528L129.738 264.413L131.422 263.491L149.566 296.606L147.882 297.528ZM154.617 293.838L136.474 260.723L139.841 258.878L157.985 291.993L154.617 293.838ZM163.571 307.25L159.362 309.556L160.162 314.08L158.702 314.88L156.216 299.02L156.384 298.927L168.469 309.529L166.953 310.359L163.571 307.25ZM162.563 306.342L158.173 302.326L159.139 308.218L162.563 306.342ZM176.512 281.842L158.368 248.727L163.419 245.959L181.563 279.075L176.512 281.842ZM183.247 278.152L165.103 245.037L170.155 242.269L188.298 275.384L183.247 278.152ZM189.982 274.462L171.838 241.347L175.206 239.502L193.35 272.617L189.982 274.462ZM184.463 283.835L188.616 281.559C190.001 280.801 191.225 280.592 192.288 280.934C193.368 281.218 194.205 281.903 194.8 282.988C195.374 284.036 195.508 285.081 195.204 286.123C194.899 287.166 194.074 288.056 192.727 288.794L189.976 290.301L193.113 296.026L191.598 296.856L184.463 283.835ZM191.851 287.596C192.786 287.083 193.347 286.508 193.533 285.871C193.777 285.251 193.704 284.585 193.315 283.874C192.925 283.163 192.393 282.725 191.719 282.56C191.024 282.357 190.246 282.491 189.385 282.962L186.747 284.408L189.269 289.01L191.851 287.596ZM208.509 264.311L190.365 231.196L195.416 228.428L213.56 261.544L208.509 264.311ZM215.244 260.621L197.1 227.506L202.152 224.738L220.295 257.853L215.244 260.621ZM221.979 256.931L203.835 223.815L207.203 221.97L225.347 255.086L221.979 256.931ZM216.46 266.304L220.614 264.028C221.998 263.269 223.222 263.061 224.285 263.403C225.365 263.687 226.202 264.372 226.797 265.457C227.371 266.504 227.505 267.55 227.201 268.592C226.896 269.635 226.071 270.525 224.724 271.263L221.973 272.77L225.11 278.495L223.595 279.325L216.46 266.304ZM223.848 270.064C224.783 269.552 225.344 268.977 225.53 268.34C225.774 267.72 225.701 267.054 225.312 266.343C224.922 265.632 224.39 265.194 223.716 265.028C223.021 264.825 222.243 264.96 221.382 265.431L218.744 266.876L221.266 271.479L223.848 270.064ZM240.506 246.78L222.362 213.665L225.73 211.82L243.873 244.935L240.506 246.78ZM248.925 242.167L230.781 209.052L232.465 208.129L250.609 241.245L248.925 242.167ZM252.292 240.322L234.149 207.207L239.2 204.439L257.344 237.554L252.292 240.322ZM248.401 248.803L252.218 246.712C253.714 245.892 254.984 245.634 256.027 245.939C257.086 246.185 257.944 246.907 258.6 248.105C259.01 248.853 259.156 249.697 259.039 250.637C258.921 251.577 258.531 252.375 257.869 253.03L264.067 257.15L262.439 258.042L256.384 253.916L253.858 255.3L256.995 261.025L255.536 261.825L248.401 248.803ZM255.677 252.625C256.575 252.133 257.135 251.559 257.359 250.901C257.565 250.301 257.474 249.646 257.084 248.935C256.695 248.224 256.171 247.757 255.514 247.533C254.839 247.368 254.053 247.531 253.155 248.023L250.629 249.407L253.151 254.009L255.677 252.625ZM272.503 229.249L254.359 196.134L256.043 195.211L274.187 228.326L272.503 229.249ZM279.238 225.559L261.094 192.443L266.146 189.676L284.29 222.791L279.238 225.559ZM285.973 221.868L267.83 188.753L271.197 186.908L289.341 220.023L285.973 221.868ZM291.697 242.304C290.2 243.124 288.741 243.169 287.32 242.44C285.861 241.731 284.547 240.31 283.379 238.177C282.251 236.119 281.771 234.266 281.938 232.617C282.126 231.006 282.949 229.801 284.409 229.002C285.868 228.202 287.327 228.157 288.786 228.866C290.265 229.612 291.568 231.014 292.696 233.072C293.864 235.205 294.355 237.077 294.167 238.688C294.017 240.279 293.194 241.484 291.697 242.304ZM290.99 241.013C292 240.459 292.521 239.59 292.553 238.405C292.601 237.162 292.144 235.661 291.18 233.903C290.278 232.256 289.28 231.1 288.186 230.435C287.112 229.807 286.089 229.76 285.116 230.293C284.143 230.826 283.632 231.714 283.583 232.957C283.555 234.237 283.992 235.7 284.894 237.347C285.858 239.105 286.858 240.309 287.894 240.957C288.947 241.548 289.979 241.566 290.99 241.013ZM304.5 211.718L286.356 178.602L291.407 175.835L309.551 208.95L304.5 211.718ZM311.235 208.027L293.091 174.912L294.775 173.99L312.919 207.105L311.235 208.027ZM314.603 206.182L296.459 173.067L299.827 171.222L317.97 204.337L314.603 206.182ZM311.722 214.11L313.237 213.279L322.079 221.425L319.748 209.712L321.207 208.913L323.995 224.389L323.321 224.758L311.722 214.11ZM336.497 194.186L318.353 161.071L320.037 160.149L338.181 193.264L336.497 194.186ZM343.232 190.496L325.088 157.381L328.456 155.536L346.6 188.651L343.232 190.496ZM348.284 187.728L330.14 154.613L331.824 153.691L349.968 186.806L348.284 187.728ZM344.448 196.179L352.418 191.812L353.126 193.103L346.503 196.732L348.84 200.997L354.34 197.984L355.078 199.331L349.578 202.344L352.223 207.171L358.79 203.573L359.497 204.864L351.583 209.2L344.448 196.179ZM368.494 176.655L350.35 143.54L352.034 142.617L370.178 175.733L368.494 176.655ZM371.862 174.81L353.718 141.695L357.085 139.85L375.229 172.965L371.862 174.81ZM380.281 170.197L362.137 137.082L363.821 136.159L381.965 169.275L380.281 170.197ZM376.333 178.709L379.364 177.048C380.449 176.454 381.373 176.142 382.136 176.114C382.936 176.064 383.724 176.216 384.502 176.569C385.977 177.22 387.279 178.574 388.406 180.632C389.5 182.806 389.895 184.682 389.592 186.259C389.309 187.874 388.203 189.185 386.274 190.193L383.468 191.731L376.333 178.709ZM385.547 189.132C388.428 187.553 388.915 185.024 387.009 181.544C386.045 179.786 384.989 178.613 383.84 178.026C382.654 177.459 381.35 177.566 379.928 178.345L378.413 179.175L384.256 189.839L385.547 189.132Z" fill="#1C6BD4" fill-opacity="0.56"/>
</g>
<defs>
<filter id="filter0_d_1322_330" x="0.138672" y="9.42383" width="464.279" height="364.133" filterUnits="userSpaceOnUse" color-interpolation-filters="sRGB">
<feFlood flood-opacity="0" result="BackgroundImageFix"/>
<feColorMatrix in="SourceAlpha" type="matrix" values="0 0 0 0 0 0 0 0 0 0 0 0 0 0 0 0 0 0 127 0" result="hardAlpha"/>
<feOffset dy="2"/>
<feGaussianBlur stdDeviation="3"/>
<feComposite in2="hardAlpha" operator="out"/>
<feColorMatrix type="matrix" values="0 0 0 0 0 0 0 0 0 0 0 0 0 0 0 0 0 0 0.25 0"/>
<feBlend mode="normal" in2="BackgroundImageFix" result="effect1_dropShadow_1322_330"/>
<feBlend mode="normal" in="SourceGraphic" in2="effect1_dropShadow_1322_330" result="shape"/>
</filter>
<linearGradient id="paint0_linear_1322_330" x1="5474.77" y1="109.969" x2="5474.77" y2="11517.7" gradientUnits="userSpaceOnUse">
<stop stop-color="#FF5B57"/>
<stop offset="1" stop-color="#65DCC3"/>
</linearGradient>
<linearGradient id="paint1_linear_1322_330" x1="5278.53" y1="468.766" x2="4509.81" y2="11352.8" gradientUnits="userSpaceOnUse">
<stop stop-color="#FF5B57"/>
<stop offset="1" stop-color="#65DCC3"/>
</linearGradient>
<linearGradient id="paint2_linear_1322_330" x1="5058.72" y1="799.669" x2="3578.34" y2="11227.5" gradientUnits="userSpaceOnUse">
<stop stop-color="#FF5B57"/>
<stop offset="1" stop-color="#65DCC3"/>
</linearGradient>
<linearGradient id="paint3_linear_1322_330" x1="4818.48" y1="1101.25" x2="2715.48" y2="10894.2" gradientUnits="userSpaceOnUse">
<stop stop-color="#FF5B57"/>
<stop offset="1" stop-color="#65DCC3"/>
</linearGradient>
<linearGradient id="paint4_linear_1322_330" x1="4556.98" y1="1371.22" x2="1873.25" y2="10632.8" gradientUnits="userSpaceOnUse">
<stop stop-color="#FF5B57"/>
<stop offset="1" stop-color="#65DCC3"/>
</linearGradient>
<linearGradient id="paint5_linear_1322_330" x1="4283.73" y1="1610.18" x2="1106.5" y2="10245.6" gradientUnits="userSpaceOnUse">
<stop stop-color="#FF5B57"/>
<stop offset="1" stop-color="#65DCC3"/>
</linearGradient>
<linearGradient id="paint6_linear_1322_330" x1="3999.71" y1="1817.14" x2="400.57" y2="9810.66" gradientUnits="userSpaceOnUse">
<stop stop-color="#FF5B57"/>
<stop offset="1" stop-color="#65DCC3"/>
</linearGradient>
<linearGradient id="paint7_linear_1322_330" x1="3708.5" y1="1992.14" x2="-241.586" y2="9334.39" gradientUnits="userSpaceOnUse">
<stop stop-color="#FF5B57"/>
<stop offset="1" stop-color="#65DCC3"/>
</linearGradient>
<linearGradient id="paint8_linear_1322_330" x1="3412.13" y1="2134.68" x2="-819.458" y2="8823.22" gradientUnits="userSpaceOnUse">
<stop stop-color="#FF5B57"/>
<stop offset="1" stop-color="#65DCC3"/>
</linearGradient>
<linearGradient id="paint9_linear_1322_330" x1="3113.41" y1="2244.74" x2="-1326.23" y2="8275.34" gradientUnits="userSpaceOnUse">
<stop stop-color="#FF5B57"/>
<stop offset="1" stop-color="#65DCC3"/>
</linearGradient>
<linearGradient id="paint10_linear_1322_330" x1="2815.83" y1="2323.06" x2="-1755.67" y2="7694.55" gradientUnits="userSpaceOnUse">
<stop stop-color="#FF5B57"/>
<stop offset="1" stop-color="#65DCC3"/>
</linearGradient>
<linearGradient id="paint11_linear_1322_330" x1="2520.45" y1="2368.58" x2="-2107.72" y2="7088.12" gradientUnits="userSpaceOnUse">
<stop stop-color="#FF5B57"/>
<stop offset="1" stop-color="#65DCC3"/>
</linearGradient>
<linearGradient id="paint12_linear_1322_330" x1="2231.96" y1="2383.55" x2="-2388.7" y2="6474.44" gradientUnits="userSpaceOnUse">
<stop stop-color="#FF5B57"/>
<stop offset="1" stop-color="#65DCC3"/>
</linearGradient>
<linearGradient id="paint13_linear_1322_330" x1="1951.36" y1="2366.86" x2="-2606.92" y2="5862.02" gradientUnits="userSpaceOnUse">
<stop stop-color="#FF5B57"/>
<stop offset="1" stop-color="#65DCC3"/>
</linearGradient>
<linearGradient id="paint14_linear_1322_330" x1="1681.62" y1="2319.27" x2="-2752.95" y2="5247.78" gradientUnits="userSpaceOnUse">
<stop stop-color="#FF5B57"/>
<stop offset="1" stop-color="#65DCC3"/>
</linearGradient>
<linearGradient id="paint15_linear_1322_330" x1="1442.45" y1="2271.57" x2="-2800.43" y2="4662.31" gradientUnits="userSpaceOnUse">
<stop stop-color="#FF5B57"/>
<stop offset="1" stop-color="#65DCC3"/>
</linearGradient>
<linearGradient id="paint16_linear_1322_330" x1="1203.35" y1="2171.44" x2="-2793.07" y2="4065.66" gradientUnits="userSpaceOnUse">
<stop stop-color="#FF5B57"/>
<stop offset="1" stop-color="#65DCC3"/>
</linearGradient>
<linearGradient id="paint17_linear_1322_330" x1="983.899" y1="2046.51" x2="-2736.76" y2="3498.63" gradientUnits="userSpaceOnUse">
<stop stop-color="#FF5B57"/>
<stop offset="1" stop-color="#65DCC3"/>
</linearGradient>
<linearGradient id="paint18_linear_1322_330" x1="787.097" y1="1900.96" x2="-2626.3" y2="2962.81" gradientUnits="userSpaceOnUse">
<stop stop-color="#FF5B57"/>
<stop offset="1" stop-color="#65DCC3"/>
</linearGradient>
<linearGradient id="paint19_linear_1322_330" x1="610.088" y1="1717.61" x2="-2434.57" y2="2433.97" gradientUnits="userSpaceOnUse">
<stop stop-color="#FF5B57"/>
<stop offset="1" stop-color="#65DCC3"/>
</linearGradient>
<linearGradient id="paint20_linear_1322_330" x1="462.761" y1="1523.92" x2="-2162.23" y2="1949.07" gradientUnits="userSpaceOnUse">
<stop stop-color="#FF5B57"/>
<stop offset="1" stop-color="#65DCC3"/>
</linearGradient>
<linearGradient id="paint21_linear_1322_330" x1="339.099" y1="1254.9" x2="-1782.07" y2="1446.45" gradientUnits="userSpaceOnUse">
<stop stop-color="#FF5B57"/>
<stop offset="1" stop-color="#65DCC3"/>
</linearGradient>
<linearGradient id="paint22_linear_1322_330" x1="256.023" y1="1046.34" x2="-1424.44" y2="1079.2" gradientUnits="userSpaceOnUse">
<stop stop-color="#FF5B57"/>
<stop offset="1" stop-color="#65DCC3"/>
</linearGradient>
<linearGradient id="paint23_linear_1322_330" x1="203.258" y1="825.986" x2="-1055.74" y2="761.768" gradientUnits="userSpaceOnUse">
<stop stop-color="#FF5B57"/>
<stop offset="1" stop-color="#65DCC3"/>
</linearGradient>
<linearGradient id="paint24_linear_1322_330" x1="187.008" y1="559.739" x2="-647.279" y2="457.893" gradientUnits="userSpaceOnUse">
<stop stop-color="#FF5B57"/>
<stop offset="1" stop-color="#65DCC3"/>
</linearGradient>
</defs>
</svg>
